<svg xmlns="http://www.w3.org/2000/svg" width="18.704" height="32.37" viewBox="0 0 18.704 32.37">
  <path id="facebook" d="M19.148,1H23.7a1,1,0,0,1,1,1V8.074a1,1,0,0,1-1,1H19.148a.519.519,0,0,0-.519.519v3.556H23.7a1,1,0,0,1,.97,1.243l-1.519,6.074a1,1,0,0,1-.97.757H18.63V32.37a1,1,0,0,1-1,1H11.556a1,1,0,0,1-1-1V21.222H7a1,1,0,0,1-1-1V14.148a1,1,0,0,1,1-1h3.556V9.593A8.6,8.6,0,0,1,19.148,1ZM22.7,3H19.148a6.6,6.6,0,0,0-6.593,6.593v4.556a1,1,0,0,1-1,1H8v4.074h3.556a1,1,0,0,1,1,1V31.37H16.63V20.222a1,1,0,0,1,1-1H21.4l1.019-4.074H17.63a1,1,0,0,1-1-1V9.593a2.521,2.521,0,0,1,2.519-2.519H22.7Z" transform="translate(-6 -1)" fill="#fff"/>
</svg>
