<svg xmlns="http://www.w3.org/2000/svg" xmlns:xlink="http://www.w3.org/1999/xlink" width="1869.173" height="748.894" viewBox="0 0 1869.173 748.894">
  <defs>
    <filter id="Path_239" x="1374.88" y="362.231" width="385.644" height="373.432" filterUnits="userSpaceOnUse">
      <feOffset dy="3" input="SourceAlpha"/>
      <feGaussianBlur stdDeviation="3" result="blur"/>
      <feFlood flood-opacity="0.329"/>
      <feComposite operator="in" in2="blur"/>
      <feComposite in="SourceGraphic"/>
    </filter>
    <filter id="Path_81" x="0" y="0" width="736.835" height="748.894" filterUnits="userSpaceOnUse">
      <feOffset dy="3" input="SourceAlpha"/>
      <feGaussianBlur stdDeviation="3" result="blur-2"/>
      <feFlood flood-opacity="0.329"/>
      <feComposite operator="in" in2="blur-2"/>
      <feComposite in="SourceGraphic"/>
    </filter>
    <filter id="Path_129" x="1665.203" y="301.447" width="203.97" height="203.092" filterUnits="userSpaceOnUse">
      <feOffset dy="3" input="SourceAlpha"/>
      <feGaussianBlur stdDeviation="3" result="blur-3"/>
      <feFlood flood-opacity="0.329"/>
      <feComposite operator="in" in2="blur-3"/>
      <feComposite in="SourceGraphic"/>
    </filter>
  </defs>
  <g id="Group_66" data-name="Group 66" transform="translate(61.15 -951.553)">
    <g transform="matrix(1, 0, 0, 1, -61.15, 951.55)" filter="url(#Path_239)">
      <path id="Path_239-2" data-name="Path 239" d="M276.487,192.78A79.179,79.179,0,0,1,188,244.433a24.486,24.486,0,0,0,1.893-2.161,23.494,23.494,0,0,1,8.548-8.5c9.411-5.494,19.162-5.43,29.3-3.586a30.165,30.165,0,0,0,5.524.475,5.255,5.255,0,0,0,.645-10.482c-5.942-1.048-11.907-2.01-17.846-3.005l-.173-.818c5.448-2.206,10.882-4.472,16.36-6.6a32.985,32.985,0,0,0,6.715-3.054,5.623,5.623,0,0,0,2.726-6.979c-1.082-2.986-3.729-2.881-6.244-2.545a55.234,55.234,0,0,0-10.814,3.782,30.2,30.2,0,0,1-6.806,1.866c5.188-3.933,10.361-7.911,15.606-11.768a6.461,6.461,0,0,0,3.4-5.75c-.305-4.351-4.634-6.225-8.529-3.469-5.335,3.771-10.471,7.82-15.7,11.741-1.056.792-2.138,1.542-3.967,2.854a36.626,36.626,0,0,1,5.433-8.046c2.424-3.277,4.913-6.508,7.262-9.841a5.3,5.3,0,0,0-.072-7.488c-.06-.06-.124-.121-.189-.177-2.489-2.342-4.785-.988-6.991.562a27.8,27.8,0,0,0-5.365,6.067c-3.827,4.853-7.552,9.769-11.368,14.652a16.7,16.7,0,0,1-7.025,5.286c-3.028,1.207-4.057.543-4.306-2.711-.305-4.193-.547-8.389-.86-12.579a11.457,11.457,0,0,0-1.55-5.286,4.818,4.818,0,0,0-5.071-2.311,4.48,4.48,0,0,0-3.933,3.865,2.985,2.985,0,0,0-.17,1.09c1.075,7.583-1.331,14.988-1.222,22.472.17,10.229-4.272,19.769-7.349,29.078a8.876,8.876,0,0,0-1.5,5.207,80.019,80.019,0,0,1-8.461-5.158,89.6,89.6,0,0,1-15.576-14.256l-.132-.019s-.17-.253-.49-.69c-1.052-1.237-2.078-2.492-3.062-3.786-6.357-7.205-20.6-19.81-37.264-11.953-.739.392-1.474.8-2.225,1.165l-.075.038a15.139,15.139,0,0,1-2.587,1.165,66.866,66.866,0,0,1-25.877,5.524H67.8a66.877,66.877,0,0,1-48.64-20.945v0c-18.072-18.853-23.4-42.475-15.81-70.2a115.178,115.178,0,0,1,35.2-55.039A656.506,656.506,0,0,1,107.175,9.332q3.874-2.709,7.737-5.426A14.832,14.832,0,0,1,123.369.1a16.932,16.932,0,0,1,1.855-.1h.679a16.578,16.578,0,0,1,1.885.109,14.855,14.855,0,0,1,7.224,2.866c.181.121.373.226.558.351,2.862,1.9,5.769,3.789,8.672,5.675l3.469,2.262A909.436,909.436,0,0,1,226.139,66.6a152.525,152.525,0,0,1,46.476,59.164c10.135,23.909,11.413,45.831,3.872,67.021" transform="translate(1751.52 578.77) rotate(149)" fill="#a0195a" opacity="0.05"/>
    </g>
    <g transform="matrix(1, 0, 0, 1, -61.15, 951.55)" filter="url(#Path_81)">
      <path id="Path_81-2" data-name="Path 81" d="M541.915,103.574A155.191,155.191,0,0,0,368.48,2.335a47.98,47.98,0,0,1,3.71,4.235,46.048,46.048,0,0,0,16.754,16.65c18.446,10.768,37.557,10.642,57.437,7.028a59.128,59.128,0,0,1,10.827-.931,10.3,10.3,0,0,1,1.264,20.545c-11.647,2.054-23.338,3.939-34.978,5.89l-.34,1.6c10.679,4.323,21.328,8.765,32.066,12.933a64.65,64.65,0,0,1,13.162,5.986,11.02,11.02,0,0,1,5.343,13.679c-2.121,5.853-7.309,5.646-12.238,4.988a108.262,108.262,0,0,1-21.2-7.412,59.19,59.19,0,0,0-13.339-3.658c10.169,7.708,20.308,15.5,30.588,23.065a12.663,12.663,0,0,1,6.666,11.27c-.6,8.528-9.083,12.2-16.717,6.8-10.457-7.39-20.523-15.327-30.773-23.013-2.069-1.552-4.19-3.023-7.775-5.594a71.787,71.787,0,0,0,10.649,15.771c4.752,6.422,9.63,12.756,14.234,19.289a10.378,10.378,0,0,1-.14,14.677c-.118.118-.244.236-.37.347-4.878,4.589-9.378,1.936-13.7-1.1A54.493,54.493,0,0,1,409.1,133.49c-7.5-9.511-14.8-19.148-22.282-28.719A32.739,32.739,0,0,0,373.047,94.41c-5.934-2.365-7.952-1.064-8.44,5.314-.6,8.218-1.072,16.443-1.685,24.654a22.456,22.456,0,0,1-3.037,10.361,9.443,9.443,0,0,1-9.94,4.53,8.78,8.78,0,0,1-7.708-7.575,5.851,5.851,0,0,1-.333-2.136c2.106-14.862-2.609-29.376-2.394-44.046.333-20.05-8.373-38.747-14.4-56.994a17.4,17.4,0,0,1-2.949-10.206,156.847,156.847,0,0,0-16.584,10.11,175.624,175.624,0,0,0-30.529,27.943l-.259.037s-.333.5-.961,1.352c-2.062,2.424-4.072,4.885-6,7.42C255.365,79.3,227.452,104,194.787,88.6c-1.448-.769-2.89-1.567-4.36-2.284l-.148-.074a29.672,29.672,0,0,0-5.07-2.284A131.058,131.058,0,0,0,134.49,73.133h-1.6a131.079,131.079,0,0,0-95.334,41.053v.007C2.13,151.145-8.312,197.445,6.564,251.793a225.749,225.749,0,0,0,69,107.876,1286.752,1286.752,0,0,0,134.5,103.464q7.594,5.31,15.165,10.635a29.071,29.071,0,0,0,16.576,7.464,33.186,33.186,0,0,0,3.636.192h1.33a32.505,32.505,0,0,0,3.7-.214,29.116,29.116,0,0,0,14.16-5.617c.355-.236.732-.443,1.094-.687,5.609-3.732,11.307-7.427,17-11.122l6.8-4.434A1782.489,1782.489,0,0,0,443.233,350.9a298.948,298.948,0,0,0,91.092-115.961c19.865-46.862,22.37-89.829,7.59-131.362" transform="matrix(0.62, 0.79, -0.79, 0.62, 388.37, 6)" fill="#a0195a" opacity="0.05"/>
    </g>
    <g transform="matrix(1, 0, 0, 1, -61.15, 951.55)" filter="url(#Path_129)">
      <path id="Path_129-2" data-name="Path 129" d="M137.754,26.329A39.45,39.45,0,0,0,93.667.594,12.2,12.2,0,0,1,94.61,1.67,11.705,11.705,0,0,0,98.869,5.9c4.689,2.737,9.547,2.705,14.6,1.787a15.03,15.03,0,0,1,2.752-.237,2.618,2.618,0,0,1,.321,5.223c-2.961.522-5.933,1-8.891,1.5l-.086.408c2.715,1.1,5.422,2.228,8.151,3.288a16.434,16.434,0,0,1,3.346,1.522,2.8,2.8,0,0,1,1.358,3.477c-.539,1.488-1.858,1.435-3.111,1.268a27.52,27.52,0,0,1-5.388-1.884,15.046,15.046,0,0,0-3.391-.93c2.585,1.959,5.162,3.941,7.776,5.863A3.219,3.219,0,0,1,118,30.048c-.152,2.168-2.309,3.1-4.249,1.728-2.658-1.879-5.217-3.9-7.823-5.85-.526-.395-1.065-.768-1.976-1.422a18.248,18.248,0,0,0,2.707,4.009c1.208,1.633,2.448,3.242,3.618,4.9a2.638,2.638,0,0,1-.036,3.731c-.03.03-.062.06-.094.088-1.24,1.167-2.384.492-3.483-.28a13.852,13.852,0,0,1-2.673-3.023c-1.907-2.418-3.763-4.867-5.664-7.3A8.322,8.322,0,0,0,94.828,24c-1.509-.6-2.021-.271-2.145,1.351-.152,2.089-.272,4.18-.428,6.267a5.708,5.708,0,0,1-.772,2.634A2.4,2.4,0,0,1,88.956,35.4,2.232,2.232,0,0,1,87,33.477a1.487,1.487,0,0,1-.085-.543c.535-3.778-.663-7.467-.609-11.2.085-5.1-2.128-9.85-3.661-14.488a4.422,4.422,0,0,1-.75-2.594,39.87,39.87,0,0,0-4.216,2.57,44.644,44.644,0,0,0-7.761,7.1l-.066.009s-.085.126-.244.344c-.524.616-1.035,1.242-1.525,1.886-3.167,3.59-10.263,9.87-18.566,5.955-.368-.2-.735-.4-1.108-.58l-.038-.019a7.543,7.543,0,0,0-1.289-.58,33.315,33.315,0,0,0-12.893-2.752h-.408A33.32,33.32,0,0,0,9.545,29.026v0c-9,9.393-11.659,21.162-7.877,34.978A57.385,57.385,0,0,0,19.207,91.428a327.092,327.092,0,0,0,34.191,26.3q1.93,1.35,3.855,2.7a7.39,7.39,0,0,0,4.214,1.9,8.436,8.436,0,0,0,.924.049h.338a8.26,8.26,0,0,0,.939-.054,7.4,7.4,0,0,0,3.6-1.428c.09-.06.186-.113.278-.175,1.426-.949,2.874-1.888,4.321-2.827l1.728-1.127A453.109,453.109,0,0,0,112.669,89.2a75.993,75.993,0,0,0,23.156-29.477c5.05-11.912,5.687-22.834,1.929-33.392" transform="matrix(0.73, 0.68, -0.68, 0.73, 1757.66, 307.45)" fill="#a0195a" opacity="0.05"/>
    </g>
  </g>
</svg>
