<svg xmlns="http://www.w3.org/2000/svg" xmlns:xlink="http://www.w3.org/1999/xlink" width="1960.573" height="792.226" viewBox="0 0 1960.573 792.226">
  <defs>
    <filter id="Path_214" x="0" y="210.89" width="572.042" height="581.335" filterUnits="userSpaceOnUse">
      <feOffset dy="3" input="SourceAlpha"/>
      <feGaussianBlur stdDeviation="3" result="blur"/>
      <feFlood flood-opacity="0.329"/>
      <feComposite operator="in" in2="blur"/>
      <feComposite in="SourceGraphic"/>
    </filter>
    <filter id="Path_215" x="91.358" y="0" width="270.434" height="270.435" filterUnits="userSpaceOnUse">
      <feOffset dy="3" input="SourceAlpha"/>
      <feGaussianBlur stdDeviation="3" result="blur-2"/>
      <feFlood flood-opacity="0.329"/>
      <feComposite operator="in" in2="blur-2"/>
      <feComposite in="SourceGraphic"/>
    </filter>
    <filter id="Path_217" x="1588.923" y="126.217" width="203.97" height="203.092" filterUnits="userSpaceOnUse">
      <feOffset dy="3" input="SourceAlpha"/>
      <feGaussianBlur stdDeviation="3" result="blur-3"/>
      <feFlood flood-opacity="0.329"/>
      <feComposite operator="in" in2="blur-3"/>
      <feComposite in="SourceGraphic"/>
    </filter>
    <filter id="Path_216" x="1581.519" y="266.226" width="379.054" height="377.35" filterUnits="userSpaceOnUse">
      <feOffset dy="3" input="SourceAlpha"/>
      <feGaussianBlur stdDeviation="3" result="blur-4"/>
      <feFlood flood-opacity="0.329"/>
      <feComposite operator="in" in2="blur-4"/>
      <feComposite in="SourceGraphic"/>
    </filter>
  </defs>
  <g id="Group_71" data-name="Group 71" transform="translate(100.358 -4857.774)">
    <g transform="matrix(1, 0, 0, 1, -100.36, 4857.77)" filter="url(#Path_214)">
      <path id="Path_214-2" data-name="Path 214" d="M417.68,79.83A119.613,119.613,0,0,0,284.006,1.8a36.981,36.981,0,0,1,2.859,3.264A35.491,35.491,0,0,0,299.778,17.9c14.217,8.3,28.947,8.2,44.27,5.417a45.573,45.573,0,0,1,8.345-.718,7.938,7.938,0,0,1,.974,15.835c-8.977,1.583-17.988,3.036-26.959,4.54l-.262,1.236c8.231,3.332,16.439,6.756,24.715,9.968A49.829,49.829,0,0,1,361,58.788a8.494,8.494,0,0,1,4.118,10.543c-1.635,4.511-5.633,4.352-9.433,3.845a83.444,83.444,0,0,1-16.336-5.713,45.621,45.621,0,0,0-10.281-2.82c7.838,5.941,15.653,11.95,23.576,17.777a9.76,9.76,0,0,1,5.138,8.686c-.461,6.573-7,9.4-12.884,5.24-8.06-5.7-15.818-11.814-23.718-17.737-1.595-1.2-3.23-2.33-5.992-4.312A55.329,55.329,0,0,0,323.4,86.454c3.663,4.95,7.422,9.831,10.971,14.867a8,8,0,0,1-.108,11.312c-.091.091-.188.182-.285.268-3.759,3.537-7.228,1.492-10.56-.849a42,42,0,0,1-8.105-9.165c-5.781-7.331-11.409-14.758-17.174-22.135a25.234,25.234,0,0,0-10.612-7.986c-4.574-1.823-6.129-.82-6.5,4.1-.461,6.334-.826,12.674-1.3,19a17.308,17.308,0,0,1-2.341,7.986,7.278,7.278,0,0,1-7.661,3.492,6.767,6.767,0,0,1-5.941-5.838,4.509,4.509,0,0,1-.256-1.646c1.623-11.455-2.011-22.642-1.846-33.948.256-15.453-6.454-29.864-11.1-43.928a13.408,13.408,0,0,1-2.273-7.866,120.891,120.891,0,0,0-12.782,7.792,135.362,135.362,0,0,0-23.53,21.537l-.2.028s-.256.382-.74,1.042c-1.589,1.868-3.139,3.765-4.625,5.719-9.6,10.885-31.117,29.927-56.294,18.056-1.116-.592-2.227-1.208-3.361-1.76l-.114-.057a22.87,22.87,0,0,0-3.907-1.76,101.013,101.013,0,0,0-39.092-8.345h-1.236A101.029,101.029,0,0,0,28.943,88.009v.006c-27.3,28.48-35.35,64.166-23.883,106.055a174,174,0,0,0,53.178,83.145,991.766,991.766,0,0,0,103.668,79.745q5.853,4.093,11.688,8.2a22.407,22.407,0,0,0,12.776,5.753,25.581,25.581,0,0,0,2.8.148H190.2a25.055,25.055,0,0,0,2.848-.165,22.441,22.441,0,0,0,10.914-4.329c.273-.182.564-.342.843-.53,4.323-2.876,8.715-5.725,13.1-8.573l5.24-3.418a1373.854,1373.854,0,0,0,118.478-83.589,230.414,230.414,0,0,0,70.209-89.377c15.311-36.119,17.242-69.235,5.85-101.247" transform="matrix(0.62, 0.79, -0.79, 0.62, 301.4, 216.89)" fill="#a0195a" opacity="0.05"/>
    </g>
    <g transform="matrix(1, 0, 0, 1, -100.36, 4857.77)" filter="url(#Path_215)">
      <path id="Path_215-2" data-name="Path 215" d="M187.316,130.605A53.643,53.643,0,0,1,127.367,165.6a16.589,16.589,0,0,0,1.282-1.464,15.917,15.917,0,0,1,5.791-5.755c6.376-3.722,12.982-3.678,19.853-2.429a20.439,20.439,0,0,0,3.742.322,3.56,3.56,0,0,0,.437-7.1c-4.026-.71-8.067-1.362-12.09-2.036l-.118-.554c3.691-1.494,7.372-3.03,11.084-4.47a22.348,22.348,0,0,0,4.55-2.069,3.809,3.809,0,0,0,1.847-4.728c-.733-2.023-2.526-1.952-4.23-1.724a37.422,37.422,0,0,0-7.326,2.562,20.459,20.459,0,0,1-4.611,1.264c3.515-2.664,7.02-5.359,10.573-7.973a4.377,4.377,0,0,0,2.3-3.9c-.207-2.948-3.139-4.217-5.778-2.35-3.615,2.554-7.094,5.3-10.637,7.955-.715.536-1.448,1.045-2.687,1.934a24.813,24.813,0,0,1,3.681-5.451c1.643-2.22,3.328-4.409,4.92-6.667a3.587,3.587,0,0,0-.049-5.073c-.041-.041-.084-.082-.128-.12-1.686-1.586-3.242-.669-4.736.381a18.836,18.836,0,0,0-3.635,4.11c-2.593,3.288-5.117,6.619-7.7,9.927a11.317,11.317,0,0,1-4.759,3.581c-2.051.817-2.749.368-2.917-1.837-.207-2.841-.37-5.684-.582-8.522a7.762,7.762,0,0,0-1.05-3.581,3.264,3.264,0,0,0-3.436-1.566,3.035,3.035,0,0,0-2.664,2.618,2.023,2.023,0,0,0-.115.738c.728,5.137-.9,10.154-.828,15.225.115,6.93-2.894,13.393-4.979,19.7a6.013,6.013,0,0,0-1.019,3.528,54.208,54.208,0,0,1-5.732-3.495,60.706,60.706,0,0,1-10.553-9.658l-.089-.013s-.115-.171-.332-.467c-.713-.838-1.408-1.689-2.074-2.565-4.307-4.882-13.955-13.421-25.246-8.1-.5.266-1,.542-1.507.789l-.051.026a10.256,10.256,0,0,1-1.752.789,45.3,45.3,0,0,1-17.531,3.742h-.554a45.308,45.308,0,0,1-32.953-14.19v0C.736,114.162-2.873,98.158,2.269,79.373A78.031,78.031,0,0,1,26.118,42.085,444.773,444.773,0,0,1,72.609,6.322q2.625-1.835,5.242-3.676a10.049,10.049,0,0,1,5.73-2.58A11.472,11.472,0,0,1,84.837,0h.46a11.236,11.236,0,0,1,1.277.074,10.064,10.064,0,0,1,4.894,1.941c.123.082.253.153.378.238,1.939,1.29,3.908,2.567,5.875,3.844l2.35,1.533a616.126,616.126,0,0,1,53.133,37.487A103.332,103.332,0,0,1,184.692,85.2c6.866,16.2,7.732,31.05,2.623,45.406" transform="translate(352.79 123.67) rotate(135)" fill="#a0195a" opacity="0.05"/>
    </g>
    <g transform="matrix(1, 0, 0, 1, -100.36, 4857.77)" filter="url(#Path_217)">
      <path id="Path_217-2" data-name="Path 217" d="M137.754,26.329A39.45,39.45,0,0,0,93.667.594,12.2,12.2,0,0,1,94.61,1.67,11.705,11.705,0,0,0,98.869,5.9c4.689,2.737,9.547,2.705,14.6,1.787a15.03,15.03,0,0,1,2.752-.237,2.618,2.618,0,0,1,.321,5.223c-2.961.522-5.933,1-8.891,1.5l-.086.408c2.715,1.1,5.422,2.228,8.151,3.288a16.434,16.434,0,0,1,3.346,1.522,2.8,2.8,0,0,1,1.358,3.477c-.539,1.488-1.858,1.435-3.111,1.268a27.52,27.52,0,0,1-5.388-1.884,15.046,15.046,0,0,0-3.391-.93c2.585,1.959,5.162,3.941,7.776,5.863A3.219,3.219,0,0,1,118,30.048c-.152,2.168-2.309,3.1-4.249,1.728-2.658-1.879-5.217-3.9-7.823-5.85-.526-.395-1.065-.768-1.976-1.422a18.248,18.248,0,0,0,2.707,4.009c1.208,1.633,2.448,3.242,3.618,4.9a2.638,2.638,0,0,1-.036,3.731c-.03.03-.062.06-.094.088-1.24,1.167-2.384.492-3.483-.28a13.852,13.852,0,0,1-2.673-3.023c-1.907-2.418-3.763-4.867-5.664-7.3A8.322,8.322,0,0,0,94.828,24c-1.509-.6-2.021-.271-2.145,1.351-.152,2.089-.272,4.18-.428,6.267a5.708,5.708,0,0,1-.772,2.634A2.4,2.4,0,0,1,88.956,35.4,2.232,2.232,0,0,1,87,33.477a1.487,1.487,0,0,1-.085-.543c.535-3.778-.663-7.467-.609-11.2.085-5.1-2.128-9.85-3.661-14.488a4.422,4.422,0,0,1-.75-2.594,39.87,39.87,0,0,0-4.216,2.57,44.644,44.644,0,0,0-7.761,7.1l-.066.009s-.085.126-.244.344c-.524.616-1.035,1.242-1.525,1.886-3.167,3.59-10.263,9.87-18.566,5.955-.368-.2-.735-.4-1.108-.58l-.038-.019a7.543,7.543,0,0,0-1.289-.58,33.315,33.315,0,0,0-12.893-2.752h-.408A33.32,33.32,0,0,0,9.545,29.026v0c-9,9.393-11.659,21.162-7.877,34.978A57.385,57.385,0,0,0,19.207,91.428a327.092,327.092,0,0,0,34.191,26.3q1.93,1.35,3.855,2.7a7.39,7.39,0,0,0,4.214,1.9,8.436,8.436,0,0,0,.924.049h.338a8.26,8.26,0,0,0,.939-.054,7.4,7.4,0,0,0,3.6-1.428c.09-.06.186-.113.278-.175,1.426-.949,2.874-1.888,4.321-2.827l1.728-1.127A453.109,453.109,0,0,0,112.669,89.2a75.993,75.993,0,0,0,23.156-29.477c5.05-11.912,5.687-22.834,1.929-33.392" transform="matrix(0.73, 0.68, -0.68, 0.73, 1681.38, 132.22)" fill="#a0195a" opacity="0.05"/>
    </g>
    <g transform="matrix(1, 0, 0, 1, -100.36, 4857.77)" filter="url(#Path_216)">
      <path id="Path_216-2" data-name="Path 216" d="M267.446,186.476a76.59,76.59,0,0,1-85.593,49.964,23.682,23.682,0,0,0,1.831-2.09,22.725,22.725,0,0,1,8.268-8.217c9.1-5.314,18.535-5.252,28.346-3.469a29.184,29.184,0,0,0,5.343.46,5.083,5.083,0,0,0,.624-10.139c-5.748-1.014-11.518-1.944-17.262-2.907l-.168-.791c5.27-2.134,10.526-4.326,15.825-6.383a31.906,31.906,0,0,0,6.5-2.954,5.439,5.439,0,0,0,2.637-6.751c-1.047-2.889-3.607-2.786-6.04-2.462a53.43,53.43,0,0,0-10.46,3.658,29.211,29.211,0,0,1-6.583,1.805c5.019-3.8,10.023-7.652,15.1-11.383a6.25,6.25,0,0,0,3.29-5.562c-.3-4.209-4.482-6.022-8.25-3.355-5.161,3.647-10.128,7.564-15.187,11.357-1.021.766-2.068,1.492-3.837,2.761a35.43,35.43,0,0,1,5.256-7.783c2.345-3.169,4.752-6.3,7.025-9.519a5.122,5.122,0,0,0-.069-7.243c-.058-.058-.12-.117-.182-.171-2.407-2.265-4.628-.956-6.762.543a26.893,26.893,0,0,0-5.19,5.868c-3.7,4.694-7.305,9.45-11,14.173A16.157,16.157,0,0,1,184.106,191c-2.929,1.167-3.924.525-4.165-2.622-.3-4.056-.529-8.115-.832-12.167a11.083,11.083,0,0,0-1.5-5.113,4.66,4.66,0,0,0-4.906-2.236,4.333,4.333,0,0,0-3.8,3.738,2.888,2.888,0,0,0-.164,1.054c1.039,7.335-1.287,14.5-1.182,21.738.164,9.895-4.132,19.122-7.108,28.128a8.585,8.585,0,0,0-1.455,5.037,77.408,77.408,0,0,1-8.184-4.989,86.675,86.675,0,0,1-15.067-13.79l-.128-.018s-.164-.244-.474-.667c-1.018-1.2-2.01-2.411-2.962-3.662-6.149-6.97-19.925-19.163-36.046-11.562-.715.379-1.426.773-2.152,1.127l-.073.036a14.641,14.641,0,0,1-2.5,1.127A64.68,64.68,0,0,1,66.373,201.5h-.791a64.69,64.69,0,0,1-47.049-20.26v0C1.051,163-4.1,140.149,3.24,113.327A111.411,111.411,0,0,1,37.29,60.088,635.035,635.035,0,0,1,103.67,9.027q3.748-2.621,7.484-5.248A14.347,14.347,0,0,1,119.335.095,16.379,16.379,0,0,1,121.129,0h.657a16.036,16.036,0,0,1,1.824.106A14.369,14.369,0,0,1,130.6,2.878c.175.117.361.219.54.339,2.768,1.842,5.58,3.665,8.389,5.489l3.355,2.188a879.7,879.7,0,0,1,75.863,53.523A147.537,147.537,0,0,1,263.7,121.647c9.8,23.127,11.04,44.332,3.746,64.83" transform="translate(1951.57 445.99) rotate(137)" fill="#a0195a" opacity="0.05"/>
    </g>
  </g>
</svg>
