<svg xmlns="http://www.w3.org/2000/svg" xmlns:xlink="http://www.w3.org/1999/xlink" width="1833.823" height="748.894" viewBox="0 0 1833.823 748.894">
  <defs>
    <filter id="Path_209" x="0" y="0" width="736.835" height="748.894" filterUnits="userSpaceOnUse">
      <feOffset dy="3" input="SourceAlpha"/>
      <feGaussianBlur stdDeviation="3" result="blur"/>
      <feFlood flood-opacity="0.329"/>
      <feComposite operator="in" in2="blur"/>
      <feComposite in="SourceGraphic"/>
    </filter>
    <filter id="Path_211" x="1629.853" y="72.133" width="203.97" height="203.092" filterUnits="userSpaceOnUse">
      <feOffset dy="3" input="SourceAlpha"/>
      <feGaussianBlur stdDeviation="3" result="blur-2"/>
      <feFlood flood-opacity="0.329"/>
      <feComposite operator="in" in2="blur-2"/>
      <feComposite in="SourceGraphic"/>
    </filter>
    <filter id="Path_213" x="1481.15" y="383.137" width="242.669" height="225.757" filterUnits="userSpaceOnUse">
      <feOffset dy="3" input="SourceAlpha"/>
      <feGaussianBlur stdDeviation="3" result="blur-3"/>
      <feFlood flood-opacity="0.329"/>
      <feComposite operator="in" in2="blur-3"/>
      <feComposite in="SourceGraphic"/>
    </filter>
  </defs>
  <g id="Group_69" data-name="Group 69" transform="translate(61.15 -4219.106)">
    <g transform="matrix(1, 0, 0, 1, -61.15, 4219.11)" filter="url(#Path_209)">
      <path id="Path_209-2" data-name="Path 209" d="M541.915,103.574A155.191,155.191,0,0,0,368.48,2.335a47.98,47.98,0,0,1,3.71,4.235,46.048,46.048,0,0,0,16.754,16.65c18.446,10.768,37.557,10.642,57.437,7.028a59.128,59.128,0,0,1,10.827-.931,10.3,10.3,0,0,1,1.264,20.545c-11.647,2.054-23.338,3.939-34.978,5.89l-.34,1.6c10.679,4.323,21.328,8.765,32.066,12.933a64.65,64.65,0,0,1,13.162,5.986,11.02,11.02,0,0,1,5.343,13.679c-2.121,5.853-7.309,5.646-12.238,4.988a108.262,108.262,0,0,1-21.2-7.412,59.19,59.19,0,0,0-13.339-3.658c10.169,7.708,20.308,15.5,30.588,23.065a12.663,12.663,0,0,1,6.666,11.27c-.6,8.528-9.083,12.2-16.717,6.8-10.457-7.39-20.523-15.327-30.773-23.013-2.069-1.552-4.19-3.023-7.775-5.594a71.787,71.787,0,0,0,10.649,15.771c4.752,6.422,9.63,12.756,14.234,19.289a10.378,10.378,0,0,1-.14,14.677c-.118.118-.244.236-.37.347-4.878,4.589-9.378,1.936-13.7-1.1A54.493,54.493,0,0,1,409.1,133.49c-7.5-9.511-14.8-19.148-22.282-28.719A32.739,32.739,0,0,0,373.047,94.41c-5.934-2.365-7.952-1.064-8.44,5.314-.6,8.218-1.072,16.443-1.685,24.654a22.456,22.456,0,0,1-3.037,10.361,9.443,9.443,0,0,1-9.94,4.53,8.78,8.78,0,0,1-7.708-7.575,5.851,5.851,0,0,1-.333-2.136c2.106-14.862-2.609-29.376-2.394-44.046.333-20.05-8.373-38.747-14.4-56.994a17.4,17.4,0,0,1-2.949-10.206,156.847,156.847,0,0,0-16.584,10.11,175.624,175.624,0,0,0-30.529,27.943l-.259.037s-.333.5-.961,1.352c-2.062,2.424-4.072,4.885-6,7.42C255.365,79.3,227.452,104,194.787,88.6c-1.448-.769-2.89-1.567-4.36-2.284l-.148-.074a29.672,29.672,0,0,0-5.07-2.284A131.058,131.058,0,0,0,134.49,73.133h-1.6a131.079,131.079,0,0,0-95.334,41.053v.007C2.13,151.145-8.312,197.445,6.564,251.793a225.749,225.749,0,0,0,69,107.876,1286.752,1286.752,0,0,0,134.5,103.464q7.594,5.31,15.165,10.635a29.071,29.071,0,0,0,16.576,7.464,33.186,33.186,0,0,0,3.636.192h1.33a32.505,32.505,0,0,0,3.7-.214,29.116,29.116,0,0,0,14.16-5.617c.355-.236.732-.443,1.094-.687,5.609-3.732,11.307-7.427,17-11.122l6.8-4.434A1782.489,1782.489,0,0,0,443.233,350.9a298.948,298.948,0,0,0,91.092-115.961c19.865-46.862,22.37-89.829,7.59-131.362" transform="matrix(0.62, 0.79, -0.79, 0.62, 388.37, 6)" fill="#a0195a" opacity="0.05"/>
    </g>
    <g transform="matrix(1, 0, 0, 1, -61.15, 4219.11)" filter="url(#Path_211)">
      <path id="Path_211-2" data-name="Path 211" d="M137.754,26.329A39.45,39.45,0,0,0,93.667.594,12.2,12.2,0,0,1,94.61,1.67,11.705,11.705,0,0,0,98.869,5.9c4.689,2.737,9.547,2.705,14.6,1.787a15.03,15.03,0,0,1,2.752-.237,2.618,2.618,0,0,1,.321,5.223c-2.961.522-5.933,1-8.891,1.5l-.086.408c2.715,1.1,5.422,2.228,8.151,3.288a16.434,16.434,0,0,1,3.346,1.522,2.8,2.8,0,0,1,1.358,3.477c-.539,1.488-1.858,1.435-3.111,1.268a27.52,27.52,0,0,1-5.388-1.884,15.046,15.046,0,0,0-3.391-.93c2.585,1.959,5.162,3.941,7.776,5.863A3.219,3.219,0,0,1,118,30.048c-.152,2.168-2.309,3.1-4.249,1.728-2.658-1.879-5.217-3.9-7.823-5.85-.526-.395-1.065-.768-1.976-1.422a18.248,18.248,0,0,0,2.707,4.009c1.208,1.633,2.448,3.242,3.618,4.9a2.638,2.638,0,0,1-.036,3.731c-.03.03-.062.06-.094.088-1.24,1.167-2.384.492-3.483-.28a13.852,13.852,0,0,1-2.673-3.023c-1.907-2.418-3.763-4.867-5.664-7.3A8.322,8.322,0,0,0,94.828,24c-1.509-.6-2.021-.271-2.145,1.351-.152,2.089-.272,4.18-.428,6.267a5.708,5.708,0,0,1-.772,2.634A2.4,2.4,0,0,1,88.956,35.4,2.232,2.232,0,0,1,87,33.477a1.487,1.487,0,0,1-.085-.543c.535-3.778-.663-7.467-.609-11.2.085-5.1-2.128-9.85-3.661-14.488a4.422,4.422,0,0,1-.75-2.594,39.87,39.87,0,0,0-4.216,2.57,44.644,44.644,0,0,0-7.761,7.1l-.066.009s-.085.126-.244.344c-.524.616-1.035,1.242-1.525,1.886-3.167,3.59-10.263,9.87-18.566,5.955-.368-.2-.735-.4-1.108-.58l-.038-.019a7.543,7.543,0,0,0-1.289-.58,33.315,33.315,0,0,0-12.893-2.752h-.408A33.32,33.32,0,0,0,9.545,29.026v0c-9,9.393-11.659,21.162-7.877,34.978A57.385,57.385,0,0,0,19.207,91.428a327.092,327.092,0,0,0,34.191,26.3q1.93,1.35,3.855,2.7a7.39,7.39,0,0,0,4.214,1.9,8.436,8.436,0,0,0,.924.049h.338a8.26,8.26,0,0,0,.939-.054,7.4,7.4,0,0,0,3.6-1.428c.09-.06.186-.113.278-.175,1.426-.949,2.874-1.888,4.321-2.827l1.728-1.127A453.109,453.109,0,0,0,112.669,89.2a75.993,75.993,0,0,0,23.156-29.477c5.05-11.912,5.687-22.834,1.929-33.392" transform="matrix(0.73, 0.68, -0.68, 0.73, 1722.31, 78.13)" fill="#a0195a" opacity="0.05"/>
    </g>
    <g transform="matrix(1, 0, 0, 1, -61.15, 4219.11)" filter="url(#Path_213)">
      <path id="Path_213-2" data-name="Path 213" d="M185.258,129.171a53.053,53.053,0,0,1-59.29,34.609,16.4,16.4,0,0,0,1.268-1.448,15.742,15.742,0,0,1,5.727-5.692c6.306-3.681,12.839-3.638,19.635-2.4a20.214,20.214,0,0,0,3.7.318,3.521,3.521,0,0,0,.432-7.023c-3.982-.7-7.978-1.347-11.958-2.014l-.116-.548c3.651-1.478,7.291-3,10.962-4.421a22.1,22.1,0,0,0,4.5-2.046,3.767,3.767,0,0,0,1.827-4.676c-.725-2-2.5-1.93-4.184-1.705a37.011,37.011,0,0,0-7.246,2.534,20.235,20.235,0,0,1-4.56,1.251c3.476-2.635,6.943-5.3,10.457-7.885a4.329,4.329,0,0,0,2.279-3.853c-.2-2.916-3.1-4.171-5.715-2.324-3.575,2.526-7.016,5.24-10.52,7.867-.707.531-1.432,1.033-2.658,1.912a24.541,24.541,0,0,1,3.641-5.391c1.624-2.2,3.292-4.361,4.866-6.594a3.548,3.548,0,0,0-.048-5.017c-.04-.04-.083-.081-.126-.119-1.667-1.569-3.206-.662-4.684.376a18.629,18.629,0,0,0-3.6,4.065c-2.564,3.251-5.06,6.546-7.617,9.818a11.192,11.192,0,0,1-4.707,3.542c-2.029.808-2.718.364-2.885-1.816-.2-2.809-.366-5.621-.576-8.428a7.677,7.677,0,0,0-1.038-3.542,3.228,3.228,0,0,0-3.4-1.549,3,3,0,0,0-2.635,2.59,2,2,0,0,0-.114.73c.72,5.081-.892,10.043-.819,15.057.114,6.854-2.862,13.246-4.924,19.484a5.947,5.947,0,0,0-1.008,3.489,53.617,53.617,0,0,1-5.669-3.456,60.039,60.039,0,0,1-10.437-9.552l-.088-.013s-.114-.169-.328-.462c-.7-.829-1.392-1.67-2.051-2.537-4.26-4.828-13.8-13.274-24.969-8.009-.5.263-.988.536-1.491.781l-.051.025a10.144,10.144,0,0,1-1.733.781,44.8,44.8,0,0,1-17.339,3.7h-.548a44.81,44.81,0,0,1-32.591-14.034v0C.728,112.908-2.842,97.08,2.244,78.5A77.174,77.174,0,0,1,25.831,41.623,439.885,439.885,0,0,1,71.812,6.253Q74.407,4.438,77,2.617A9.938,9.938,0,0,1,82.663.066,11.345,11.345,0,0,1,83.906,0h.455a11.112,11.112,0,0,1,1.263.073,9.953,9.953,0,0,1,4.841,1.92c.121.081.25.152.374.235,1.918,1.276,3.865,2.539,5.811,3.8l2.324,1.516a609.354,609.354,0,0,1,52.55,37.075,102.2,102.2,0,0,1,31.141,39.642c6.791,16.02,7.647,30.709,2.595,44.907" transform="matrix(-0.97, 0.26, -0.26, -0.97, 1714.82, 548.11)" fill="#a0195a" opacity="0.05"/>
    </g>
  </g>
</svg>
