<svg xmlns="http://www.w3.org/2000/svg" xmlns:xlink="http://www.w3.org/1999/xlink" width="1942" height="411.479" viewBox="0 0 1942 411.479">
  <defs>
    <filter id="Subtraction_1" x="1707.003" y="141.902" width="234.997" height="269.577" filterUnits="userSpaceOnUse">
      <feOffset dy="3" input="SourceAlpha"/>
      <feGaussianBlur stdDeviation="3" result="blur"/>
      <feFlood flood-opacity="0.329"/>
      <feComposite operator="in" in2="blur"/>
      <feComposite in="SourceGraphic"/>
    </filter>
    <filter id="Subtraction_2" x="0" y="0" width="238.768" height="280.616" filterUnits="userSpaceOnUse">
      <feOffset dy="3" input="SourceAlpha"/>
      <feGaussianBlur stdDeviation="3" result="blur-2"/>
      <feFlood flood-opacity="0.329"/>
      <feComposite operator="in" in2="blur-2"/>
      <feComposite in="SourceGraphic"/>
    </filter>
  </defs>
  <g id="Group_68" data-name="Group 68" transform="translate(10 -3730.588)">
    <g transform="matrix(1, 0, 0, 1, -10, 3730.59)" filter="url(#Subtraction_1)">
      <path id="Subtraction_1-2" data-name="Subtraction 1" d="M161.053,531.567a165.927,165.927,0,0,1-65.183-13.336c-25.822-11.512-43.1-28.017-52.813-50.458A86.166,86.166,0,0,1,75.142,361.012a26.389,26.389,0,0,0,.1,3.123,25.6,25.6,0,0,1-.5,13.1,36.947,36.947,0,0,1-8.069,14.285,59.769,59.769,0,0,1-12.588,10.313,32.99,32.99,0,0,0-4.748,3.721,5.717,5.717,0,0,0,3.805,9.986,5.671,5.671,0,0,0,3.459-1.166c3.867-2.511,7.772-5.105,11.549-7.614,1.595-1.059,3.243-2.154,4.881-3.238l.745.522c-.8,1.717-1.6,3.443-2.366,5.113-1.864,4.038-3.791,8.211-5.755,12.278a35.95,35.95,0,0,0-3.078,7.413,6.113,6.113,0,0,0,3.01,7.576,4.628,4.628,0,0,0,2.1.556c1.992,0,3.5-1.633,4.757-3.164a60.176,60.176,0,0,0,5.8-11.034,32.9,32.9,0,0,1,4.031-6.535c-.3,1.723-.6,3.471-.889,5.16-.889,5.18-1.809,10.537-2.8,15.784a7.014,7.014,0,0,0,1.561,7.1,5.671,5.671,0,0,0,3.876,1.644c2.634,0,4.839-2.095,5.485-5.213.988-4.752,1.82-9.619,2.624-14.326.373-2.185.759-4.444,1.157-6.667.17-.954.369-1.924.62-3.152l0-.011c.122-.6.26-1.274.417-2.051a39.884,39.884,0,0,1,1.647,10.435c.157,1.377.308,2.778.454,4.133.322,2.984.654,6.066,1.07,9.086a5.761,5.761,0,0,0,5.613,5.906l.15,0,.131,0h.034c3.624,0,4.486-2.665,5.111-5.634a30.209,30.209,0,0,0-.232-8.809c-.314-3.784-.674-7.626-1.023-11.341v-.012c-.269-2.862-.547-5.822-.8-8.742a18.192,18.192,0,0,1,1.667-9.419c.877-1.858,1.655-2.65,2.6-2.65.751,0,1.626.5,2.837,1.613,1.6,1.479,3.2,2.986,4.746,4.443,1.725,1.623,3.506,3.3,5.271,4.929a12.528,12.528,0,0,0,5.156,3.056,5.236,5.236,0,0,0,5.75-1.924,4.864,4.864,0,0,0,.262-5.993,3.235,3.235,0,0,0-.674-.994c-3.766-3.042-6.6-6.97-9.333-10.767a73.33,73.33,0,0,0-6.37-8.021c-6.111-6.339-9.616-14.5-13.006-22.4-.88-2.05-1.791-4.17-2.723-6.2a9.69,9.69,0,0,0-2.667-5.26,86.023,86.023,0,0,1,10.561-2.174A92.81,92.81,0,0,1,122.719,347a104.392,104.392,0,0,1,10.811.575l.119-.083s.32.074.9.185c1.939.226,3.655.468,5.245.741,2.055.2,4.118.3,6.132.3,11.418,0,26.306-3.2,32.39-18.442q.115-.334.229-.67c.214-.629.435-1.28.676-1.909l.032-.085a16.362,16.362,0,0,1,1.193-2.847,73.513,73.513,0,0,1,7.058-12.608,72.36,72.36,0,0,1,9.435-10.989l.651-.608a72.772,72.772,0,0,1,49.643-19.571c1.52,0,3.06.048,4.577.144V521.659c-24.783,3.992-50.036,7.075-75.058,9.164C171.558,531.316,166.275,531.567,161.053,531.567Z" transform="translate(1680.69 -132.59)" fill="#a0195a" stroke="rgba(0,0,0,0)" stroke-miterlimit="10" stroke-width="1" opacity="0.05"/>
    </g>
    <g transform="matrix(1, 0, 0, 1, -10, 3730.59)" filter="url(#Subtraction_2)">
      <path id="Subtraction_2-2" data-name="Subtraction 2" d="M316.818,400.7a173.384,173.384,0,0,1-43.318-5.5V268.231c1.615,1.518,2.994,2.806,4.218,3.937a13.063,13.063,0,0,0,5.383,3.19,5.468,5.468,0,0,0,6-2.008,5.081,5.081,0,0,0,.273-6.258,3.377,3.377,0,0,0-.7-1.037c-3.932-3.177-6.887-7.277-9.745-11.243-1.709-2.372-3.477-4.824-5.43-7.044V208.058c1.1-.036,2.209-.054,3.3-.054a109.081,109.081,0,0,1,11.284.6l.124-.086s.335.078.942.193c2.017.234,3.808.487,5.476.773,2.145.21,4.3.316,6.4.316,11.923,0,27.468-3.341,33.819-19.255q.119-.343.235-.687l.006-.018c.223-.654.453-1.331.7-1.986l.033-.09a17.067,17.067,0,0,1,1.246-2.972,76.74,76.74,0,0,1,7.368-13.164,75.513,75.513,0,0,1,9.851-11.473l.679-.635A75.974,75.974,0,0,1,406.8,139.088c1.6,0,3.214.051,4.808.152,29.633,1.665,52.352,17.168,67.526,46.079a130.836,130.836,0,0,1,13.394,73c-1.608,16.254-3.78,32.664-6.457,48.776s-5.926,32.344-9.66,48.244c-.667,3.13-1.395,6.565-2.224,10.5a16.738,16.738,0,0,1-4.076,9.716,19.19,19.19,0,0,1-1.465,1.518l-.288.269-.275.257a18.7,18.7,0,0,1-1.652,1.37,16.89,16.89,0,0,1-8.221,3.217c-.12.02-.242.045-.36.069s-.249.052-.375.072c-3.69.608-7.461,1.273-11.108,1.916l-.493.087-4.634.808c-17.773,3.4-35.88,6.366-53.818,8.821s-36.166,4.462-54.207,5.969C327.786,400.442,322.27,400.7,316.818,400.7Z" transform="translate(-264 -132.59)" fill="#a0195a" stroke="rgba(0,0,0,0)" stroke-miterlimit="10" stroke-width="1" opacity="0.05"/>
    </g>
  </g>
</svg>
