<svg id="ikona_podpora_nezavislosti" xmlns="http://www.w3.org/2000/svg" xmlns:xlink="http://www.w3.org/1999/xlink" width="78.977" height="62.759" viewBox="0 0 78.977 62.759">
  <defs>
    <clipPath id="clip-path">
      <rect id="Rectangle_321" data-name="Rectangle 321" width="78.977" height="62.759" fill="#1e6eb4"/>
    </clipPath>
  </defs>
  <g id="Group_22" data-name="Group 22" clip-path="url(#clip-path)">
    <path id="Path_107" data-name="Path 107" d="M252.016,36a5.444,5.444,0,0,1-2.857,3.237c-7.476,4.28-14.916,8.623-22.4,12.894a25.424,25.424,0,0,1-3.786,1.625c-1.1.409-2.245.707-3.378,1.025a1.6,1.6,0,0,1-2.128-.862,21.564,21.564,0,0,1-2.007-3.54c-1.426-4.024-1.848-7.915,1.7-11.123.787-.712,1.825-1.139,2.678-1.788a14.145,14.145,0,0,0,2.5-2.219c2.128-2.635,4.136-5.367,6.233-8.029a1.138,1.138,0,0,0,.141-1.37Q224.886,17.331,221.1,8.8a4.049,4.049,0,0,1-.355-1.164,1.366,1.366,0,0,1,.961-1.5,1.424,1.424,0,0,1,1.772.521,5.261,5.261,0,0,1,.5.95q3.761,8.418,7.516,16.839c.1.23.214.456.324.691a21.448,21.448,0,0,0,9.69-3.463c-.679-1.834-1.35-3.652-2.027-5.469q-2.561-6.872-5.126-13.743c-.411-1.106-.111-2.007.757-2.341a1.561,1.561,0,0,1,2.107,1.112c.838,2.2,1.649,4.412,2.471,6.619q2.478,6.657,4.959,13.313a7.536,7.536,0,0,0,.531,1.1c1.929,3.357,3.874,6.7,5.795,10.066.39.683.7,1.413,1.042,2.121Zm-34.1,11.456a22.287,22.287,0,0,0,3.972-1.368c8.16-4.632,16.267-9.356,24.391-14.05.219-.126.434-.26.69-.414l-4.079-7.065a2.452,2.452,0,0,0-.291.116,25.278,25.278,0,0,1-10.6,3.62,3.056,3.056,0,0,0-.77.365c.772.218,1.365.372,1.949.555a1.559,1.559,0,1,1-.864,2.973c-1.011-.261-2.021-.528-3.042-.8l-.9,1.187c.645.181,1.207.333,1.766.5a1.578,1.578,0,1,1-.831,3c-.817-.211-1.624-.466-2.447-.654a.934.934,0,0,0-.744.113,12.69,12.69,0,0,0-1.034,1.331c.645.2,1.224.331,1.765.554a1.521,1.521,0,0,1-.8,2.917,4.373,4.373,0,0,1-1.191-.284,4.156,4.156,0,0,0-4.206.51c-2.786,1.767-3.614,3.555-2.734,6.891m.924,2.927c.452.422.85,1.037,1.094.981a14.83,14.83,0,0,0,4.014-1.24c8.118-4.6,16.179-9.292,24.255-13.961.856-.495.915-.911.274-1.767-.259.142-.529.283-.792.434q-11.952,6.9-23.911,13.789a16.544,16.544,0,0,1-2.6,1.088c-.689.251-1.411.414-2.333.677" transform="translate(-173.038 0)" fill="#1e6eb4"/>
    <path id="Path_108" data-name="Path 108" d="M332.7,278.814a1.991,1.991,0,0,1-2.052,1.166c-4.721-.016-9.441-.006-14.162-.011a5.025,5.025,0,0,1-.84-.078,1.507,1.507,0,0,1-.212-2.915,4.054,4.054,0,0,1,1.134-.142c4.618-.009,9.236.01,13.854-.019a2.357,2.357,0,0,1,2.278,1.074Z" transform="translate(-253.723 -223.397)" fill="#1e6eb4"/>
    <path id="Path_109" data-name="Path 109" d="M36.759,56.829v-.987q0-11.325,0-22.649c0-1.106.377-1.7,1.183-1.9a1.486,1.486,0,0,1,1.887,1.287,7.186,7.186,0,0,1,.03.846q0,20.069,0,40.137c0,1.828-.443,2.27-2.268,2.27-8.909,0-17.819-.048-26.728.029a27.449,27.449,0,0,1-8.111-1.032c-.49-.145-1-.231-1.487-.378A1.518,1.518,0,0,1,.078,72.861,26.266,26.266,0,0,1,.127,68.4a11.39,11.39,0,0,1,3.037-6.5A7.678,7.678,0,0,1,9.04,59.676a12.383,12.383,0,0,0,5.808-1.153c2.662-1.192,5.384-2.252,8.089-3.347a.784.784,0,0,0,.59-.9c-.256-4.072-.487-8.146-.723-12.22-.177-3.049-.36-6.1-.522-9.147a1.459,1.459,0,0,1,1.068-1.593,1.413,1.413,0,0,1,1.741.609,2.062,2.062,0,0,1,.272.941c.211,3.226.4,6.454.6,9.682.234,3.894.472,7.787.684,11.682a1,1,0,0,0,.751.982,22.468,22.468,0,0,0,9.364,1.619M20.22,59.72c.511.535,1.019,1.008,1.457,1.539a1.48,1.48,0,0,1-.085,2.144,1.52,1.52,0,0,1-2.1,0c-.43-.364-.812-.784-1.212-1.183-1.275-1.273-1.274-1.274-2.936-.551-.036.016-.057.065-.229.272a9.923,9.923,0,0,1,1.007.8,1.573,1.573,0,1,1-2.19,2.206c-.627-.607-1.223-1.247-1.861-1.842a1.24,1.24,0,0,0-.708-.344c-.845-.039-1.694-.032-2.541,0a5.09,5.09,0,0,0-5.06,4.66,30.813,30.813,0,0,0,4.561.7c9.166.066,18.333.033,27.5.033H36.7V60.035c-1.539-.109-3.026-.163-4.5-.332a23.2,23.2,0,0,1-6.7-1.906,2.33,2.33,0,0,0-.7-.073l-.093.237c.452.417.93.81,1.35,1.257A1.549,1.549,0,1,1,23.9,61.425c-.517-.46-.988-.972-1.478-1.463-.926-.927-.926-.928-2.2-.242M36.728,71.3H35.654q-13.818,0-27.637-.014a13.141,13.141,0,0,1-2.424-.313c-.793-.153-1.57-.392-2.586-.653.177.608.216,1.346.439,1.407a18.485,18.485,0,0,0,4.561.944c9.288.084,18.578.042,27.867.042h.852Z" transform="translate(0 -25.199)" fill="#1e6eb4"/>
    <path id="Path_110" data-name="Path 110" d="M9.568,298.442q-3.425,0-6.85,0a5.814,5.814,0,0,1-.767-.028,1.551,1.551,0,0,1-1.528-1.525,1.515,1.515,0,0,1,1.558-1.575q7.58-.054,15.161,0a1.573,1.573,0,0,1,1.583,1.57,1.629,1.629,0,0,1-1.769,1.547c-1.872.038-3.745.013-5.618.014H9.568" transform="translate(-0.341 -238.303)" fill="#1e6eb4"/>
    <path id="Path_111" data-name="Path 111" d="M206.023,308.847c2.411,0,4.823-.011,7.234,0,1.4.009,2.254.986,1.765,2.076a2.459,2.459,0,0,1-1.076.957,2.324,2.324,0,0,1-1.055.116q-6.888.009-13.775,0a5.227,5.227,0,0,1-1.067-.1,1.508,1.508,0,0,1-.09-2.919,4.179,4.179,0,0,1,1.06-.128c2.334-.011,4.669-.006,7-.005" transform="translate(-158.882 -249.245)" fill="#1e6eb4"/>
    <path id="Path_112" data-name="Path 112" d="M122.483,296.923a1.537,1.537,0,0,1-3.073.071,1.537,1.537,0,1,1,3.073-.071" transform="translate(-96.368 -238.4)" fill="#1e6eb4"/>
  </g>
</svg>
