<svg id="ikona_pracovni_terapie" xmlns="http://www.w3.org/2000/svg" xmlns:xlink="http://www.w3.org/1999/xlink" width="84.689" height="74.29" viewBox="0 0 84.689 74.29">
  <defs>
    <clipPath id="clip-path">
      <rect id="Rectangle_320" data-name="Rectangle 320" width="84.689" height="74.29" fill="#1e6eb4"/>
    </clipPath>
  </defs>
  <g id="Group_21" data-name="Group 21" clip-path="url(#clip-path)">
    <path id="Path_95" data-name="Path 95" d="M347.811,42.858a11.2,11.2,0,0,1-21.2-3.661,11.217,11.217,0,0,1,22.225-3.013,11.377,11.377,0,0,1-1.027,6.674m-10.05-13.881a8.962,8.962,0,1,0,8.927,8.979,8.976,8.976,0,0,0-8.927-8.979" transform="translate(-268.966 -21.992)" fill="#1e6eb4"/>
    <path id="Path_96" data-name="Path 96" d="M372.3,239.538h-.015a1.126,1.126,0,0,1-1.1-.929c-.582-3.166-2.458-5.26-5.832-5.689-3.225-.41-5.5,1.084-6.9,3.842a1.128,1.128,0,0,1-1.327.581l-.021-.006a1.118,1.118,0,0,1-.712-1.518,8.487,8.487,0,0,1,4.112-4.27,8.927,8.927,0,0,1,12.805,6c.027.107.068.4.108.734a1.123,1.123,0,0,1-1.114,1.256" transform="translate(-293.473 -189.907)" fill="#1e6eb4"/>
    <path id="Path_97" data-name="Path 97" d="M285.918,188.564l-.549,1.491a.33.33,0,0,1-.414.2c-.3-.1-.583-.195-.863-.3-6.434-2.371-12.859-4.77-19.315-7.082a6.26,6.26,0,0,0-2.463-.022,12.38,12.38,0,0,1-10.712-4.386,3.559,3.559,0,0,1-.519-3.174c.588-3.392,1.212-6.78,1.694-10.187a16.911,16.911,0,0,0-.125-3.461c-.211-3.079-.476-6.154-.645-9.235a6.313,6.313,0,0,1,.309-2.461,3.479,3.479,0,0,1,3.532-2.154,3.523,3.523,0,0,1,3.207,2.624q.73,2.861,1.291,5.764c.645,3.337,2.076,6.409,3.151,9.6.412,1.222.9,2.42,1.313,3.64a1.6,1.6,0,0,0,1.337,1.164c6.472,1.338,12.937,2.709,19.4,4.072h0a.322.322,0,0,1,.24.379l-.31,1.6a.331.331,0,0,1-.392.26c-1.58-.33-3.108-.647-4.635-.969-4.872-1.025-9.74-2.072-14.618-3.068a3.927,3.927,0,0,1-3.186-2.7c-1.248-3.52-2.632-6.995-3.778-10.546-.692-2.145-1.045-4.4-1.548-6.606-.141-.618-.255-1.243-.42-1.854a1.312,1.312,0,0,0-1.45-1.059,1.226,1.226,0,0,0-1.174,1.27c.015,1.517.122,3.035.226,4.551.194,2.83.511,5.655.581,8.487a23.368,23.368,0,0,1-.572,4.23c-.41,2.526-.863,5.046-1.255,7.574a1.348,1.348,0,0,0,.272.99,9.816,9.816,0,0,0,8.784,3.35,8.45,8.45,0,0,1,4.155.469c6.371,2.411,12.774,4.738,19.166,7.095l.093.035a.329.329,0,0,1,.188.42" transform="translate(-206.699 -121.728)" fill="#1e6eb4"/>
    <path id="Path_98" data-name="Path 98" d="M24.793,112.262,24.5,110.8a.391.391,0,0,1,.305-.459c1.806-.369,3.563-.732,5.321-1.084,1.664-.334,3.32-.74,5-.95a10.648,10.648,0,0,1,2.875.179,37.407,37.407,0,0,0,7.192.783,5.192,5.192,0,0,0,2.914-1.055c2.074-1.567,4.167-3.107,6.231-4.686a4.533,4.533,0,0,1,2.952-1c2.792.044,5.586.019,8.378.008a2.67,2.67,0,0,0,.931-.141.969.969,0,0,0,.622-1.153.982.982,0,0,0-.9-.882,5.05,5.05,0,0,0-.68-.023c-6.066,0-12.132-.011-18.2.013a6.88,6.88,0,0,0-1.987.3c-3.049.933-6.084,1.915-9.125,2.873a2.5,2.5,0,0,1-.728.14q-5.279.013-10.558,0h0a.384.384,0,0,1-.372-.39v-1.459a.39.39,0,0,1,.367-.389c.143-.008.285-.015.427-.015,3.159,0,6.318.006,9.477-.01A4.58,4.58,0,0,0,36.3,101.2c2.921-.924,5.832-1.881,8.754-2.8a5.95,5.95,0,0,1,1.727-.323q9.74-.034,19.481-.008a3.353,3.353,0,0,1,.842,6.578,5.771,5.771,0,0,1-1.478.174c-2.752.016-5.5-.016-8.256.028a2.981,2.981,0,0,0-1.7.566c-2.138,1.547-4.244,3.14-6.344,4.739a7.031,7.031,0,0,1-4.163,1.414c-2.983.114-5.841-.692-8.763-1a10.4,10.4,0,0,0-2.929.36c-2.72.52-5.432,1.077-8.223,1.637a.391.391,0,0,1-.46-.305" transform="translate(-20.173 -80.765)" fill="#1e6eb4"/>
    <path id="Path_99" data-name="Path 99" d="M25.34,233.522a15.71,15.71,0,1,1,15.708,15.712A15.756,15.756,0,0,1,25.34,233.522m15.709,13.45a13.448,13.448,0,1,0-13.43-13.484,13.446,13.446,0,0,0,13.43,13.484" transform="translate(-20.872 -179.412)" fill="#1e6eb4"/>
    <path id="Path_100" data-name="Path 100" d="M103.317,38.065h0a1.129,1.129,0,0,1-1.128-1.225,11.2,11.2,0,0,1,21.72-2.437,1.135,1.135,0,0,1-.825,1.486c-.234.052-.469.1-.706.129-.141.019-.418-.27-.478-.465a8.942,8.942,0,0,0-17.245.349c-.1.392-.161.792-.22,1.2a1.128,1.128,0,0,1-1.118.963" transform="translate(-84.167 -22.125)" fill="#1e6eb4"/>
    <path id="Path_101" data-name="Path 101" d="M398.014,260.687h0a1.076,1.076,0,0,1-1.076-1.076v-2.261a1.076,1.076,0,1,1,2.151,0v2.261a1.076,1.076,0,0,1-1.076,1.076" transform="translate(-326.947 -211.087)" fill="#1e6eb4"/>
    <path id="Path_102" data-name="Path 102" d="M161.322,60.218v1.094a1.1,1.1,0,0,1-2.2,0V60.218a1.1,1.1,0,0,1,2.2,0" transform="translate(-131.065 -48.694)" fill="#1e6eb4"/>
    <path id="Path_103" data-name="Path 103" d="M367.657,58.78h.037a1.141,1.141,0,0,1,1.14,1.14c0,1.58,0,3.147-.01,4.715a.663.663,0,0,1-.208.4q-1.867,1.878-3.75,3.752a1.14,1.14,0,0,1-1.633-.023l-.016-.017a1.14,1.14,0,0,1,0-1.568,13.821,13.821,0,0,1,1.548-1.461,4.3,4.3,0,0,0,1.8-4.337,8.784,8.784,0,0,1-.049-1.492,1.141,1.141,0,0,1,1.14-1.108" transform="translate(-298.915 -48.416)" fill="#1e6eb4"/>
    <path id="Path_104" data-name="Path 104" d="M110.5,263.6v4.5a1.1,1.1,0,0,0,1.1,1.1h5.674a1.1,1.1,0,0,1,1.1,1.1v.031a1.1,1.1,0,0,1-1.1,1.1H109.4a1.1,1.1,0,0,1-1.1-1.1V263.6a1.1,1.1,0,0,1,2.191,0" transform="translate(-89.208 -216.219)" fill="#1e6eb4"/>
    <path id="Path_105" data-name="Path 105" d="M0,212.653a20.178,20.178,0,1,1,20.175,20.181A20.238,20.238,0,0,1,0,212.653M20.177,230.5a17.843,17.843,0,1,0-17.819-17.89A17.84,17.84,0,0,0,20.177,230.5" transform="translate(0 -158.544)" fill="#1e6eb4"/>
    <path id="Path_106" data-name="Path 106" d="M330.085,22.931a15.63,15.63,0,0,1-16.654,8.741A15.786,15.786,0,0,1,300,17.736a15.918,15.918,0,0,1,31.541-4.276c.027.178.867,5.434-1.458,9.471M315.823,2.248a13.7,13.7,0,1,0,13.648,13.727A13.724,13.724,0,0,0,315.823,2.248" transform="translate(-247.023 0)" fill="#1e6eb4"/>
  </g>
</svg>
