<svg id="ikona_rehabilitace" xmlns="http://www.w3.org/2000/svg" xmlns:xlink="http://www.w3.org/1999/xlink" width="70.39" height="70.395" viewBox="0 0 70.39 70.395">
  <defs>
    <clipPath id="clip-path">
      <rect id="Rectangle_323" data-name="Rectangle 323" width="70.39" height="70.395" fill="#1e6eb4"/>
    </clipPath>
  </defs>
  <g id="Group_26" data-name="Group 26" clip-path="url(#clip-path)">
    <path id="Path_118" data-name="Path 118" d="M107.719,0a2.038,2.038,0,0,1,.893,1.994c-.028,1.692-.008,3.384-.008,5.189.8,0,1.543-.009,2.286,0a5.894,5.894,0,0,1,3.983,1.394,5.452,5.452,0,0,1,1.5,5.94A5.337,5.337,0,0,1,111.7,18c-1,.051-2,.009-3.048.009V29.835c1.084,0,2.153-.052,3.215.01a5.413,5.413,0,0,1,4.841,5.583,5.515,5.515,0,0,1-5.778,5.213c-.75-.008-1.5,0-2.286,0V52.387c1.082,0,2.13-.044,3.172.008a5.423,5.423,0,0,1,4.887,5.614,5.523,5.523,0,0,1-5.723,5.2c-.754,0-1.507,0-2.335,0-.015.287-.038.528-.039.77,0,1.558.008,3.116,0,4.673-.011,1.279-.481,1.738-1.745,1.738q-13.161,0-26.323,0c-1.264,0-1.734-.46-1.744-1.739-.013-1.535,0-3.07,0-4.6v-.838c-.836,0-1.606.016-2.376,0a5.509,5.509,0,0,1-5.148-3.034,5.383,5.383,0,0,1,4.381-7.784c1-.056,2.011-.009,3.08-.009V40.56c-1.082,0-2.154.051-3.22-.01a5.418,5.418,0,0,1-4.818-5.6,5.51,5.51,0,0,1,5.728-5.192c.753,0,1.505,0,2.315,0V18.062c-.7,0-1.425,0-2.146,0a6.167,6.167,0,0,1-3.287-.792,5.54,5.54,0,0,1-2.523-5.726,5.4,5.4,0,0,1,4.7-4.257c1.068-.091,2.142-.107,3.309-.162V5.43c0-1.145.023-2.291-.008-3.436A2.022,2.022,0,0,1,79.671,0Zm-1.867,25.349H81.538c0,1.8,0,3.537,0,5.277,0,1.42-.468,1.87-1.9,1.884-1.282.012-2.567-.023-3.844.062a2.555,2.555,0,0,0-2.363,2.64,2.6,2.6,0,0,0,2.389,2.627,10.236,10.236,0,0,0,1.028.047c5.168.021,4.685-.536,4.692,4.729,0,.641,0,1.283,0,1.924,0,.174.034.347.053.521h24.258c0-1.8-.006-3.564,0-5.324.006-1.374.479-1.834,1.865-1.849,1.3-.014,2.613.018,3.913-.066a2.511,2.511,0,0,0,2.311-2.4,2.619,2.619,0,0,0-1.931-2.8,5.557,5.557,0,0,0-1.228-.108c-1.122-.014-2.245.017-3.367-.014a1.407,1.407,0,0,1-1.557-1.523c-.028-.433-.008-.87-.009-1.305,0-1.436,0-2.872,0-4.322M81.538,67.6h24.314c0-1.822-.008-3.585,0-5.347.008-1.313.478-1.78,1.776-1.789,1.1-.008,2.2.061,3.3-.025a4.612,4.612,0,0,0,1.935-.541,2.634,2.634,0,0,0-1.371-4.78c-1.3-.048-2.611-.014-3.916-.036-1.2-.021-1.7-.523-1.72-1.725-.018-1.351,0-2.7,0-4.054q0-.706,0-1.413H81.538c0,1.8.005,3.565,0,5.326-.005,1.37-.494,1.857-1.855,1.87-1.282.012-2.566-.019-3.847.04a2.533,2.533,0,0,0-2.373,2.263,2.627,2.627,0,0,0,1.84,2.93,5.227,5.227,0,0,0,1.292.139c1.168.02,2.337-.011,3.5.02a1.3,1.3,0,0,1,1.4,1.294,12.944,12.944,0,0,1,.037,1.44c0,1.459,0,2.918,0,4.39m0-45.084h24.314v-.77c0-1.512,0-3.025,0-4.537,0-1.407.49-1.887,1.9-1.9,1.283-.01,2.567.02,3.848-.043a2.528,2.528,0,0,0,2.334-2.3c.178-1.784-1.015-3.016-2.976-3.026-2.841-.015-5.682,0-8.524-.006a6.147,6.147,0,0,1-.822-.039,1.368,1.368,0,0,1-1.158-1.258,1.346,1.346,0,0,1,.977-1.337,4.372,4.372,0,0,1,1.017-.112c1.114-.013,2.229,0,3.36,0v-4.4H81.538c0,1.756,0,3.469,0,5.183,0,1.542-.423,1.961-1.942,1.974-1.282.011-2.57-.032-3.843.078a2.544,2.544,0,0,0-2.317,2.745,2.573,2.573,0,0,0,2.492,2.523c1.006.05,2.016.027,3.023.028,2.388,0,2.587.2,2.587,2.585v4.62" transform="translate(-58.497)" fill="#1e6eb4"/>
    <path id="Path_119" data-name="Path 119" d="M0,197.342a1.839,1.839,0,0,1,1.875-.969c1.921.037,3.843.012,5.765.012a4.85,4.85,0,0,1,.548.012,1.392,1.392,0,0,1,1.291,1.358,1.331,1.331,0,0,1-1.29,1.348c-2.31.035-4.622.06-6.929-.032-.431-.017-.84-.588-1.259-.9v-.825" transform="translate(0 -162.557)" fill="#1e6eb4"/>
    <path id="Path_120" data-name="Path 120" d="M358.5,196.426c1.053,0,2.106-.009,3.158,0,.962.011,1.562.541,1.567,1.358a1.378,1.378,0,0,1-1.548,1.375q-3.193.017-6.385,0a1.375,1.375,0,1,1-.019-2.731c1.076-.016,2.151,0,3.227,0" transform="translate(-292.837 -162.598)" fill="#1e6eb4"/>
    <path id="Path_121" data-name="Path 121" d="M17.5,126.079a3.313,3.313,0,0,1,.86.49c1.287,1.239,2.549,2.506,3.8,3.785a1.355,1.355,0,0,1,.081,2.066,1.331,1.331,0,0,1-2.011-.141c-1.278-1.249-2.537-2.518-3.794-3.788a1.346,1.346,0,0,1-.385-1.563,1.4,1.4,0,0,1,1.453-.849" transform="translate(-13.19 -104.368)" fill="#1e6eb4"/>
    <path id="Path_122" data-name="Path 122" d="M360.641,127.2a7.179,7.179,0,0,1-.747,1.221c-1.208,1.253-2.445,2.479-3.688,3.7a1.376,1.376,0,1,1-1.96-1.9c1.248-1.278,2.52-2.534,3.789-3.792a1.263,1.263,0,0,1,1.557-.354,5.389,5.389,0,0,1,1.05,1.124" transform="translate(-292.805 -104.242)" fill="#1e6eb4"/>
    <path id="Path_123" data-name="Path 123" d="M17.862,250.809c-.359-.28-.86-.49-1.03-.854a2.612,2.612,0,0,1,.01-1.346c.024-.174.232-.332.376-.477,1.2-1.2,2.369-2.428,3.615-3.576A2.034,2.034,0,0,1,22.207,244a1.3,1.3,0,0,1,.726,2.249c-1.3,1.387-2.666,2.711-4.03,4.034a4.445,4.445,0,0,1-1.041.524" transform="translate(-13.86 -201.981)" fill="#1e6eb4"/>
    <path id="Path_124" data-name="Path 124" d="M358.881,250.334a3.938,3.938,0,0,1-.9-.544c-1.254-1.207-2.481-2.443-3.7-3.687a1.378,1.378,0,0,1-.165-2.068,1.338,1.338,0,0,1,2.062.108c1.278,1.249,2.537,2.517,3.793,3.788a1.338,1.338,0,0,1,.374,1.564,1.4,1.4,0,0,1-1.466.838" transform="translate(-292.813 -201.652)" fill="#1e6eb4"/>
    <path id="Path_125" data-name="Path 125" d="M155.556,183.849c-3.68.11-5.669-2.117-6.1-4.489a5.357,5.357,0,0,1,4.844-6.308,11.689,11.689,0,0,1,2.047,0,1.231,1.231,0,0,1,1.131,1.315,1.262,1.262,0,0,1-1.158,1.3c-.611.073-1.233.049-1.845.112a2.65,2.65,0,0,0,.013,5.272c.5.051,1.005.028,1.507.059.941.059,1.484.565,1.484,1.365s-.54,1.3-1.48,1.374a3.814,3.814,0,0,1-.438,0" transform="translate(-123.644 -143.215)" fill="#1e6eb4"/>
    <path id="Path_126" data-name="Path 126" d="M155.07,303.821c.356.018.77.013,1.177.066a1.266,1.266,0,0,1,1.149,1.237,1.236,1.236,0,0,1-1.065,1.369c-.606.093-1.228.075-1.842.121a2.658,2.658,0,0,0-2.457,2.356,2.629,2.629,0,0,0,1.883,2.837,13.445,13.445,0,0,0,2.111.167,1.321,1.321,0,0,1,1.369,1.392,1.175,1.175,0,0,1-.979,1.236c-2.965.519-6.084-.653-6.979-4.094a5.431,5.431,0,0,1,4.212-6.564,12,12,0,0,1,1.421-.123" transform="translate(-123.57 -251.503)" fill="#1e6eb4"/>
    <path id="Path_127" data-name="Path 127" d="M155.032,52.625a5.472,5.472,0,0,1-5.583-6.524,5.531,5.531,0,0,1,5.56-4.366,6.549,6.549,0,0,1,1.428.1,1.246,1.246,0,0,1,1.009,1.415,1.272,1.272,0,0,1-1.2,1.194c-.613.057-1.236.027-1.846.105a2.613,2.613,0,0,0-2.322,2.754,2.643,2.643,0,0,0,2.5,2.529c.591.042,1.191.023,1.774.111a1.235,1.235,0,0,1,1.1,1.343,1.27,1.27,0,0,1-1.187,1.275c-.407.05-.821.043-1.232.062" transform="translate(-123.622 -34.547)" fill="#1e6eb4"/>
    <path id="Path_128" data-name="Path 128" d="M221.566,44.569a1.317,1.317,0,0,1-1.372-1.308,1.342,1.342,0,1,1,2.683-.061,1.32,1.32,0,0,1-1.31,1.37" transform="translate(-182.276 -34.659)" fill="#1e6eb4"/>
  </g>
</svg>
