<svg id="ikona_pacienti_s_traumatologickymi" xmlns="http://www.w3.org/2000/svg" xmlns:xlink="http://www.w3.org/1999/xlink" width="90.176" height="82.076" viewBox="0 0 90.176 82.076">
  <defs>
    <clipPath id="clip-path">
      <rect id="Rectangle_351" data-name="Rectangle 351" width="90.176" height="82.076" fill="#fff"/>
    </clipPath>
  </defs>
  <g id="Group_48" data-name="Group 48" clip-path="url(#clip-path)">
    <path id="Path_195" data-name="Path 195" d="M90.176,38.385c-.384.55-.827,1.017-1.581.853-.833-.182-1.046-.877-1.191-1.578a16.555,16.555,0,0,0-5.926-9.693c-2.76-2.268-5.959-2.658-9.348-2.359-.233.02-.463.076-.7.086A1.269,1.269,0,0,1,70,24.562a1.159,1.159,0,0,1,1.027-1.48c1.8-.115,3.612-.1,5.418-.082a9.888,9.888,0,0,1,1.634.282C79.473,17.214,74.288,10.007,67.4,9.858c-.1,1.1-.186,2.2-.294,3.3a2.893,2.893,0,0,1-.174.679,1.3,1.3,0,0,1-1.637.942,1.316,1.316,0,0,1-.922-1.655,7.873,7.873,0,0,0,.024-4,9.217,9.217,0,0,0-7.256-6.36c-5.508-.878-10.632,3.706-10.57,9.516.031,2.905-.015,5.812.03,8.717a1.481,1.481,0,0,0,.566,1.04,18.248,18.248,0,0,0,8.054,2.783c1.16.155,2.34.172,3.5.349a4.622,4.622,0,0,1,4.15,4.85,73.9,73.9,0,0,1-.455,8.593,24.267,24.267,0,0,1-5.956,12.718c-2.222,2.526-4.745,4.788-7.145,7.155-.876.865-2.128,1.545-2.585,2.583s-.154,2.418-.146,3.649c.013,2.053-.056,4.116.112,6.157a8.967,8.967,0,0,0,5.432,7.717c.395.19.817.323,1.216.5a1.273,1.273,0,0,1,.71,1.683,1.287,1.287,0,0,1-1.64.794A11.568,11.568,0,0,1,46.332,77.3c-.385-.509-.718-1.058-1.041-1.538a32.429,32.429,0,0,1-2.567,3.092,11.678,11.678,0,0,1-18.358-2.967,1.487,1.487,0,0,0-1.463-.916A14.441,14.441,0,0,1,9.76,63.324,21.942,21.942,0,0,1,9.6,58.6a1.148,1.148,0,0,0-.573-1.2,19.413,19.413,0,0,1-7.243-24.39,18.721,18.721,0,0,1,7.28-8.366A.958.958,0,0,0,9.6,23.531,14.507,14.507,0,0,1,23.271,7.071,1.035,1.035,0,0,0,24.25,6.4,11.3,11.3,0,0,1,35.14.024a11.213,11.213,0,0,1,9.443,5.4c.2.309.39.631.536.868A41,41,0,0,1,48.195,2.8c5.29-4.817,14.428-3.19,17.766,3.146a1.878,1.878,0,0,0,1.776,1.164A14.435,14.435,0,0,1,80.942,22.582a2.52,2.52,0,0,0,1.367,2.672A18.918,18.918,0,0,1,89.98,36.761a5.715,5.715,0,0,0,.2.568Zm-67.2,33.833c.177-1.336.292-2.613.532-3.866A1.289,1.289,0,0,1,25.091,67.3,1.266,1.266,0,0,1,26.1,68.826c-.079.639-.23,1.272-.258,1.912-.2,4.516,3.885,8.589,8.681,8.683a9.359,9.359,0,0,0,9.347-9.053q.054-4.358-.011-8.716a1.733,1.733,0,0,0-.509-1.093c-2.492-2.4-5.053-4.736-7.525-7.16a27.671,27.671,0,0,1-7.21-12.1c-1.116-3.763-1.119-7.638-1.04-11.512a4.215,4.215,0,0,1,2.366-3.939,9.306,9.306,0,0,1,3.273-.815,21.616,21.616,0,0,0,9.937-2.869,1.348,1.348,0,0,0,.748-1.325q-.056-4.181-.007-8.364a10.21,10.21,0,0,0-1.365-5.282A9.092,9.092,0,0,0,31.65,3.2c-3.319,1.233-6.715,4.758-5.6,9.731.234,1.04-.167,1.7-.961,1.857-.87.169-1.447-.253-1.649-1.373-.21-1.167-.3-2.356-.448-3.544-6.195.04-11.948,6.6-10.658,13.32a.852.852,0,0,0,.245.046c.174-.018.344-.081.517-.088,1.982-.08,3.966-.221,5.947-.2A1.3,1.3,0,0,1,20.443,24.5c-.1.786-.742,1.174-1.7,1.081a15.815,15.815,0,0,0-1.932-.082c-2.512.064-5.006.293-7.059,1.943A22.02,22.02,0,0,0,6.495,30.5,16.632,16.632,0,0,0,7.526,52.755a11.293,11.293,0,0,0,5.163,3.359,19.326,19.326,0,0,0,6.284.41,1.272,1.272,0,0,1,1.554,1.167,1.363,1.363,0,0,1-1.33,1.457,11.9,11.9,0,0,1-2.188.17c-1.567-.076-3.13-.24-4.7-.368A11.621,11.621,0,0,0,22.976,72.218M45.093,58.746c2.354-2.2,4.528-4.212,6.672-6.251a26.549,26.549,0,0,0,7.555-12.16,36.4,36.4,0,0,0,.89-10.556,2.108,2.108,0,0,0-1.849-1.947,14.2,14.2,0,0,0-1.661-.176,21.971,21.971,0,0,1-10.877-3.3,1.014,1.014,0,0,0-1.184.009,47.447,47.447,0,0,1-4.356,2.043,27.162,27.162,0,0,1-7.75,1.385,2.134,2.134,0,0,0-2.245,2.438c0,1.5-.026,2.994.022,4.489a22.471,22.471,0,0,0,5.22,14.16c2.929,3.453,6.3,6.531,9.565,9.863" transform="translate(0 0)" fill="#fff"/>
    <path id="Path_196" data-name="Path 196" d="M359.4,244.681c-.441,1.286-.806,2.6-1.337,3.853a18.641,18.641,0,0,1-7.366,8.624,1.167,1.167,0,0,0-.618,1.285c.668,6.142-1.716,10.857-6.811,14.221a12.926,12.926,0,0,1-6.885,2.1c-.579.015-.726.346-.936.737a11.791,11.791,0,0,1-6.388,5.622c-.982.373-1.7.163-2.033-.571-.356-.795-.04-1.466,1.007-1.9a9.3,9.3,0,0,0,4.976-4.359,7.339,7.339,0,0,0,.651-5.28c-.255-1.042.108-1.756.938-1.94a1.409,1.409,0,0,1,1.652,1.319c.2,1.174.264,2.371.388,3.566,6.238.03,12.023-6.654,10.7-13.365a17.775,17.775,0,0,1-6.7.353c-.94-.146-1.5-.709-1.432-1.461.076-.78.677-1.171,1.65-1.2a46.641,46.641,0,0,0,5.5-.281c2.893-.432,4.915-2.364,6.733-4.475a15.593,15.593,0,0,0,3.537-7.357c.011-.057.039-.111.05-.168a1.549,1.549,0,0,1,1.143-1.407c.749-.167,1.182.325,1.581.848Z" transform="translate(-269.227 -199.779)" fill="#fff"/>
    <path id="Path_197" data-name="Path 197" d="M212.282,187.51c1.674-1.556,3.378-3.081,5.013-4.677a4.147,4.147,0,0,1,4.227-1.264,4,4,0,0,1,2.053,6.35,9.26,9.26,0,0,1-.649.717q-3.583,3.692-7.172,7.378c-1.96,2-4.263,2.047-6.256.109-1.324-1.287-2.706-2.527-3.908-3.922a3.949,3.949,0,0,1,1.967-6.4,3.849,3.849,0,0,1,3.7.8c.422.358.811.754,1.216,1.133l-.191-.223m.323,7.475a8.122,8.122,0,0,0,1.22-.85c2.425-2.464,4.828-4.951,7.233-7.434.182-.188.465-.4.477-.609a2.9,2.9,0,0,0-.163-1.521,1.064,1.064,0,0,0-1.55-.3,3.7,3.7,0,0,0-.736.615c-1.7,1.74-3.38,3.5-5.088,5.229a1.826,1.826,0,0,1-2.907.044c-.449-.42-.871-.87-1.325-1.285-.737-.675-1.453-.729-2.028-.178a1.413,1.413,0,0,0,.172,2.1q1.761,1.782,3.576,3.509a6.558,6.558,0,0,0,1.12.681" transform="translate(-168.525 -149.407)" fill="#fff"/>
  </g>
</svg>
