<svg id="ikona_bobath" xmlns="http://www.w3.org/2000/svg" xmlns:xlink="http://www.w3.org/1999/xlink" width="88.161" height="79.181" viewBox="0 0 88.161 79.181">
  <defs>
    <clipPath id="clip-path">
      <rect id="Rectangle_344" data-name="Rectangle 344" width="88.161" height="79.181" fill="#fff"/>
    </clipPath>
  </defs>
  <g id="Group_34" data-name="Group 34" clip-path="url(#clip-path)">
    <path id="Path_160" data-name="Path 160" d="M79.48,68.775v-.039H79.4a.751.751,0,0,1-.735-.919c1.181-4.965-.334-9.346-3.432-13.259a16.531,16.531,0,0,0-11.972-6.342.753.753,0,0,1-.539-1.194c3.2-4.443,3.671-9.114.66-13.921A11.021,11.021,0,0,0,51.4,27.734c-6.279,1.175-9.446,5.153-10.108,11.123a.754.754,0,0,1-1.283.444c-4.232-4.243-8.383-8.442-12.6-12.577-1.962-1.925-3.631-4.234-6.243-5.382a.761.761,0,0,1-.252-1.2c.276-.315.534-.62.765-.944a14.2,14.2,0,0,0,1.193-1.974,11.973,11.973,0,0,0-5.2-15.8A11.9,11.9,0,0,0,1.8,5.8a27.892,27.892,0,0,0-1.7,4.254C.09,11.387.076,12.6.061,13.93a21.843,21.843,0,0,0,1.392,3.735,28.308,28.308,0,0,0,2.48,3.386A.754.754,0,0,1,3.827,22.1a10.312,10.312,0,0,0-1.978,1.932,23.527,23.527,0,0,0-1.78,3.681A.742.742,0,0,0,0,28.022v50.4a.755.755,0,0,0,.807.752c.2-.013.394-.023.592-.023,33.443,0,51.943,0,85.386,0h.622a.754.754,0,0,0,.754-.754v-8.87a.754.754,0,0,0-.754-.754Zm-26.09-37.73a8.545,8.545,0,0,1-.133,17.089,8.545,8.545,0,1,1,.133-17.089M43.85,46.988l.017.022a.754.754,0,0,1-.547,1.218l-.025,0a.754.754,0,0,1-.762-.989l.008-.024a.754.754,0,0,1,1.309-.229m-1.117,4.827a20.88,20.88,0,0,1,2.6-.18q8.106-.024,16.212-.006A13.747,13.747,0,0,1,75.516,63.665a9.44,9.44,0,0,1,.035,2.209,3.278,3.278,0,0,1-3.237,2.88q-7,.046-14,0a3.379,3.379,0,0,1-.647-6.674,6.975,6.975,0,0,1,1.495-.15c2.819-.014,5.639-.007,8.458-.007H68a.754.754,0,0,0,.754-.754V59.249a.752.752,0,0,0-.71-.753c-.091,0-.182-.007-.272-.007-2.517,0-5.037.063-7.552-.021-2.376-.079-4.608.164-6.42,1.832a.752.752,0,0,1-1.017,0c-1.748-1.595-3.861-1.9-6.149-1.834-2.635.078-5.274.03-7.977.021a.755.755,0,0,0-.756.755v1.925a.754.754,0,0,0,.753.754h.307c2.987,0,5.975-.02,8.962.009a3.489,3.489,0,0,1,3.434,2.313,3.224,3.224,0,0,1-1.145,3.764,3.911,3.911,0,0,1-2.023.726c-4.6.063-9.2.051-13.795.025A3.337,3.337,0,0,1,31,65.286,13.636,13.636,0,0,1,42.733,51.815M27.157,68.694H23.193a.754.754,0,0,1-.754-.754V42.217a.754.754,0,0,1,1.288-.532c2.507,2.51,4.936,4.943,7.374,7.368a12.386,12.386,0,0,0,1.588,1.385,6.874,6.874,0,0,0,.831.486.754.754,0,0,1,.16,1.225c-4.543,4.216-6.972,9.229-5.787,15.65a.753.753,0,0,1-.737.9M3.481,12.022a8.547,8.547,0,1,1,8.542,8.584,8.493,8.493,0,0,1-8.542-8.584M3.444,67.689q0-18.882,0-37.765c0-2.727,1.18-4.64,3.323-5.437a6.1,6.1,0,0,1,1.746-.3q4.743-.023,9.486-.017a4.984,4.984,0,0,1,3.57,1.612q8.411,8.394,16.8,16.808a3.117,3.117,0,0,1,.188,4.642c-1.313,1.283-3.175,1.186-4.644-.278q-5.707-5.687-11.4-11.391c-.214-.214-.426-.429-.646-.635a1.493,1.493,0,0,0-1.925-.331,2.437,2.437,0,0,0-.981,1.577c-.114,2.176-.053,4.361-.054,6.543q0,12.337,0,24.673v.573a.754.754,0,0,1-.754.754H4.2a.755.755,0,0,1-.754-.726c0-.1-.006-.2-.007-.3M83.979,75.55H4.242a.754.754,0,0,1-.754-.754V73.07a.754.754,0,0,1,.754-.754H83.979a.754.754,0,0,1,.754.754V74.8a.754.754,0,0,1-.754.754" transform="translate(0 0)" fill="#fff"/>
  </g>
</svg>
