<svg id="ikona_pacienti_s_ortopedickymi" xmlns="http://www.w3.org/2000/svg" xmlns:xlink="http://www.w3.org/1999/xlink" width="91.869" height="91.982" viewBox="0 0 91.869 91.982">
  <defs>
    <clipPath id="clip-path">
      <rect id="Rectangle_348" data-name="Rectangle 348" width="91.869" height="91.982" fill="#fff"/>
    </clipPath>
  </defs>
  <g id="Group_42" data-name="Group 42" clip-path="url(#clip-path)">
    <path id="Path_181" data-name="Path 181" d="M68.963,0A37.914,37.914,0,0,1,73.975,1.8a12.947,12.947,0,0,1,6.621,8.52,1.179,1.179,0,0,0,.933.992c5.595,1.569,9.187,5.224,10.118,10.915A13.827,13.827,0,0,1,73,37.634,6.266,6.266,0,0,0,65.786,39.2Q52.5,52.514,39.185,65.8a6.327,6.327,0,0,0-1.556,7.225,13.866,13.866,0,1,1-26.29,8.7,1.332,1.332,0,0,0-1.105-1.133,13.876,13.876,0,0,1,1.465-27.1,14.1,14.1,0,0,1,7.218.8,6.267,6.267,0,0,0,7.208-1.59q13.194-13.217,26.42-26.4a6.556,6.556,0,0,0,1.7-7.513A13.751,13.751,0,0,1,65.07.161a1.106,1.106,0,0,0,.3-.16ZM10.785,77.525c.072-.4.137-.661.162-.921a13.255,13.255,0,0,1,3.719-8.056A2.337,2.337,0,0,1,15.7,67.9a1.393,1.393,0,0,1,1.659.759,1.549,1.549,0,0,1-.384,1.949,10.789,10.789,0,0,0,2.752,17,10.243,10.243,0,0,0,10.967-.57c4.3-2.808,5.837-7.988,3.978-13.055-1.365-3.72-.815-7.147,1.958-9.954q13.6-13.761,27.358-27.361c2.749-2.72,6.091-3.307,9.781-2.077a16.078,16.078,0,0,0,3.734.839A10.723,10.723,0,0,0,88.633,22.677a10.787,10.787,0,0,0-18.035-5.7,1.552,1.552,0,0,1-2.372.113,1.584,1.584,0,0,1,.247-2.369A13.205,13.205,0,0,1,74.5,11.333c.942-.24,1.915-.356,2.925-.538a3.038,3.038,0,0,0-.065-.452A10.761,10.761,0,1,0,57.141,17.7a9.418,9.418,0,0,1-2.365,10.745C46.092,37.117,37.39,45.766,28.762,54.488c-3.284,3.32-6.936,4.217-11.339,2.609A10.088,10.088,0,0,0,6.587,59.262,10.2,10.2,0,0,0,3.449,70.029a10.494,10.494,0,0,0,7.336,7.5" transform="translate(0 -0.001)" fill="#fff"/>
    <path id="Path_182" data-name="Path 182" d="M98.97,406.266a4.7,4.7,0,0,1-4.82-5.029,6.727,6.727,0,0,1,2.823-5.443,4.647,4.647,0,0,1,7.657,3.45,6.747,6.747,0,0,1-4.851,6.9,6.2,6.2,0,0,1-.809.118M97.3,401.252a1.581,1.581,0,0,0,2.766,1.357,3.6,3.6,0,0,0,1.412-3.38,1.41,1.41,0,0,0-2.107-1.241,3.515,3.515,0,0,0-2.071,3.264" transform="translate(-77.208 -323.665)" fill="#fff"/>
    <path id="Path_183" data-name="Path 183" d="M416.954,111.459a6.686,6.686,0,0,1,4.314-6.3,4.434,4.434,0,0,1,5.86,2.888,6.731,6.731,0,0,1-3.988,8.108c-3.2,1.127-6.172-1.125-6.185-4.692m3.1-.043c-.013,1.386.833,2.19,1.956,1.858a3.706,3.706,0,0,0,2.17-4.3,1.3,1.3,0,0,0-1.681-.911,3.445,3.445,0,0,0-2.444,3.358" transform="translate(-341.934 -86.001)" fill="#fff"/>
  </g>
</svg>
