<svg id="ikona_pacienti_s_dusevnimi" xmlns="http://www.w3.org/2000/svg" xmlns:xlink="http://www.w3.org/1999/xlink" width="85.827" height="85.842" viewBox="0 0 85.827 85.842">
  <defs>
    <clipPath id="clip-path">
      <rect id="Rectangle_349" data-name="Rectangle 349" width="85.827" height="85.842" fill="#fff"/>
    </clipPath>
  </defs>
  <g id="Group_44" data-name="Group 44" clip-path="url(#clip-path)">
    <path id="Path_184" data-name="Path 184" d="M0,29.182c.229-1.2.39-2.411.7-3.587A23.556,23.556,0,0,1,14.681,9.122a23.208,23.208,0,0,1,19.913.46,1.117,1.117,0,0,0,1.6-.3,28.505,28.505,0,0,1,36.8-4.5A27.222,27.222,0,0,1,84.927,21.657c2.552,10.963-.333,20.44-8.556,28.14a26.628,26.628,0,0,1-18.184,7.349,48.794,48.794,0,0,1-6.9-.547,1.191,1.191,0,0,0-1.449.635c-2.9,4.783-7.187,7.289-12.78,7.1a13.516,13.516,0,0,1-12.21-7.878,1.575,1.575,0,0,0-1.55-1.04A23.409,23.409,0,0,1,9.124,50.181,23.623,23.623,0,0,1,.33,35.167C.24,34.622.111,34.083,0,33.541V29.182m82.308-.632c-.192-1.575-.27-3.287-.625-4.94A24.465,24.465,0,0,0,69.3,6.763,24.231,24.231,0,0,0,51.417,4.312,23.846,23.846,0,0,0,39.853,10.7c-.851.843-1.613,1.777-2.428,2.657a1.862,1.862,0,0,1-2.549.452c-.3-.153-.577-.339-.873-.5a19.967,19.967,0,0,0-18.051-.825A20.249,20.249,0,0,0,3.861,34.238C5.063,42.05,9.5,47.421,16.769,50.447a19.335,19.335,0,0,0,8.1,1.375A2.251,2.251,0,0,1,27.519,53.6c.1.26.2.519.3.778a10.642,10.642,0,0,0,14.826,5.078,10.936,10.936,0,0,0,4.711-5.262c.731-1.708,1.345-1.98,3.145-1.5.081.022.156.064.236.085a23.847,23.847,0,0,0,16.2-1.162C76.754,47.18,81.684,39.36,82.308,28.55" transform="translate(0 0)" fill="#fff"/>
    <path id="Path_185" data-name="Path 185" d="M21.317,368.446a7.037,7.037,0,0,1-3.049-1.922,5.32,5.32,0,0,1-.55-6.085,5.408,5.408,0,0,1,5.433-2.684,5.509,5.509,0,0,1,4.494,4.187,5.386,5.386,0,0,1-3.5,6.194,6.26,6.26,0,0,0-.65.31Zm1.041-3.641a1.723,1.723,0,1,0,.087-3.445,1.724,1.724,0,1,0-.087,3.445" transform="translate(-13.439 -282.605)" fill="#fff"/>
    <path id="Path_186" data-name="Path 186" d="M85.152,313.826a7.153,7.153,0,1,1,7.112,7.157,7.178,7.178,0,0,1-7.112-7.157m10.68,0a3.481,3.481,0,0,0-3.485-3.524,3.574,3.574,0,0,0-3.607,3.529,3.651,3.651,0,0,0,3.525,3.562,3.574,3.574,0,0,0,3.567-3.566" transform="translate(-67.274 -242.293)" fill="#fff"/>
  </g>
</svg>
