<svg id="ikona_mickova_facilitace" xmlns="http://www.w3.org/2000/svg" xmlns:xlink="http://www.w3.org/1999/xlink" width="80" height="53.672" viewBox="0 0 80 53.672">
  <defs>
    <clipPath id="clip-path">
      <rect id="Rectangle_339" data-name="Rectangle 339" width="80" height="53.672" fill="#fff"/>
    </clipPath>
  </defs>
  <g id="Group_28" data-name="Group 28" clip-path="url(#clip-path)">
    <path id="Path_130" data-name="Path 130" d="M49.414,41.018A13.508,13.508,0,0,0,59.373,45.1h.1c4.07-.023,8.206-.018,12.207-.014q3.014,0,6.029,0c1.582,0,2.288-.7,2.289-2.274q0-11.461,0-22.923h0a2.244,2.244,0,0,0-2.235-2.242q-1.39,0-2.777,0c-2.209,0-4.493.005-6.743-.028a2.776,2.776,0,0,1-1.931-.932c-.85-1.005-1.689-2.043-2.5-3.046-1.264-1.563-2.572-3.179-3.93-4.685A26.647,26.647,0,0,0,44,.383L42.378.114,41.691,0h-29.7C11.6.18,11.2.345,10.81.506A11.623,11.623,0,0,0,8.216,1.828C5.521,3.871,4.633,7.177,5.84,10.671A7.616,7.616,0,0,0,10,15l1.809.79-1.721.967a19.7,19.7,0,1,0,29.337,17.2c0-.111,0-.221-.008-.331l-.006-.185-.064-2.462,1.74,1.742c3.245,3.248,5.889,5.884,8.322,8.3M35.712,35A16.042,16.042,0,0,1,20.76,49.955q-.514.033-1.026.033A16.024,16.024,0,1,1,35.712,35m.7-12.59A3.855,3.855,0,0,1,35.4,18.47a3.71,3.71,0,0,1,3.08-2.705,3.988,3.988,0,0,1,3.662,1.35c4.009,4.02,7.355,7.365,10.531,10.527a2.032,2.032,0,0,0,3.04.238c.858-.861.763-2.028-.25-3.046-3.633-3.653-7.339-7.351-10.527-10.53a8.442,8.442,0,0,0-6.249-2.553c-7.45.029-15.024.018-22.349.007l-2.446,0a6.7,6.7,0,0,1-1.923-.235A3.792,3.792,0,0,1,9.407,8.9a3.867,3.867,0,0,1,.852-3.643,4.266,4.266,0,0,1,3.375-1.341h0q4.52,0,9.04,0c5.4,0,10.981,0,16.472.011a24.845,24.845,0,0,1,3.522.236,23.481,23.481,0,0,1,15.082,8.324c1.846,2.2,3.668,4.479,5.43,6.682l1.121,1.4a2.4,2.4,0,0,0,2.087,1.006c1.838-.029,3.7-.023,5.506-.017q1.125,0,2.25,0h1.915V41.172h-2.03l-4.186,0c-3.251,0-6.614,0-9.92.006h-.049a10.792,10.792,0,0,1-8.1-3.379c-2.264-2.319-4.6-4.647-6.866-6.9q-1.478-1.471-2.954-2.944L39.939,25.94q-1.762-1.764-3.526-3.527" transform="translate(0.001)" fill="#fff"/>
  </g>
</svg>
