<svg xmlns="http://www.w3.org/2000/svg" width="95.412" height="74.123" viewBox="0 0 95.412 74.123">
  <path id="ikona_bazalni_stimulace" d="M67.059,74.123c-3.447-.008-6.951-.007-10.34-.007-3.833,0-7.8,0-11.695-.011a5.413,5.413,0,0,1-3.937-1.4,5.252,5.252,0,0,1-1.4-3.847,9.632,9.632,0,0,1,.085-1.238c-4.411-2.753-9.731-4.06-16.708-4.108a83.177,83.177,0,0,0-10.957.47,45.7,45.7,0,0,0-7.4,1.815c-.428.13-.872.266-1.309.4A2.746,2.746,0,0,1,.11,65.4L0,65.268V8.861l.108-.136a2.648,2.648,0,0,1,3.316-.77A37.933,37.933,0,0,0,14.435,10.5c2.315.138,4.685.124,6.979.112.783,0,1.594-.009,2.391-.007A36.324,36.324,0,0,0,37.166,7.981a11.16,11.16,0,0,0,1.959-1.1c.211-.138.427-.278.646-.416A6.573,6.573,0,0,1,39.6,5.017a4.851,4.851,0,0,1,1.472-3.524A4.56,4.56,0,0,1,44.38.046C49.042.033,53.927.023,59.315.014c.814,0,1.642,0,2.442,0,1.677,0,3.409.009,5.112-.016a3.283,3.283,0,0,1,2.569,1.056C70.2,1.85,71,2.641,71.766,3.406c.73.726,1.485,1.478,2.216,2.231a1.43,1.43,0,0,0,1.167.484c4.862-.019,9.8-.017,14.584-.014l2.936,0a2.921,2.921,0,0,1,2.174.584,3.035,3.035,0,0,1,.57,2.2V25.209c0,1.367-.092,2.154-.591,2.659s-1.282.6-2.636.6l-3.955,0c-4.264,0-8.674.005-13.011-.018a1.7,1.7,0,0,0-1.4.591c-.757.791-1.545,1.573-2.307,2.33-.7.692-1.417,1.407-2.108,2.123a3.33,3.33,0,0,1-2.57,1.073c-.858,0-1.729-.014-2.572-.023-2.568-.027-5.223-.056-7.823.044a6.282,6.282,0,0,1-4.669-1.549,5.1,5.1,0,0,1-1.5-3.779,7.253,7.253,0,0,1,.045-.792c-.177,0-.349,0-.524,0-.887-.009-1.791,0-2.666,0-2.006.013-4.082.025-6.118-.139A4.8,4.8,0,0,1,37.744,26.7a4.987,4.987,0,0,1-1.217-3.277,5.11,5.11,0,0,1,.824-2.769.8.8,0,0,0,.16-.349.669.669,0,0,0-.131-.3,5.029,5.029,0,0,1-.872-2.749,5.277,5.277,0,0,1,1.025-3.008c-.265-.548-.521-1.083-.782-1.625a61.818,61.818,0,0,1-16.366,2.233A61.4,61.4,0,0,1,4.17,12.62V61.606a48.88,48.88,0,0,1,16.153-2.238c4.958.007,10.76.285,16.373,2.252l.84-1.758-.067-.106a5.167,5.167,0,0,1-.949-2.887,5.426,5.426,0,0,1,.872-2.833.757.757,0,0,0,.076-.319v-.011a4.752,4.752,0,0,1-.964-2.894,5.14,5.14,0,0,1,1.51-3.635,5.506,5.506,0,0,1,4.042-1.524c1.778.019,3.588.014,5.339.009q1.2,0,2.4,0h.525c0-.015,0-.03,0-.044-.029-.291-.059-.592-.059-.89,0-.131.006-.253.017-.371a5.256,5.256,0,0,1,1.593-3.437,5.38,5.38,0,0,1,3.623-1.33c3.509-.064,7.345-.059,11.726.016a3.317,3.317,0,0,1,2.013.907c1.739,1.622,3.367,3.3,4.591,4.573a1.7,1.7,0,0,0,1.4.592c4.423-.023,8.918-.021,13.266-.018l3.884,0a3.29,3.29,0,0,1,2.447.606,3.39,3.39,0,0,1,.6,2.47V65.144a3.167,3.167,0,0,1-.568,2.293,3.051,3.051,0,0,1-2.267.582H89.132c-4.583,0-9.321,0-13.981-.014a1.431,1.431,0,0,0-1.168.482c-.821.847-1.669,1.691-2.489,2.507-.7.7-1.425,1.42-2.128,2.138a3.04,3.04,0,0,1-2.3.989ZM44.421,68.111a2,2,0,0,0-.7,1.057.727.727,0,0,0-.009.107.77.77,0,0,0,.65.679,3.486,3.486,0,0,0,.875.086h.913c6.559,0,13.343.01,20.012-.018a1.408,1.408,0,0,0,.845-.36c1.27-1.214,2.934-2.828,4.547-4.541a3.653,3.653,0,0,1,2.9-1.189c4.018.019,8.1.016,12.055.013l4.17,0h.6v-14.2H90.7l-4.081,0c-4.1,0-8.341-.005-12.512.017a3.132,3.132,0,0,1-2.394-1c-1.849-1.892-3.361-3.4-4.758-4.736a1.4,1.4,0,0,0-.845-.347c-3.195-.035-6.446-.026-9.589-.018l-.636,0a3.284,3.284,0,0,0-.861.116.822.822,0,0,0-.676.848,1.407,1.407,0,0,0,.008.148.836.836,0,0,0,.845.852c.584.03,1.186.031,1.768.031H57.3c.941,0,1.86,0,2.834,0h1.734v4.087h-5.03c-4.725,0-9.611,0-14.416.006a4.089,4.089,0,0,0-1.126.13.8.8,0,0,0-.653.823,1.328,1.328,0,0,0,.013.185.84.84,0,0,0,.82.822,8.982,8.982,0,0,0,.958.039c3.1,0,6.254,0,9.3,0h4.036v4.084h-4.24c-3.018,0-6.138,0-9.206.008a3.328,3.328,0,0,0-1.091.142.816.816,0,0,0-.6.81,1.3,1.3,0,0,0,.014.183.829.829,0,0,0,.756.811,6.866,6.866,0,0,0,1.027.056c2.929,0,5.907,0,8.786,0H55.77v4.08H51.587c-3.008,0-6.117,0-9.175.006a3.987,3.987,0,0,0-1.122.13.808.808,0,0,0-.644.837c0,.038,0,.076,0,.116a.842.842,0,0,0,.773.864,6.586,6.586,0,0,0,1.023.061c3.076,0,6.2,0,9.229,0h4.09v4.076H52.078c-2.205,0-4.486,0-6.729.009H45.1A1.609,1.609,0,0,0,44.421,68.111Zm10-39.024a1.14,1.14,0,0,0-.09.427c0,.567.568.95,1.413.954,4.232.018,7.471.014,10.5-.014a1.164,1.164,0,0,0,.676-.308c1.6-1.545,3.195-3.141,4.754-4.743a3.229,3.229,0,0,1,2.474-1.036c4.153.023,8.375.02,12.459.017l4.134,0h.515v-14.2h-4.71c-4.011,0-8.159,0-12.237.008A3.417,3.417,0,0,1,71.66,9.106c-1.517-1.593-3.049-3.119-4.551-4.537a1.8,1.8,0,0,0-1.081-.46c-6.187-.034-12.48-.029-18.565-.023l-2.083,0a4.6,4.6,0,0,0-.987.083.825.825,0,0,0-.687.857c0,.029,0,.057,0,.085a.792.792,0,0,0,.574.847,3.7,3.7,0,0,0,1.116.141c1.855.011,3.741.009,5.566.008h4.808v4.076H50.705c-2.812,0-5.72,0-8.58,0-1.486,0-1.486.74-1.486.982V11.2c0,.244.017.986,1.544,1,.123,0,.251,0,.373,0h13.23v4.08H50.782c-2.9,0-5.9,0-8.85.009-.834,0-1.269.32-1.292.944,0,.016,0,.032,0,.048,0,.82.812.985,1.3,1.01.133.007.272.005.418,0l.2,0H55.835v.5c0,.244-.005.475-.011.7,0,.205-.009.4-.009.588a6.614,6.614,0,0,0,.03.688,2.971,2.971,0,0,1,.017.31,1.268,1.268,0,0,1-.338.952,1.706,1.706,0,0,1-1.247.367c-3.888-.041-7.843-.028-11.667-.015l-.68,0c-.833,0-1.267.319-1.29.942,0,.015,0,.03,0,.045,0,.855.907.993,1.3,1.012.134.006.272.005.418,0l.2,0H61.933v.5c0,.255,0,.5-.007.734s-.007.432-.007.64c0,.309.008.561.023.791.005.071.008.139.008.2a1.211,1.211,0,0,1-.325.917,1.44,1.44,0,0,1-1.067.318c-1.154-.032-2.333-.025-3.473-.018-.518,0-1.055.006-1.583.005h0C54.911,28.472,54.6,28.651,54.425,29.087ZM17.732,42.812a1.626,1.626,0,0,1-1.625-1.625v-.715a1.626,1.626,0,0,1,1.625-1.625H30.648a1.627,1.627,0,0,1,1.625,1.625v.715a1.627,1.627,0,0,1-1.625,1.625ZM26.04,34.5a1.627,1.627,0,0,1-1.625-1.625v-.716a1.627,1.627,0,0,1,1.625-1.624H38.957a1.627,1.627,0,0,1,1.625,1.624v.716A1.627,1.627,0,0,1,38.957,34.5Z" transform="translate(0 0)" fill="#fff"/>
</svg>
