<svg xmlns="http://www.w3.org/2000/svg" width="112.174" height="68.62" viewBox="0 0 112.174 68.62">
  <path id="ikona_nrx" d="M63.31,66.159,31.986,42.738c-1.522-1.03-3.248-2.318-5.132-3.829a1.463,1.463,0,0,0-.788-.315.431.431,0,0,0-.071.005,16.172,16.172,0,0,1-2.545.208,14.566,14.566,0,0,1-9.283-3.4c-4.465-3.585-8.212-6.6-11.981-9.647-2.351-1.9-2.838-4.44-1.3-6.789a6.045,6.045,0,0,1,1.2-1.236c.111-.094.224-.192.335-.29a5.036,5.036,0,0,1-.351-4.531A5.14,5.14,0,0,1,5.69,10a5.084,5.084,0,0,1,1.1-3.239A4.991,4.991,0,0,1,9.521,5.077c.089-.282.167-.563.242-.837a7.227,7.227,0,0,1,.789-2.052A4.6,4.6,0,0,1,14.446,0a5.544,5.544,0,0,1,3.42,1.265c.816.643,1.638,1.3,2.432,1.945.989.8,2.012,1.622,3.031,2.413a1.711,1.711,0,0,0,.946.318,5.273,5.273,0,0,1,3.3,1.211c.636.517,1.291,1.036,1.924,1.537,1.648,1.308,3.353,2.659,4.916,4.119A14.185,14.185,0,0,1,38.785,21.7a14.457,14.457,0,0,1,.081,2.624.993.993,0,0,0,.132.62L61.9,41.354a8.962,8.962,0,0,0,5.249,1.695,9.206,9.206,0,0,0,1.5-.123,8.986,8.986,0,0,0,5.878-3.662l15.293-21.4a12.245,12.245,0,0,1,8.1-5.008,12.533,12.533,0,0,1,1.955-.155,12.206,12.206,0,0,1,7.3,2.417,12.329,12.329,0,0,1,1.689,18.327L79.708,64.7a12.313,12.313,0,0,1-16.4,1.463Zm7.022-20.244L61.1,60.4l4.181,3.126A9.022,9.022,0,0,0,75.55,63.9l-.6-20.329A12.322,12.322,0,0,1,70.331,45.915Zm7.574-5.73.621,20.956,6.558-7.031C83,45.233,81.622,39.3,80.875,36.031ZM52.772,54.174l5.871,4.39,7.814-12.259a12.229,12.229,0,0,1-5.612-1.732Zm-9.8-7.328L50.32,52.34l8-9.51-4.562-3.269ZM87.6,51.421l7.336-7.863-11.6-10.522C83.908,35.631,85.906,44.206,87.6,51.421ZM34.864,40.784l5.515,4.124L51.1,37.662l-5.837-4.183C40.324,36.982,36.83,39.435,34.864,40.784ZM84.928,30.361,97.016,41.322l1.851-1.984L86.405,28.294Zm-50.279.92a1.631,1.631,0,0,1,.025,2.257,14.463,14.463,0,0,1-4,3.365c-.182.1-.365.2-.571.313l.2.163,1.97,1.472c1.784-1.21,6.448-4.49,10.2-7.148a68.4,68.4,0,0,1-6.06-4.428,2.934,2.934,0,0,1-.466-.467l-.48-.344.153-.216a2.209,2.209,0,0,1-.167-.792l-7.218.988a1.648,1.648,0,0,1-1.484,1.038,1.617,1.617,0,0,1-.5-.081,1.717,1.717,0,0,1-1.047-2.3c.624-2.291,1.113-4.042,1.589-5.678.1-.329.049-.423-.164-.575-.414-.3-.807-.622-1.225-.965l-.292-.239-.5.63c-.533.667-1.036,1.3-1.561,1.931a4.736,4.736,0,0,1-3.788,1.829c-.114,0-.231,0-.347-.011a6.687,6.687,0,0,1-1.215-.225l-.263-.064a4.964,4.964,0,0,1-3.687,3,4.94,4.94,0,0,1-2.254,4.295c.843.625,1.643,1.3,2.42,1.947a22.8,22.8,0,0,0,5.153,3.581,10.535,10.535,0,0,0,4.383.931,11.091,11.091,0,0,0,8.34-3.744,3.967,3.967,0,0,1,.542-.545,1.841,1.841,0,0,1,1.147-.449A1.608,1.608,0,0,1,34.649,31.28ZM98.433,16.107a8.97,8.97,0,0,0-5.942,3.672l-4.3,6.014L100.954,37.1l5.5-5.9a9.041,9.041,0,0,0-1.239-13.439,8.95,8.95,0,0,0-5.35-1.771A9.157,9.157,0,0,0,98.433,16.107ZM3.668,20.759A1.592,1.592,0,0,0,4.04,23c.415.352.851.7,1.272,1.032.2.158.4.316.594.474l.573.465c.423.345.86.7,1.3,1.037a1.97,1.97,0,0,0,1.184.427,1.449,1.449,0,0,0,1.152-.539,1.623,1.623,0,0,0-.341-2.254c-1.185-1-2.462-2.026-3.8-3.059a1.855,1.855,0,0,0-1.129-.418A1.467,1.467,0,0,0,3.668,20.759Zm26.57-1.282c-.316,1.122-.632,2.26-.939,3.363l-.108.388,6.322-.866a11.3,11.3,0,0,0-.967-3.619ZM5.364,13.866a1.584,1.584,0,0,0,.43,2.327c1.863,1.519,3.8,3.077,5.914,4.761a2.1,2.1,0,0,0,1.294.5,1.4,1.4,0,0,0,1.138-.565,1.679,1.679,0,0,0-.491-2.351c-.662-.541-1.342-1.086-2-1.613l-.9-.72-.869-.7c-.7-.568-1.429-1.156-2.149-1.724A2.011,2.011,0,0,0,6.5,13.3,1.428,1.428,0,0,0,5.364,13.866Zm17.618-3.731c-1.761,2.179-3.323,4.119-4.774,5.933a1.521,1.521,0,0,0,.076,2.291,1.465,1.465,0,0,0,.936.361,1.753,1.753,0,0,0,1.318-.726c.474-.58.951-1.176,1.414-1.752.43-.536.876-1.092,1.319-1.634a2.011,2.011,0,0,1,1.535-.939,2.338,2.338,0,0,1,1.421.63c.49.391.985.79,1.463,1.176.449.363.91.734,1.37,1.1l3.725-.635c-.059-.074-.12-.147-.182-.22a13.559,13.559,0,0,0-1.623-1.575c-1.6-1.322-3.251-2.64-4.847-3.915l-.471-.375a2.169,2.169,0,0,0-1.3-.58A1.864,1.864,0,0,0,22.982,10.136ZM9.305,8.986a1.531,1.531,0,0,0,.45,2.162c1.292,1.065,2.625,2.128,3.914,3.158l1.1.883,1-1.408.776-1.089c-.438-.354-.876-.708-1.3-1.053C14,10.627,12.713,9.581,11.429,8.585a1.351,1.351,0,0,0-.836-.286A1.591,1.591,0,0,0,9.305,8.986Zm4.08-5.079a1.518,1.518,0,0,0,.4,2.254c1.341,1.092,2.714,2.192,4.042,3.256l.669.535a1.8,1.8,0,0,0,.188.128l1.879-2.336-.878-.71C18.374,5.972,17.015,4.874,15.674,3.8a1.885,1.885,0,0,0-1.167-.454A1.407,1.407,0,0,0,13.385,3.908Z" transform="translate(0)" fill="#fff"/>
</svg>
