<svg xmlns="http://www.w3.org/2000/svg" width="79.875" height="73.868" viewBox="0 0 79.875 73.868">
  <path id="ikona_kineziotaping" d="M17.311,73.677c-5.793-2.208-9.958-4.86-13.109-8.348A15.257,15.257,0,0,1,.145,57.176l-.018-.03c-.021-.032-.047-.073-.07-.119L0,56.919V21.156L.013,21.1c.043-.186.085-.373.126-.561.09-.4.182-.823.292-1.235A17.381,17.381,0,0,1,5.648,10.97c3.757-3.518,8.42-6.086,14.676-8.082A61.5,61.5,0,0,1,34.592.214C36.49.072,38.375,0,40.2,0a66.061,66.061,0,0,1,7.473.417A62.883,62.883,0,0,1,59.138,2.73,43.951,43.951,0,0,1,69.826,7.585a26.777,26.777,0,0,1,5.37,4.339A18.38,18.38,0,0,1,78.944,17.8a13.036,13.036,0,0,1,.914,4.834q-.005,2.236-.014,4.47c-.016,4.869-.033,9.9.028,14.854A15.912,15.912,0,0,1,74.8,53.775a33.665,33.665,0,0,1-11.953,7.469,57.486,57.486,0,0,1-13.7,3.456,70.122,70.122,0,0,1-9.271.607c-1.723,0-3.495-.062-5.264-.183-1.65-.113-3.327-.338-4.77-.541a2.376,2.376,0,0,1-1.646-.865,1.746,1.746,0,0,1-.3-1.353,1.954,1.954,0,0,1,2.14-1.595c.111,0,.225.005.341.015.76.067,1.532.146,2.277.22,1.881.191,3.827.387,5.733.433.617.015,1.236.023,1.84.023A55.953,55.953,0,0,0,62.94,57.068a26.355,26.355,0,0,0,10.172-7.135,11.505,11.505,0,0,0,2.954-7.53c.009-2.574.007-5.192,0-7.724q0-1.081,0-2.164l-.057.068a27.97,27.97,0,0,1-8.6,6.694,53.874,53.874,0,0,1-18.281,5.556,70.192,70.192,0,0,1-9.278.623,68.8,68.8,0,0,1-7.113-.37c-8.538-.89-15.66-3.06-21.773-6.635a26.158,26.158,0,0,1-7.182-5.94A13.44,13.44,0,0,0,8.214,43.885a32.5,32.5,0,0,0,10.88,6.436,3.575,3.575,0,0,1,1.82,1.064,3.609,3.609,0,0,1,.351,2.083v3.548c0,4.34,0,8.828-.009,13.243a5.181,5.181,0,0,1-.23,1.669,2.841,2.841,0,0,1-2.684,1.941A2.88,2.88,0,0,1,17.311,73.677ZM3.785,46.976c-.006,2.879-.013,5.6.019,8.348A10.244,10.244,0,0,0,5.6,60.9a21.554,21.554,0,0,0,8.138,6.966c.943.512,1.911.959,2.936,1.434l.716.332V53.776c-4.26-1.7-9.493-4.25-13.6-9.066C3.789,45.476,3.787,46.234,3.785,46.976ZM31.046,4.426A49.259,49.259,0,0,0,14.2,9.566c-4.123,2.2-6.9,4.622-8.747,7.619A9.947,9.947,0,0,0,4.04,24.769a13.132,13.132,0,0,0,4.167,6.863,31.935,31.935,0,0,0,11.856,6.812A64.132,64.132,0,0,0,39.9,41.752c.879-.071,1.772-.135,2.636-.2,1.914-.138,3.893-.28,5.825-.5a47.4,47.4,0,0,0,17.291-5.177,22.255,22.255,0,0,0,8.719-7.552A10.405,10.405,0,0,0,74.354,17.1a22.456,22.456,0,0,0-8.867-7.612C59.67,6.414,52.939,4.623,44.91,4.01c-1.642-.126-3.31-.19-4.958-.19A66.439,66.439,0,0,0,31.046,4.426Zm-17.1,61.607a1.982,1.982,0,0,1-1.911-1.954,1.978,1.978,0,0,1,1.9-1.859h.014a1.851,1.851,0,0,1,1.332.564,1.9,1.9,0,0,1,.55,1.379,1.93,1.93,0,0,1-1.874,1.87Zm10.283-2.582a1.944,1.944,0,0,1-1.871-1.875,1.84,1.84,0,0,1,.543-1.324,1.942,1.942,0,0,1,1.373-.576H24.3a1.863,1.863,0,0,1,1.846,1.866,1.89,1.89,0,0,1-.55,1.357,1.854,1.854,0,0,1-1.327.553ZM8.485,60.286a1.9,1.9,0,0,1-1.854-1.979A1.947,1.947,0,0,1,8.56,56.485a1.856,1.856,0,0,1,1.315.588,1.933,1.933,0,0,1,.526,1.4,1.866,1.866,0,0,1-1.872,1.81Zm5.677-1.4a1.865,1.865,0,0,1-1.85-1.864,1.949,1.949,0,0,1,.564-1.373,1.831,1.831,0,0,1,1.353-.554,1.947,1.947,0,0,1,1.856,1.887,1.858,1.858,0,0,1-.54,1.341,1.889,1.889,0,0,1-1.355.563Zm27.16,0a1.875,1.875,0,0,1-1.891-1.82,1.936,1.936,0,0,1,.543-1.383,1.894,1.894,0,0,1,1.336-.587h.016a1.844,1.844,0,0,1,1.32.56,1.947,1.947,0,0,1,.554,1.39,1.841,1.841,0,0,1-1.869,1.841Zm8.579-2.4a1.927,1.927,0,0,1,.511-1.4,1.866,1.866,0,0,1,1.313-.606l.064,0a1.924,1.924,0,0,1,1.879,1.913,1.873,1.873,0,0,1-1.837,1.885h-.05A1.872,1.872,0,0,1,49.9,56.484Zm-19.378,1a1.869,1.869,0,0,1-1.874-1.845,1.937,1.937,0,0,1,.556-1.378,1.86,1.86,0,0,1,1.329-.566h.018a1.908,1.908,0,0,1,1.866,1.872,1.859,1.859,0,0,1-1.882,1.916Zm15.683-2.178a1.84,1.84,0,0,1-1.878-1.822,1.933,1.933,0,0,1,.546-1.386,1.847,1.847,0,0,1,1.33-.567,1.916,1.916,0,0,1,1.361.593,1.863,1.863,0,0,1-1.353,3.182ZM62.062,54.9a1.872,1.872,0,0,1-1.872-1.855,1.946,1.946,0,0,1,.561-1.387,1.837,1.837,0,0,1,1.316-.565h.018a1.982,1.982,0,0,1,1.889,1.867,1.882,1.882,0,0,1-.544,1.351,1.919,1.919,0,0,1-1.362.59ZM32.927,52.7A1.879,1.879,0,0,1,34.7,50.761l.1,0a1.885,1.885,0,0,1,.1,3.769c-.031,0-.063,0-.094,0A1.841,1.841,0,0,1,32.927,52.7Zm23.511,1.215a1.909,1.909,0,0,1-1.368-.565,1.846,1.846,0,0,1-.538-1.327,1.938,1.938,0,0,1,1.862-1.878h.039a1.852,1.852,0,0,1,1.322.551,1.9,1.9,0,0,1,.553,1.361,1.834,1.834,0,0,1-1.844,1.859ZM5.22,52.993a1.857,1.857,0,0,1,1.4-3.2,1.864,1.864,0,0,1,1.813,1.9A1.934,1.934,0,0,1,6.59,53.584H6.558A1.914,1.914,0,0,1,5.22,52.993Zm19.346-.47a1.843,1.843,0,0,1-1.775-1.931,1.884,1.884,0,1,1,1.865,1.932Zm16.709-.776a1.887,1.887,0,0,1-1.3-3.213,1.9,1.9,0,0,1,1.391-.554,1.855,1.855,0,0,1,1.325.58,1.9,1.9,0,0,1,.5,1.4,1.848,1.848,0,0,1-1.877,1.789Zm10.473-.615a1.884,1.884,0,0,1,.033-3.767h.031a1.884,1.884,0,0,1-.035,3.767ZM30.5,50.36a1.885,1.885,0,0,1,.04-3.77h.031a1.862,1.862,0,0,1,1.846,1.865,1.889,1.889,0,0,1-.546,1.354,1.866,1.866,0,0,1-1.333.55Zm42.165-1.7a1.917,1.917,0,0,1-1.9-1.922,1.878,1.878,0,0,1,1.876-1.853h.017a1.946,1.946,0,0,1,1.382.584,1.838,1.838,0,0,1,.533,1.331,1.95,1.95,0,0,1-1.885,1.86Zm-5-.309a1.917,1.917,0,0,1-1.361-.6,1.871,1.871,0,0,1,1.484-3.169,1.838,1.838,0,0,1,1.766,1.937,1.867,1.867,0,0,1-1.873,1.832Zm-50.1-2.422a1.937,1.937,0,0,1,.554-1.379,1.855,1.855,0,0,1,1.328-.563h.016a1.909,1.909,0,0,1,1.869,1.868,1.865,1.865,0,0,1-1.8,1.915c-.027,0-.054,0-.08,0A1.868,1.868,0,0,1,17.559,45.933Zm44.483,1.814a1.86,1.86,0,0,1-1.847-1.862,1.888,1.888,0,0,1,.545-1.359,1.854,1.854,0,0,1,1.365-.548,1.912,1.912,0,0,1,1.868,1.869,1.847,1.847,0,0,1-.542,1.328,1.912,1.912,0,0,1-1.37.571ZM10.775,45.306a1.86,1.86,0,0,1,1.3-3.2h.038a1.872,1.872,0,0,1,1.9,1.783,1.94,1.94,0,0,1-1.85,2h-.042A1.919,1.919,0,0,1,10.775,45.306Zm61.782-4.09a1.9,1.9,0,0,1,.1-3.8c.04,0,.08,0,.121,0a1.9,1.9,0,0,1-.105,3.8C72.633,41.219,72.595,41.218,72.557,41.215ZM7.109,40.8A1.91,1.91,0,0,1,5.241,38.93a1.863,1.863,0,0,1,.531-1.353,1.884,1.884,0,0,1,1.356-.56h.015A1.863,1.863,0,0,1,9.01,38.863a1.912,1.912,0,0,1-.556,1.377,1.852,1.852,0,0,1-1.325.56Zm32.807-6.952h-.009c-5.728-.1-10.2-1.046-14.071-2.972a12.734,12.734,0,0,1-5.1-4.135,7.083,7.083,0,0,1-1.312-4.5,7.247,7.247,0,0,1,1.9-4.306,16.466,16.466,0,0,1,7.39-4.568,33.761,33.761,0,0,1,11-1.741c1.069,0,2.177.043,3.293.13a29.563,29.563,0,0,1,11.04,2.831,12.718,12.718,0,0,1,4.9,3.891,7.183,7.183,0,0,1,1.5,4.647,7.325,7.325,0,0,1-2,4.475,17.059,17.059,0,0,1-7.49,4.548,35.066,35.066,0,0,1-11.039,1.7ZM29.243,17.231a11.79,11.79,0,0,0-5.14,3.334,3.026,3.026,0,0,0-.063,4.2,8.957,8.957,0,0,0,1.924,1.754A21.058,21.058,0,0,0,35.4,29.694,38.268,38.268,0,0,0,40.148,30h0a31,31,0,0,0,9.331-1.4,13.426,13.426,0,0,0,5.948-3.345,3.75,3.75,0,0,0,1.207-2.628,3.368,3.368,0,0,0-1.181-2.365,14.262,14.262,0,0,0-3.512-2.431c-4.079-2.009-8.516-2.343-11.928-2.408A30.8,30.8,0,0,0,29.243,17.231Z" fill="#fff"/>
</svg>
