<svg id="ikona_prevence" xmlns="http://www.w3.org/2000/svg" xmlns:xlink="http://www.w3.org/1999/xlink" width="69.721" height="77.5" viewBox="0 0 69.721 77.5">
  <defs>
    <clipPath id="clip-path">
      <rect id="Rectangle_316" data-name="Rectangle 316" width="69.721" height="77.5" fill="#1e6eb4"/>
    </clipPath>
  </defs>
  <g id="Group_17" data-name="Group 17" clip-path="url(#clip-path)">
    <path id="Path_83" data-name="Path 83" d="M34.087,77.5c-5.891-1.41-10.919-4.506-15.575-8.211C9.538,62.145,3.483,53.1,1.057,41.772A47.961,47.961,0,0,1,0,31.642q.009-8.179,0-16.358c0-1.308.28-1.706,1.537-2.041A137.67,137.67,0,0,0,25.614,4.466c2.7-1.294,5.352-2.7,7.993-4.11a2.321,2.321,0,0,1,2.473,0A140.743,140.743,0,0,0,64.16,12.109c1.374.409,2.761.772,4.139,1.165a1.608,1.608,0,0,1,1.388,1.859c0,5.831.092,11.664-.026,17.493a45.937,45.937,0,0,1-13.541,32.2A50.4,50.4,0,0,1,40.785,75.71c-1.658.751-3.451,1.2-5.183,1.79ZM3.03,16.047v.846c0,4.368-.071,8.737.025,13.1a80.419,80.419,0,0,0,.594,8.669,40.726,40.726,0,0,0,6.577,17.208A47.843,47.843,0,0,0,23.444,69.144a39.158,39.158,0,0,0,8.8,4.637,5.453,5.453,0,0,0,3.663.481,33.642,33.642,0,0,0,3.332-1.2A48,48,0,0,0,56.566,59.776a42.016,42.016,0,0,0,9.953-25.9c.2-5.876.1-11.762.133-17.644a.908.908,0,0,0-.057-.219c-.2-.061-.387-.127-.581-.181A143.528,143.528,0,0,1,35.611,3.59a1.39,1.39,0,0,0-1.519,0A137.3,137.3,0,0,1,9.482,14.11C7.352,14.784,5.2,15.4,3.03,16.047" transform="translate(0 0)" fill="#1e6eb4"/>
    <path id="Path_84" data-name="Path 84" d="M87.063,52.292c-.082,3.128-.031,6.266-.277,9.38A37.557,37.557,0,0,1,83.507,74.41c-4.932,10.77-13.06,18.241-23.82,22.988a5.262,5.262,0,0,1-4.5-.006c-10.709-4.724-18.812-12.16-23.75-22.859A36.648,36.648,0,0,1,28.22,62.556c-.191-2.03-.277-4.076-.3-6.115-.047-3.711-.013-7.423-.013-11.134,0-1.513.255-1.787,1.663-2.274,4.777-1.652,9.607-3.177,14.289-5.067,4.219-1.7,8.279-3.8,12.386-5.776a2.431,2.431,0,0,1,2.417.011A144.717,144.717,0,0,0,85.408,43.064c1.3.383,1.577.772,1.578,2.107q0,3.56,0,7.12l.077,0m-2.933.572-.172-.01c0-2.1-.015-4.191.011-6.285.007-.524-.112-.79-.667-.956A144.967,144.967,0,0,1,58.095,35.366a1.213,1.213,0,0,0-1.26-.02A143.937,143.937,0,0,1,31.562,45.633a.767.767,0,0,0-.644.9c.025,3.584,0,7.169.018,10.753a38.385,38.385,0,0,0,2.451,13.99c4.3,10.892,12.125,18.361,22.674,23.159a3.108,3.108,0,0,0,2.731.017A43.344,43.344,0,0,0,76.857,79.938,34.924,34.924,0,0,0,83.5,63.125c.382-3.4.432-6.839.632-10.26" transform="translate(-22.6 -25.825)" fill="#1e6eb4"/>
    <path id="Path_85" data-name="Path 85" d="M126.347,306.279a3.425,3.425,0,0,1-.8-.358c-1.741-1.286-3.478-2.578-5.186-3.908a1.543,1.543,0,1,1,1.9-2.4q2.534,1.907,5.06,3.824a1.536,1.536,0,0,1-.978,2.839" transform="translate(-96.919 -242.395)" fill="#1e6eb4"/>
    <path id="Path_86" data-name="Path 86" d="M104.863,283.051a1.518,1.518,0,1,1-1.557,1.5,1.526,1.526,0,0,1,1.557-1.5" transform="translate(-83.704 -229.345)" fill="#1e6eb4"/>
  </g>
</svg>
