<svg xmlns="http://www.w3.org/2000/svg" width="64.427" height="79.696" viewBox="0 0 64.427 79.696">
  <path id="ikona_dlahovani_ruky" d="M15.325,79.7V78.528q0-1.543,0-3.085c0-3.274.006-6.661-.023-9.991a2.909,2.909,0,0,0-.453-1.495l-.519-.784c-1.967-2.963-4-6.026-5.075-9.565-.472-1.553-.96-3.131-1.434-4.657-.29-.937-.59-1.9-.883-2.857q-1.278-4.155-2.555-8.312C3.055,33.453,1.679,28.976.324,24.575a4.888,4.888,0,0,1,1.219-5.44,4.714,4.714,0,0,1,3.182-1.268,4.563,4.563,0,0,1,2.369.665A4.909,4.909,0,0,1,8.88,20.457c.936,1.779,1.842,3.61,2.719,5.381.382.77.776,1.567,1.167,2.348l.851,1.7c.876,1.75,1.782,3.561,2.677,5.34.073.145.16.284.253.43l.011-.068a2.551,2.551,0,0,0,.044-.732c-.665-4.48-1.355-9.035-2.022-13.439q-.34-2.248-.679-4.5l-.184-1.21c-.3-1.98-.609-4.028-.9-6.044a5.251,5.251,0,0,1,.936-3.741A4.875,4.875,0,0,1,16.918,3.9a5.748,5.748,0,0,1,.9-.071A4.882,4.882,0,0,1,22.71,8.046c.773,4.52,1.538,9.119,2.277,13.567q.41,2.464.82,4.927.281,1.679.558,3.36c.162.974.327,1.971.493,2.967,0-2.272.005-4.567.01-6.793.014-6.366.028-12.948-.047-19.421a7.65,7.65,0,0,1,.941-4.178A5.8,5.8,0,0,1,31.217.011L31.253,0H33.2l.05.023c.211.1.437.193.654.282a7.047,7.047,0,0,1,1.452.733,5.333,5.333,0,0,1,2.228,4.6c-.014,6.9-.012,13.91-.01,20.693q0,3.245,0,6.491c.04-.218.078-.436.114-.653.715-4.269,1.438-8.61,2.137-12.808q.544-3.262,1.087-6.522c.08-.48.159-.969.235-1.443.177-1.1.361-2.241.573-3.357a5,5,0,0,1,4.959-4.226,5.539,5.539,0,0,1,.938.081A5.088,5.088,0,0,1,51.616,9.79c-.478,3.413-.95,6.885-1.4,10.244-.241,1.781-.491,3.624-.739,5.436-.387,2.827-.784,5.7-1.168,8.48q-.228,1.648-.455,3.3a.811.811,0,0,1-.02.087.057.057,0,0,1,0,.006c.053.239.11.48.166.715a1.788,1.788,0,0,0,.447-.4c.8-1.182,1.6-2.389,2.38-3.558,1.033-1.553,2.1-3.16,3.174-4.725a5.705,5.705,0,0,1,9.314-.312,5.21,5.21,0,0,1,1.113,3.015,6.045,6.045,0,0,1-.833,3.283c-1.109,1.929-2.251,3.882-3.355,5.771L59,43.237,56.6,47.35c-3.195,5.475-6.5,11.136-9.732,16.713a2.468,2.468,0,0,0-.305,1.175c-.019,3.451-.017,6.959-.015,10.351q0,1.48,0,2.957V79.7ZM30.469,69.53q-1.27,0-2.543.006c-.134,0-.27.009-.425.019q.359.8.714,1.6c.765,1.713,1.489,3.33,2.2,4.991a.7.7,0,0,0,.784.523h.012c2.214-.014,4.43-.015,6.305-.015H42.96c.14,0,.287-.013.442-.027h0v-9.39a9.255,9.255,0,0,1-6.36,2.312l-.157,0c-1.055-.013-2.182-.02-3.545-.02C32.386,69.524,31.411,69.528,30.469,69.53Zm-6.311,1.878c-.778,1.759-1.535,3.465-2.306,5.2h5.4l-.423-.953c-.755-1.7-1.5-3.378-2.278-5.125ZM10.8,48.524c.271.739.527,1.488.777,2.214a45.785,45.785,0,0,0,2.088,5.341,42.369,42.369,0,0,0,2.754,4.56c.513.772,1.042,1.571,1.535,2.374a3.008,3.008,0,0,1,.437,1.48c.023,2.953.022,5.954.019,8.858q0,1.335,0,2.67v.538a2.261,2.261,0,0,0,.251-.4c1.38-3.089,2.729-6.115,4.058-9.169a3.173,3.173,0,0,0,.268-1.228C23,60.27,23,54.689,23,49.292q0-1.939,0-3.878v-.545A59.789,59.789,0,0,0,10.8,48.524ZM29.3,54.2l-2.829.005a2.589,2.589,0,0,0-.334.029c0,1.306.013,5.155.022,8.285.005,1.816.009,3.308.011,3.884a1.28,1.28,0,0,0,.179.017h.28c1,0,2.025,0,3.013.005s2.008.006,3.011.006c1.956,0,3.538-.012,4.981-.037a6.089,6.089,0,0,0,4.123-10.279,6.284,6.284,0,0,0-4.539-1.908c-1.251-.01-2.575-.014-4.165-.014C31.8,54.2,30.529,54.2,29.3,54.2ZM37.187,51.1a9.35,9.35,0,0,1,9.2,7.61l6.195-10.617a55.04,55.04,0,0,0-20.357-4.083,49.331,49.331,0,0,0-6.058.375V51.1h.656l6.016,0C34.532,51.094,35.912,51.1,37.187,51.1ZM4.313,21.063A1.3,1.3,0,0,0,3.206,22.2a4.082,4.082,0,0,0,.127,1.549C4.616,27.993,5.942,32.3,7.223,36.47q.5,1.638,1.007,3.274c.39,1.268.78,2.536,1.176,3.82q.3.957.594,1.928a62.74,62.74,0,0,1,10.986-3.4,54.548,54.548,0,0,1,22.3-.037,62.126,62.126,0,0,1,10.868,3.324v0c.061-.094.105-.162.145-.229l.754-1.292c1.9-3.25,3.858-6.611,5.784-9.918a4.343,4.343,0,0,0,.32-.653,2.517,2.517,0,0,0-.063-1.949,2.416,2.416,0,0,0-1.382-1.264,2.747,2.747,0,0,0-.935-.169,2.869,2.869,0,0,0-2.371,1.411c-.985,1.469-1.981,2.966-2.945,4.414-.806,1.209-1.638,2.46-2.46,3.688a7.393,7.393,0,0,1-.777,1.014,3.141,3.141,0,0,1-2.288.974,3.094,3.094,0,0,1-3.005-2.189,5.626,5.626,0,0,1-.146-2.156c.126-1.26.305-2.533.478-3.765.06-.432.121-.865.18-1.3l0-.024c.478-3.528.972-7.176,1.463-10.763.148-1.076.3-2.168.447-3.225.39-2.8.794-5.7,1.143-8.555a3.225,3.225,0,0,0-.38-1.815,1.342,1.342,0,0,0-1.271-.693,2.831,2.831,0,0,0-.707.1,1.934,1.934,0,0,0-1.419,1.689c-.654,3.892-1.309,7.851-1.942,11.679q-.363,2.192-.726,4.383-.232,1.4-.464,2.809c-.408,2.474-.829,5.032-1.258,7.545a2.891,2.891,0,0,1-2.645,2.45,2.6,2.6,0,0,1-.278.014,2.839,2.839,0,0,1-2.668-1.864,5.4,5.4,0,0,1-.247-1.75c-.011-7.1-.011-14.326-.011-21.312q0-3.274,0-6.547V6.027c0-.3,0-.6-.023-.9a2.183,2.183,0,0,0-2.024-2.013c-.054,0-.11-.005-.164-.005a2.212,2.212,0,0,0-2.27,1.733,5.108,5.108,0,0,0-.054.98c0,.069,0,.139,0,.208q0,7.59,0,15.179,0,6.341,0,12.68v.015a7.255,7.255,0,0,1-.049,1.022,2.943,2.943,0,0,1-2.882,2.666h-.052a2.976,2.976,0,0,1-2.882-2.621q-.27-1.613-.536-3.226-.149-.9-.3-1.8-.518-3.1-1.035-6.21L20.521,13.583c-.1-.6-.2-1.209-.293-1.8-.164-1.008-.333-2.051-.511-3.073a1.882,1.882,0,0,0-1.5-1.727,2.769,2.769,0,0,0-.423-.034,1.782,1.782,0,0,0-1.408.6,2.574,2.574,0,0,0-.436,2.107c.3,1.859.58,3.754.852,5.585q.169,1.139.339,2.278l.5,3.294c.475,3.148.967,6.4,1.438,9.608.042.288.086.575.13.863.2,1.326.409,2.7.493,4.056a3.12,3.12,0,0,1-2.109,3.351,3.2,3.2,0,0,1-1.032.178,3.37,3.37,0,0,1-2.971-2.135q-1.725-3.447-3.447-6.894c-1.21-2.424-2.461-4.928-3.7-7.392l-.024-.05a4.346,4.346,0,0,0-.492-.828A1.431,1.431,0,0,0,4.783,21,1.842,1.842,0,0,0,4.313,21.063Z" transform="translate(0)" fill="#fff"/>
</svg>
