<svg id="ikona_zlepseni_kvality_zivota" xmlns="http://www.w3.org/2000/svg" xmlns:xlink="http://www.w3.org/1999/xlink" width="66.545" height="72.777" viewBox="0 0 66.545 72.777">
  <defs>
    <clipPath id="clip-path">
      <rect id="Rectangle_322" data-name="Rectangle 322" width="66.545" height="72.777" fill="#1e6eb4"/>
    </clipPath>
  </defs>
  <g id="Group_24" data-name="Group 24" clip-path="url(#clip-path)">
    <path id="Path_113" data-name="Path 113" d="M13.09,0c.4.118.807.227,1.206.357a7.835,7.835,0,0,1,5.35,7.294,8.483,8.483,0,0,1-2.353,6.677c.662.383,1.309.7,1.9,1.108a10.266,10.266,0,0,1,4.687,8.7c.069,3.317.034,6.637.008,9.955a6.166,6.166,0,0,1-4.271,5.921c-.5.165-.565.428-.564.876.01,9.15.01,15.093.005,24.243A4.245,4.245,0,0,1,15.74,69.5a3.965,3.965,0,0,1-3.315-.61.673.673,0,0,0-.922-.038,4,4,0,0,1-4.363.276A4.01,4.01,0,0,1,4.848,65.4c-.022-4.764-.012-9.529-.008-14.294a1.479,1.479,0,0,1,1.4-1.642A1.49,1.49,0,0,1,7.681,51.14q.007,6.72,0,13.44c0,.19-.006.38,0,.569a1.5,1.5,0,0,0,1.378,1.607,1.5,1.5,0,0,0,1.453-1.534c.017-.212,0-.426,0-.64q0-9.28,0-18.561c0-.261-.009-.523.015-.782a1.409,1.409,0,0,1,2.79-.159,4.421,4.421,0,0,1,.042.85q0,9.423,0,18.845c0,1.272.524,2,1.43,1.979s1.405-.727,1.405-2.012c0-9.624,0-16.042,0-25.666v-.763H7.683c0,1.6.008,3.209,0,4.812a1.4,1.4,0,0,1-1.173,1.537,1.378,1.378,0,0,1-1.66-1.391c-.027-.853-.023-1.707,0-2.56a.573.573,0,0,0-.468-.653,6.193,6.193,0,0,1-4.37-6.205c0-3.105-.011-6.211,0-9.316a10.381,10.381,0,0,1,6.121-9.913c.142-.071.277-.155.467-.263A7.812,7.812,0,0,1,4.352,9.975C3.741,5.43,5.4,1.924,9.54.383,9.955.228,10.389.126,10.814,0ZM4.837,37.156c0-.373,0-.628,0-.884,0-2.3-.009-4.6.006-6.9a1.389,1.389,0,0,1,1.644-1.49,1.427,1.427,0,0,1,1.193,1.6c.008,1.938,0,3.876,0,5.844h8.525c0-2-.009-3.936,0-5.876a1.39,1.39,0,0,1,1.43-1.577,1.418,1.418,0,0,1,1.415,1.6c.012,1.73,0,3.46,0,5.19,0,.795,0,1.589,0,2.416a3.29,3.29,0,0,0,1.972-3.158c.016-3.223.042-6.447,0-9.669a7.492,7.492,0,0,0-5.938-7.508,21.764,21.764,0,0,0-4.521-.242,7.607,7.607,0,0,0-7.687,7.369c-.105,3.409-.055,6.825-.016,10.237a3.333,3.333,0,0,0,1.971,3.042M7.116,8.237c0,.166-.005.332,0,.5a4.813,4.813,0,0,0,7.357,4.145c1.894-1.168,2.4-3.011,2.3-5.093A4.836,4.836,0,0,0,10.331,3.15C8.3,3.834,7.115,5.7,7.116,8.237" transform="translate(0)" fill="#1e6eb4"/>
    <path id="Path_114" data-name="Path 114" d="M244.477,40.848c-.057.4-.084.777-.168,1.141a1.322,1.322,0,0,1-1.381,1.079A1.345,1.345,0,0,1,241.6,42a2.661,2.661,0,0,1-.1-.628c-.006-4.125-.012-8.249,0-12.373,0-1.091.581-1.74,1.464-1.726a1.3,1.3,0,0,1,1.32.984,3.719,3.719,0,0,1,.12,1.051c.009,2.56,0,5.12,0,7.68v.779a3.346,3.346,0,0,0,2.722-3.014c.071-2.841.141-5.694-.039-8.526a6.4,6.4,0,0,0-5.788-5.634c-3.141-.127-6.3-.116-9.438.014a6.333,6.333,0,0,0-5.457,5.325c-.229,2.9-.193,5.822-.138,8.733a3.488,3.488,0,0,0,2.683,3.124c.013-.261.035-.508.035-.754q0-3.7,0-7.4c0-.166,0-.332,0-.5.016-1.213.537-1.877,1.466-1.87s1.445.685,1.446,1.893c0,7.68,0,13.579,0,21.259v.913h9.531c.049-.388.073-.784.153-1.169A1.417,1.417,0,0,1,242.922,49a1.34,1.34,0,0,1,1.383,1.168,19.25,19.25,0,0,1,0,2.964,1.242,1.242,0,0,1-.543.849.942.942,0,0,0-.49.971q.019,6.08.006,12.16a4.061,4.061,0,0,1-2.368,4.033,3.911,3.911,0,0,1-4.2-.525,4.038,4.038,0,0,1-5.729-.661,4.569,4.569,0,0,1-.853-2.938q0-6.044,0-12.089a.851.851,0,0,0-.463-.911C229.031,53.675,229,53,229,52.34V41.113a24.122,24.122,0,0,1-3.282-1.864,6.324,6.324,0,0,1-2.355-5.182c0-2.441-.017-4.883.043-7.323a9.356,9.356,0,0,1,2.84-6.394,1.781,1.781,0,0,0,.466-1.089c.062-2.748-.008-5.5.112-8.245a9.93,9.93,0,0,1,19.669-.895,14.116,14.116,0,0,1,.193,2.262c.024,2.323,0,4.646.024,6.969a1.321,1.321,0,0,0,.336.859,9.342,9.342,0,0,1,3.03,6.679c.068,2.7.055,5.4-.09,8.1a6.459,6.459,0,0,1-4.842,5.668c-.225.057-.446.131-.662.2m-3-23.256,2.242.543c0-2.436.186-4.865-.044-7.254a7.052,7.052,0,0,0-7.313-6.071,7.142,7.142,0,0,0-6.724,6.955c-.028,1.941-.009,3.884-.007,5.825,0,.179.028.358.045.559l2.242-.552a7.853,7.853,0,0,1-.609-4.431,3.116,3.116,0,0,1,3.124-3.14,30.837,30.837,0,0,1,4.539,0,3.222,3.222,0,0,1,3.156,3.356,7.888,7.888,0,0,1-.653,4.208m-8.437,36.744v.818q0,4.543,0,9.087c0,1.112-.006,2.224.014,3.336a.982.982,0,0,0,.825,1.01,1.015,1.015,0,0,0,1.241-.573,1.852,1.852,0,0,0,.118-.758q.01-6.212,0-12.423a3.9,3.9,0,0,0-.066-.5Zm5.121,0v.815q0,5.927,0,11.853a5.86,5.86,0,0,0,.016.638,1.043,1.043,0,0,0,1.1.972c.707-.008,1.079-.457,1.081-1.357q.009-6.211,0-12.421a4.176,4.176,0,0,0-.061-.5Zm-1.4-41.455c-.661,0-1.322.007-1.983,0-.413-.006-.611.172-.6.593.01.519-.007,1.039.006,1.558a2.514,2.514,0,1,0,5.027.06c.019-.5-.013-.992.015-1.487.032-.563-.224-.756-.762-.729-.565.029-1.133.006-1.7.008" transform="translate(-183.566 -1.6)" fill="#1e6eb4"/>
    <path id="Path_115" data-name="Path 115" d="M127.213,208.212a4.145,4.145,0,0,1-8.288-.153c-.032-3.507-.017-7.014,0-10.52,0-.532-.1-.762-.692-.883a5.167,5.167,0,0,1-4-4.835,27.38,27.38,0,0,1,.264-5.51,7.785,7.785,0,0,1,5.487-5.975c.155-.054.306-.122.524-.21a6.5,6.5,0,0,1,9.4-8.846c2.563,2.086,2.942,5,1.133,8.879a8.7,8.7,0,0,1,4.118,2.492,8.242,8.242,0,0,1,2.2,5.617,22.018,22.018,0,0,1-.269,4.654,4.8,4.8,0,0,1-3.915,3.76c-.453.108-.555.3-.554.72,0,2.345.006,4.691-.039,7.035a4.092,4.092,0,0,1-4.933,3.8,2.816,2.816,0,0,0-.435-.029m-8.3-14.373c0-1.681,0-3.268,0-4.855,0-1.331.5-2.044,1.442-2.045s1.425.7,1.425,2.046q0,9.242,0,18.484a4.266,4.266,0,0,0,.105,1.053,1.1,1.1,0,0,0,1.078.865c.837.051,1.349-.479,1.351-1.442.007-3.436,0-6.872,0-10.308a4.443,4.443,0,0,1,.036-.779,1.473,1.473,0,0,1,1.476-1.272,1.411,1.411,0,0,1,1.337,1.4c.043.78.025,1.563.027,2.345,0,1.564-.021,3.128.013,4.692.02.924.556,1.443,1.334,1.407.752-.035,1.175-.553,1.184-1.472.007-.734,0-1.469,0-2.2q0-6.469,0-12.939a1.67,1.67,0,0,1,.862-1.728,1.4,1.4,0,0,1,2.008,1.352c.056,1.4.019,2.8.022,4.194,0,.39,0,.78,0,1.252a2.481,2.481,0,0,0,1.835-2.345c.025-1.254.021-2.512-.042-3.765a5.2,5.2,0,0,0-4.563-4.864,64.438,64.438,0,0,0-7.523-.1,5.107,5.107,0,0,0-5.046,4.118,21.264,21.264,0,0,0-.164,4.949,2.173,2.173,0,0,0,1.793,1.96m6.809-21.194a3.575,3.575,0,0,0-3.582,3.623,3.639,3.639,0,0,0,3.6,3.634,3.691,3.691,0,0,0,3.645-3.619,3.634,3.634,0,0,0-3.665-3.638" transform="translate(-93.873 -139.525)" fill="#1e6eb4"/>
    <path id="Path_116" data-name="Path 116" d="M30.022,257.943a1.417,1.417,0,1,1-2.834-.044,1.417,1.417,0,1,1,2.834.044" transform="translate(-22.344 -210.799)" fill="#1e6eb4"/>
    <path id="Path_117" data-name="Path 117" d="M326.822,245.95a1.457,1.457,0,0,1-1.419-1.391,1.426,1.426,0,0,1,1.422-1.446,1.446,1.446,0,0,1,1.426,1.379,1.469,1.469,0,0,1-1.43,1.458" transform="translate(-267.433 -199.804)" fill="#1e6eb4"/>
  </g>
</svg>
