<svg id="ikona_osoby_s_omezenou_mobilitou" xmlns="http://www.w3.org/2000/svg" xmlns:xlink="http://www.w3.org/1999/xlink" width="68.774" height="75.259" viewBox="0 0 68.774 75.259">
  <defs>
    <clipPath id="clip-path">
      <rect id="Rectangle_352" data-name="Rectangle 352" width="68.774" height="75.259" fill="#fff"/>
    </clipPath>
  </defs>
  <g id="Group_50" data-name="Group 50" clip-path="url(#clip-path)">
    <path id="Path_198" data-name="Path 198" d="M55.674,75.258a40,40,0,0,1-4.205-.9c-8.322-2.712-13.548-8.349-15.151-16.961-1.412-7.586.9-14.15,6.38-19.6a1.577,1.577,0,0,0,.417-1.01c.025-5.954.012-11.907.03-17.861a.9.9,0,0,0-.591-.95c-1.411-.675-2.8-1.4-4.2-2.093a1.512,1.512,0,0,1-.99-1.559,1.408,1.408,0,0,1,2.019-1.157c2.015.944,3.995,1.962,5.973,2.982.653.337.717,1,.717,1.66q0,3.675,0,7.35v.825h2.855a9.128,9.128,0,0,1,3.746-8.538,9.392,9.392,0,0,1-4.429-8.812,9.211,9.211,0,0,1,3.518-6.61,9.424,9.424,0,1,1,10.8,15.408,7.816,7.816,0,0,1,3.006,3.777c.472,1.517.675,3.117,1.023,4.815H77.161c.172,0,.343-.006.515,0a1.538,1.538,0,0,1,1.656,1.5c-.016.863-.672,1.418-1.705,1.422-1.807.006-3.615,0-5.475,0-.012.251-.028.44-.028.628,0,2.425-.016,4.851.016,7.276a1.758,1.758,0,0,0,.386.95,6.262,6.262,0,0,0,2.649,1.872c3.856,1.671,7.681,3.414,11.533,5.092a1.934,1.934,0,0,1,1.323,2.023c-.04,3.871-.016,7.742-.016,11.613v.964c1.079,0,2.124-.056,3.161.011a4.213,4.213,0,0,1,4.053,4.208c.021.483,0,.968,0,1.533.521,0,.955-.015,1.388,0a1.491,1.491,0,0,1,1.527,1.464,1.462,1.462,0,0,1-1.472,1.445c-3.43.024-6.87.168-10.286-.054a42.428,42.428,0,0,1-6.228-1.311c-1.288-.284-2.583-.537-3.859-.868a.809.809,0,0,0-1.033.361A20.6,20.6,0,0,1,65.3,73.826a48.966,48.966,0,0,1-5.245,1.288c-.187.045-.373.1-.56.144ZM38.814,53.546A18.8,18.8,0,1,0,57.6,34.774,18.806,18.806,0,0,0,38.814,53.546M64.079,9.4a6.486,6.486,0,0,0-6.495-6.475,6.557,6.557,0,0,0-6.467,6.459,6.532,6.532,0,0,0,6.488,6.5A6.454,6.454,0,0,0,64.079,9.4M77.152,62.987l7.861,1.734a1.777,1.777,0,0,0,.065-.263c0-5.585.012-11.17-.013-16.755a.938.938,0,0,0-.5-.653c-2.109-.967-4.235-1.9-6.358-2.836-.369-.163-.741-.32-1.277-.55a21.623,21.623,0,0,1,.218,19.323M51.882,25.981H63.318c.274-2.524-.323-4.687-2.483-6.13a5.459,5.459,0,0,0-6.22-.136c-2.313,1.409-2.961,3.631-2.732,6.266m11.43,6.6V28.99H51.845v3.6a22.451,22.451,0,0,1,11.467-.013m5.824,2.53V28.989h-2.82c0,1.475-.006,2.911.01,4.347a.553.553,0,0,0,.217.415c.846.465,1.708.9,2.593,1.36M46.112,35.1c.9-.464,1.72-.88,2.531-1.322a.547.547,0,0,0,.259-.384c.018-1.461.011-2.923.011-4.409h-2.8ZM88.051,65.063h4.242c0-.542.035-1.033-.008-1.518a1.209,1.209,0,0,0-1.145-1.219c-1.014-.066-2.036-.017-3.089-.017Z" transform="translate(-29.373 0)" fill="#fff"/>
    <path id="Path_199" data-name="Path 199" d="M11.082,211.577,8.515,210.7a27.075,27.075,0,0,1,3.816-7.4l2.218,1.6-3.467,6.677" transform="translate(-6.965 -166.282)" fill="#fff"/>
    <path id="Path_200" data-name="Path 200" d="M.788,258.074l2.675.648-.682,7.287-2.737.181a28.27,28.27,0,0,1,.745-8.116" transform="translate(0 -211.084)" fill="#fff"/>
    <path id="Path_201" data-name="Path 201" d="M67.7,222.554a15.925,15.925,0,1,1,15.876,15.954A15.908,15.908,0,0,1,67.7,222.554m2.928.007a13,13,0,1,0,13.037-12.983,13.019,13.019,0,0,0-13.037,12.983" transform="translate(-55.376 -169.022)" fill="#fff"/>
  </g>
</svg>
