<svg id="ikona_techniky_pro_trenink_kongitivnich_funkci" xmlns="http://www.w3.org/2000/svg" xmlns:xlink="http://www.w3.org/1999/xlink" width="78.842" height="78.786" viewBox="0 0 78.842 78.786">
  <defs>
    <clipPath id="clip-path">
      <rect id="Rectangle_345" data-name="Rectangle 345" width="78.842" height="78.786" fill="#fff"/>
    </clipPath>
  </defs>
  <g id="Group_36" data-name="Group 36" clip-path="url(#clip-path)">
    <path id="Path_161" data-name="Path 161" d="M78.842,42.178c-.151,1.083-.285,2.168-.456,3.248A38.773,38.773,0,0,1,65.076,69.334,36.806,36.806,0,0,1,46.9,78.1C32.1,80.6,19.556,76.282,9.53,65.064A37.1,37.1,0,0,1,.7,46.834a39.42,39.42,0,0,1,27.4-45.2,35.521,35.521,0,0,1,8.057-1.5,2.456,2.456,0,0,0,.5-.14H42.2c.906.116,1.814.219,2.717.351a39.51,39.51,0,0,1,33.47,33.04c.17,1.078.3,2.163.455,3.244ZM39.4,75.734A36.322,36.322,0,1,0,3.117,39.34,36.358,36.358,0,0,0,39.4,75.734" transform="translate(0 -0.001)" fill="#fff"/>
    <path id="Path_162" data-name="Path 162" d="M92.515,113.189a5.538,5.538,0,0,1-5.471-3.5.849.849,0,0,0-.632-.368c-.87-.042-1.744-.017-2.616-.018-1.528,0-1.948-.34-2.285-1.8-.287-1.245-.571-2.492-.9-3.725a1.3,1.3,0,0,0-.542-.615c-.226-.154-.554-.161-.775-.319-1.2-.861-2.238-.509-3.3.321a21.09,21.09,0,0,1-2.34,1.471,1.548,1.548,0,0,1-2.16-.247q-2.364-2.315-4.681-4.678a1.589,1.589,0,0,1-.239-2.227c.713-1.185,1.477-2.34,2.166-3.539a1.547,1.547,0,0,0,.054-.954c-.051-.293-.309-.552-.351-.843-.2-1.371-1.159-1.738-2.338-1.928-.932-.15-1.848-.4-2.767-.624a1.6,1.6,0,0,1-1.446-1.717q-.055-3.346,0-6.694a1.6,1.6,0,0,1,1.459-1.706c1.317-.316,2.644-.594,3.952-.947a1.586,1.586,0,0,0,.74-.622c.174-.239.174-.6.344-.846a2.2,2.2,0,0,0-.229-2.945,21.955,21.955,0,0,1-1.59-2.537,1.6,1.6,0,0,1,.255-2.225q2.292-2.333,4.625-4.625a1.576,1.576,0,0,1,2.281-.238c1.075.648,2.153,1.294,3.2,1.992a1.223,1.223,0,0,0,1.536.106,1.749,1.749,0,0,1,.7-.313c1.186-.169,1.588-.951,1.754-2.024.149-.957.411-1.9.632-2.843a1.763,1.763,0,0,1,2.041-1.638c.975-.006,1.951.021,2.924-.019a.861.861,0,0,0,.641-.363c1.233-2.575,3.456-3.518,6.095-3.479a9.63,9.63,0,0,1,8.725,5.073,1.209,1.209,0,0,0,1.212.59,9.947,9.947,0,0,1,8.846,13.383.779.779,0,0,0,.33,1.115,10.252,10.252,0,0,1,.437,16.642.8.8,0,0,0-.3,1.137,10.422,10.422,0,0,1-8.038,14.075,1.277,1.277,0,0,1-.3.037c-1.579-.151-2.5.679-3.457,1.873-1.952,2.425-4.709,3.329-8.174,3.353m16.5-39.124a6.083,6.083,0,0,0,.405-3.994,6.761,6.761,0,0,0-7.071-5.374,2.612,2.612,0,0,1-2.889-1.764,6.506,6.506,0,0,0-6.433-3.913c-1.907.028-3.286.81-3.264,3.257.07,7.54.025,15.081.025,22.622q0,11.2,0,22.391c0,1.541.658,2.473,2.059,2.706a7.116,7.116,0,0,0,7.2-3.071,1.454,1.454,0,0,0-.469-2.27A4.141,4.141,0,0,0,97.1,104.1a1.657,1.657,0,0,1-1.548-1.6,1.564,1.564,0,0,1,1.73-1.478,5.228,5.228,0,0,1,4.833,3.223c.312.694.656.869,1.314.7.173-.044.354-.057.531-.084a7.326,7.326,0,0,0,5.163-10.867,1.676,1.676,0,0,0-1.9-.779,1.9,1.9,0,0,0-.838,3.153,1.481,1.481,0,0,1-.171,2.243,1.562,1.562,0,0,1-2.289-.385,5,5,0,0,1-.283-6.118,4.906,4.906,0,0,1,6.021-1.642.983.983,0,0,0,1.161-.127,7.209,7.209,0,0,0-.038-11.569,28.248,28.248,0,0,0-2.744-1.677,1.765,1.765,0,0,0-1.893.083,1.581,1.581,0,0,0-.768,1.715,4.193,4.193,0,0,0,.591,1.294,1.549,1.549,0,0,1-2.452,1.891,4.961,4.961,0,0,1,.375-7.084,5.015,5.015,0,0,1,5.125-.924M86.59,97.533a12.813,12.813,0,0,1-8.959-3.659,12.647,12.647,0,0,1-3.962-8.808,12.41,12.41,0,0,1,2.374-8.017,12.877,12.877,0,0,1,10.521-5.517V62.9c-.547,0-1.033.027-1.515-.007-.5-.035-.712.141-.809.659-.216,1.154-.534,2.289-.785,3.438A2.02,2.02,0,0,1,82,68.6a26.1,26.1,0,0,0-3.183,1.316,2.258,2.258,0,0,1-2.51-.147c-1.093-.742-2.243-1.4-3.284-2.043l-3.2,3.2c.718,1.158,1.463,2.379,2.228,3.588a1.825,1.825,0,0,1,.107,1.885c-.54,1.183-1.035,2.389-1.5,3.605a1.926,1.926,0,0,1-1.532,1.326c-1.367.287-2.719.643-4.059.965v4.493c1.367.327,2.677.681,4,.942a2.061,2.061,0,0,1,1.651,1.505,34.2,34.2,0,0,0,1.349,3.25,2.055,2.055,0,0,1-.11,2.231c-.758,1.15-1.461,2.337-2.221,3.561.938.928,1.869,1.807,2.747,2.735.346.366.593.337.974.087,1.007-.659,2.046-1.269,3.058-1.92a1.978,1.978,0,0,1,2.033-.136c1.188.532,2.394,1.027,3.608,1.5a1.783,1.783,0,0,1,1.225,1.346q.416,1.87.9,3.726c.053.206.249.514.4.529.623.061,1.256.025,1.9.025Zm-.016-3.183V74.729a9.811,9.811,0,0,0,0,19.622" transform="translate(-49.934 -45.131)" fill="#fff"/>
    <path id="Path_163" data-name="Path 163" d="M65.626,102.378c-10.146-.23-18.335-3.786-24.929-10.919a32,32,0,0,1-8.349-17.383,32.36,32.36,0,0,1,4.217-21.8A33.092,33.092,0,0,1,54.514,37.615c.842-.3,1.71-.525,2.572-.763a1.579,1.579,0,0,1,2.108.989,1.62,1.62,0,0,1-1.227,1.99,66.536,66.536,0,0,0-6.5,2.486A29.925,29.925,0,0,0,35.121,70.235,30.13,30.13,0,0,0,76.653,96.946,29.506,29.506,0,0,0,88.8,87.808a28.575,28.575,0,0,0,5.826-12.3c.417-2.1.541-4.257.757-6.393a1.591,1.591,0,0,1,1.035-1.475,1.3,1.3,0,0,1,1.6.4,2.408,2.408,0,0,1,.437,1.333,30.451,30.451,0,0,1-2.427,12.186c-4.647,10.768-12.723,17.464-24.146,20.12a15.478,15.478,0,0,1-1.968.324c-1.579.157-3.162.277-4.291.373" transform="translate(-25.798 -29.677)" fill="#fff"/>
    <path id="Path_164" data-name="Path 164" d="M195.754,35.076a1.534,1.534,0,1,1,1.489-1.519,1.5,1.5,0,0,1-1.489,1.519" transform="translate(-156.738 -25.838)" fill="#fff"/>
    <path id="Path_165" data-name="Path 165" d="M223.505,111.589a5.287,5.287,0,0,1,3.762,1.485,1.532,1.532,0,1,1-1.937,2.373,2.617,2.617,0,0,0-2.624-.621,2.372,2.372,0,0,0-1.153,3.648,4.242,4.242,0,0,1,.6.969,1.476,1.476,0,0,1-.713,1.767,1.539,1.539,0,0,1-1.945-.358,5.486,5.486,0,0,1,1.113-8.434,16.965,16.965,0,0,1,2.835-1.033Z" transform="translate(-175.975 -89.914)" fill="#fff"/>
    <path id="Path_166" data-name="Path 166" d="M217.968,206.51a5.51,5.51,0,0,1,9.041-4.215,1.57,1.57,0,0,1,.478,2.337,1.588,1.588,0,0,1-2.375.117,2.372,2.372,0,0,0-3.274.006,2.347,2.347,0,0,0-.311,3.136,3.716,3.716,0,0,1,.593.973,1.418,1.418,0,0,1-.643,1.726,1.46,1.46,0,0,1-1.952-.261,5.335,5.335,0,0,1-1.557-3.818" transform="translate(-175.949 -162.229)" fill="#fff"/>
  </g>
</svg>
