<svg id="ikona_pacienti_s_neurologickymi" xmlns="http://www.w3.org/2000/svg" xmlns:xlink="http://www.w3.org/1999/xlink" width="92.139" height="91.982" viewBox="0 0 92.139 91.982">
  <defs>
    <clipPath id="clip-path">
      <rect id="Rectangle_347" data-name="Rectangle 347" width="92.139" height="91.982" fill="#fff"/>
    </clipPath>
  </defs>
  <g id="Group_40" data-name="Group 40" clip-path="url(#clip-path)">
    <path id="Path_174" data-name="Path 174" d="M325.011,29a13.323,13.323,0,0,1-1.971,4.562,9.632,9.632,0,0,1-3.8,3.072,1.063,1.063,0,0,0-.74,1.12,6.8,6.8,0,0,1-6.593,6.543,5.741,5.741,0,0,1-3.608-1.416,2.761,2.761,0,0,0-2.065-.659,9.773,9.773,0,0,1-1.618,0,7.061,7.061,0,0,0-4.777,1.244c-2.706,1.828-6.592.545-8.241-2.586a11.535,11.535,0,0,1-.942-3.225,1.278,1.278,0,0,0-.809-1.113,9.817,9.817,0,0,1-4.37-13.956,1.159,1.159,0,0,0-.009-1.372,9.791,9.791,0,0,1,4.416-13.935,1.058,1.058,0,0,0,.749-1.051C290.761,2.383,294.231-.6,298.781.1A9.525,9.525,0,0,1,304.2,3.158c.412-.477.758-.954,1.179-1.351A9.751,9.751,0,0,1,316.131,1.5a6.525,6.525,0,0,1,2.413,4.739,1.2,1.2,0,0,0,.51.874,9.88,9.88,0,0,1,5.782,7.2,1.042,1.042,0,0,0,.175.285V17.66c-.541,1.343-1.088,2.684-1.615,4.032a.735.735,0,0,0,.018.492c.523,1.315,1.062,2.624,1.6,3.934ZM314.686,7.375a2.633,2.633,0,0,0-1.093-3.247,5.361,5.361,0,0,0-6.451,1.412A2.9,2.9,0,0,1,303.1,6.694a9.176,9.176,0,0,1-2.056-1.563,5.418,5.418,0,0,0-3.651-1.5,3,3,0,0,0-3.167,2.675c-.041.562.067.939.707.983.715.05,1.428.116,2.142.168,1.291.095,2.029.751,2.034,1.816a1.755,1.755,0,0,1-2.021,1.795c-1.36-.059-2.707-.389-4.066-.55a3.328,3.328,0,0,0-1.6.049,6.2,6.2,0,0,0-3.473,7.368c.455,1.7.677,1.8,2.4,1.477a7.911,7.911,0,0,1,7.122,1.791c1.161,1.039.96,2.77-.46,3.142a2.362,2.362,0,0,1-1.8-.4,5.326,5.326,0,0,0-5.347-.7,2,2,0,0,0-.9.654,6.243,6.243,0,0,0,2.529,9.43,2.032,2.032,0,0,0,1.779.024,9.312,9.312,0,0,1,2.823-.838,9.594,9.594,0,0,1,3.167.264,1.647,1.647,0,0,1,1.1,2.215,1.848,1.848,0,0,1-2.148,1.178,6.17,6.17,0,0,0-2.109.046c-.652.15-1.6.419-1.787.889a2.5,2.5,0,0,0,.814,2.519,4.225,4.225,0,0,0,1.148.838,1.683,1.683,0,0,0,1.864-.142c1.357-.971,2.656-2.089,4.579-1.721v-1.14q0-3.688,0-7.376a4.836,4.836,0,0,1,.064-.893,1.831,1.831,0,0,1,1.84-1.625,1.771,1.771,0,0,1,1.7,1.854c.036,2.668.018,5.336.022,8,0,.351,0,.7,0,1.189,1.865-.363,3.148.605,4.415,1.578a2.066,2.066,0,0,0,2.507.094,3.144,3.144,0,0,0,1.615-2.733,1.02,1.02,0,0,0-.481-.795,5.5,5.5,0,0,0-3.811-.6,1.665,1.665,0,0,1-2.042-1.178,1.724,1.724,0,0,1,.944-2.169,5.236,5.236,0,0,1,1.553-.393,10.391,10.391,0,0,1,4.786.978,2.157,2.157,0,0,0,1.266.169,6.285,6.285,0,0,0,3.028-9.692,2,2,0,0,0-.924-.633,5.292,5.292,0,0,0-5.4.815,1.684,1.684,0,0,1-2.49-.194,1.806,1.806,0,0,1,.242-2.568,8.2,8.2,0,0,1,1.362-1.019,8.408,8.408,0,0,1,6.515-.722c.513.127.913.233,1.252-.4a6.291,6.291,0,0,0-2.827-8.556,2.213,2.213,0,0,0-1.087-.061c-1.447.158-2.888.456-4.337.492a1.627,1.627,0,0,1-1.686-1.725,1.675,1.675,0,0,1,1.642-1.779c.739-.1,1.49-.1,2.293-.153" transform="translate(-232.872 0)" fill="#fff"/>
    <path id="Path_175" data-name="Path 175" d="M21.057,295.662c-1.627-.359-3.27-.66-4.879-1.09-1.992-.532-2.322-1.287-1.577-3.243a2.845,2.845,0,0,0-1.18-3.515,2.815,2.815,0,0,0-3.662.57c-1.313,1.489-2.158,1.5-3.552.062a23.46,23.46,0,0,1-6.14-11.581c-.288-1.333.364-2.2,1.8-2.435a2.887,2.887,0,0,0,.3-5.708c-1.83-.454-2.224-1.177-1.712-2.993a23.456,23.456,0,0,1,6.705-10.966,1.906,1.906,0,0,1,3.152.16,2.864,2.864,0,0,0,3.753.849,2.829,2.829,0,0,0,1.248-3.636c-.476-1.51-.04-2.332,1.5-2.762a23.277,23.277,0,0,1,13.443.211,1.823,1.823,0,0,1,1.249,2.724,2.865,2.865,0,0,0,.956,3.783c1.468.9,2.758.643,3.944-.772a1.911,1.911,0,0,1,3.208-.156,23.487,23.487,0,0,1,6.557,11.65c.388,1.661-.291,2.6-1.993,2.741a2.732,2.732,0,0,0-2.663,2.635,2.774,2.774,0,0,0,2.327,3.04c.176.036.354.063.532.084a1.776,1.776,0,0,1,1.7,2.369,22.824,22.824,0,0,1-5.05,9.794c-.609.7-1.27,1.357-1.944,1.994-1.288,1.217-2.3,1.111-3.354-.311a2.875,2.875,0,0,0-5.093,2.617c.721,1.891.3,2.7-1.685,3.158-1.185.273-2.383.487-3.575.728Zm20.971-17.125a6.6,6.6,0,0,1,.2-12.344,19.174,19.174,0,0,0-4.14-7.332c-.305.188-.555.353-.814.5a6.471,6.471,0,0,1-9.429-3.733,22.38,22.38,0,0,1-.33-2.475c-.039-.231-.242-.585-.421-.62a18.46,18.46,0,0,0-7.872.035,6.543,6.543,0,0,1-3.406,6.378,6.375,6.375,0,0,1-7.173-.509,19.426,19.426,0,0,0-4.3,7.106,6.666,6.666,0,0,1-.285,12.148,19,19,0,0,0,3.964,7.322,6.41,6.41,0,0,1,7.317-.269c2.483,1.51,3.349,3.855,3.054,6.693a19.229,19.229,0,0,0,8.417.206c-.2-2.968.837-5.264,3.432-6.663s5.075-.971,7.406.8a19.366,19.366,0,0,0,4.382-7.244" transform="translate(0 -203.68)" fill="#fff"/>
    <path id="Path_176" data-name="Path 176" d="M55.822,89.327c.824-.534,1.463-.973,2.127-1.371a1.819,1.819,0,1,1,1.984,3.031c-1.691,1.135-3.407,2.233-5.116,3.342a1.8,1.8,0,0,1-2.107.008Q50.147,92.675,47.59,91a1.656,1.656,0,0,1-.882-1.971A2.462,2.462,0,0,1,47.964,87.7a2.4,2.4,0,0,1,1.656.324,28.563,28.563,0,0,1,2.453,1.549c.312-1.561.577-3.021.9-4.468A18.591,18.591,0,0,1,68.611,70.259a31.6,31.6,0,0,1,13.082.72,1.831,1.831,0,1,1-.858,3.525,30.224,30.224,0,0,0-8.718-.941,16.9,16.9,0,0,0-10.352,3.51,16.285,16.285,0,0,0-5.357,9.222c-.224.925-.363,1.871-.585,3.032" transform="translate(-38.21 -57.278)" fill="#fff"/>
    <path id="Path_177" data-name="Path 177" d="M344.167,286.671c-.5.458-1,.923-1.507,1.373a1.841,1.841,0,1,1-2.466-2.674c1.42-1.335,2.865-2.643,4.3-3.967a1.942,1.942,0,0,1,2.31-.383c1.773.8,3.57,1.54,5.344,2.332a1.854,1.854,0,0,1,1.224,2.514c-.428,1-1.448,1.32-2.673.818-.85-.349-1.69-.721-2.748-1.173,0,1.624.1,3.091-.016,4.54-.788,9.6-5.99,15.689-15.379,18.029a25.4,25.4,0,0,1-3.263.577,1.742,1.742,0,0,1-2.1-1.474c-.133-1.116.521-1.83,1.709-2.129a43.113,43.113,0,0,0,6.526-1.849c5.174-2.222,7.9-6.4,8.694-11.885.217-1.5.232-3.03.34-4.546l-.294-.1" transform="translate(-268.183 -230.17)" fill="#fff"/>
    <path id="Path_178" data-name="Path 178" d="M290.392,418.494a1.914,1.914,0,0,1,1.847,1.822,1.834,1.834,0,0,1-1.795,1.85,1.961,1.961,0,0,1-1.861-1.826,1.879,1.879,0,0,1,1.809-1.846" transform="translate(-236.549 -343.036)" fill="#fff"/>
    <path id="Path_179" data-name="Path 179" d="M391.081,117.472a1.761,1.761,0,0,1-1.79,1.734,1.927,1.927,0,0,1-1.812-1.954,1.8,1.8,0,0,1,3.6.22" transform="translate(-317.61 -94.752)" fill="#fff"/>
    <path id="Path_180" data-name="Path 180" d="M77.728,314.181A11.4,11.4,0,1,1,66.26,325.555a11.377,11.377,0,0,1,11.468-11.374m-.067,3.62a7.773,7.773,0,1,0,7.8,7.631,7.741,7.741,0,0,0-7.8-7.631" transform="translate(-54.313 -257.532)" fill="#fff"/>
  </g>
</svg>
