<svg id="ikona_deti_s_vyvojovymi_poruchami" xmlns="http://www.w3.org/2000/svg" xmlns:xlink="http://www.w3.org/1999/xlink" width="87.468" height="87.4" viewBox="0 0 87.468 87.4">
  <defs>
    <clipPath id="clip-path">
      <rect id="Rectangle_350" data-name="Rectangle 350" width="87.468" height="87.4" fill="#fff"/>
    </clipPath>
  </defs>
  <g id="Group_46" data-name="Group 46" clip-path="url(#clip-path)">
    <path id="Path_187" data-name="Path 187" d="M0,42.9a4.951,4.951,0,0,1,2.256-2.976,4.379,4.379,0,0,1,5.967,1.732c.143.25.459.565.7.569,2.332.043,4.665.026,7.062.026V24.814c-1.424,0-2.838-.021-4.25.024-.2.006-.442.3-.564.521a4.357,4.357,0,0,1-8.106-.935,4.291,4.291,0,0,1,1.71-4.652,4.328,4.328,0,0,1,6.317,1.459,1.04,1.04,0,0,0,1.1.67c1.246-.046,2.5-.014,3.855-.014,0-1.33,0-2.6,0-3.87,0-1.484.455-1.945,1.915-1.948,1.964,0,3.928,0,5.893,0h.873v-5.8c-.959,0-1.916-.025-2.87.023-.172.009-.376.29-.486.49A4.34,4.34,0,0,1,16.5,13.034a4.284,4.284,0,0,1-3.367-4.26,4.349,4.349,0,0,1,8.2-2.044.943.943,0,0,0,.986.591c1.759-.025,3.518-.01,5.378-.01v8.7H42.159a6.143,6.143,0,0,0,.067-.646c.005-2.05-.007-4.1.011-6.149a.941.941,0,0,0-.565-1A4.274,4.274,0,0,1,39.6,3a4.372,4.372,0,0,1,8.522,1.421,4.159,4.159,0,0,1-2.251,3.762,1.066,1.066,0,0,0-.645,1.124c.027,2.216.011,4.432.011,6.7H59.713v-8.7h3.3c.37,0,.743-.028,1.11.005a2.179,2.179,0,0,0,2.414-1.138A4.128,4.128,0,0,1,71.53,4.685a4.384,4.384,0,0,1-.733,8.394,4.293,4.293,0,0,1-4.614-2.158A1.063,1.063,0,0,0,65,10.253c-.734.031-1.47.008-2.259.008v5.807c1.736,0,3.436.023,5.136,0,3.581-.058,3.6-.015,3.538,3.58-.013.707,0,1.415,0,2.24,1.492,0,2.932.021,4.37-.026.188-.006.414-.335.538-.56a4.373,4.373,0,0,1,8.23,2.213A4.411,4.411,0,0,1,81.1,27.639a4.3,4.3,0,0,1-4.744-2.218A.988.988,0,0,0,75.3,24.8c-1.249.033-2.5.011-3.816.011V42.2c.251.017.5.049.744.049,1.509,0,3.018-.021,4.526.01,1.243.026,2.274.046,3.105-1.324.981-1.618,3.213-1.959,4.973-1.2a4.371,4.371,0,0,1-.784,8.284,4.277,4.277,0,0,1-4.723-2.074,1.114,1.114,0,0,0-1.176-.7c-2.163.035-4.326.025-6.489.035-.05,0-.1.041-.2.083V62.687c1.44,0,2.879.017,4.318-.022.173,0,.384-.29.5-.491a4.377,4.377,0,1,1,4.737,6.279,4.293,4.293,0,0,1-4.658-2.227.984.984,0,0,0-1.05-.621c-1.251.034-2.5.011-3.891.011,0,1.242,0,2.453,0,3.663,0,1.77-.382,2.155-2.136,2.156-2.159,0-4.317,0-6.533,0v5.8c.93,0,1.835.036,2.735-.025.222-.015.494-.308.623-.54a4.381,4.381,0,0,1,4.909-2.2A4.368,4.368,0,1,1,66.146,80.8a1,1,0,0,0-1.05-.623c-1.734.027-3.468.01-5.3.01V71.5H45.239c0,2.408-.015,4.791.026,7.174,0,.207.347.461.587.6a4.264,4.264,0,0,1,2.257,3.944,3.845,3.845,0,0,1-2.472,3.77c-2.329.833-4.509.461-5.746-1.8a4.3,4.3,0,0,1,1.638-5.842,1.183,1.183,0,0,0,.714-1.253c-.031-2.186-.012-4.373-.012-6.613H27.745v8.633c-.338.028-.582.065-.827.066-1.224.006-2.451.054-3.671-.013a2.108,2.108,0,0,0-2.27,1.09,4.144,4.144,0,0,1-4.969,1.578,4.338,4.338,0,0,1-2.86-4.553,4.346,4.346,0,0,1,8.18-1.625.9.9,0,0,0,.972.587c.79-.035,1.583-.01,2.425-.01V71.435h-.878c-2.021,0-4.042.007-6.064,0-1.2-.006-1.719-.521-1.73-1.7-.012-1.333,0-2.666,0-4.109-1.5,0-2.94-.021-4.379.026-.187.006-.409.34-.534.567a4.373,4.373,0,0,1-8.225-2.23,4.412,4.412,0,0,1,3.467-4.122,4.293,4.293,0,0,1,4.738,2.229.987.987,0,0,0,1.058.613c1.248-.03,2.5-.01,3.81-.01V45.254H10.958a6.058,6.058,0,0,1-.683,0,2.252,2.252,0,0,0-2.5,1.138A3.812,3.812,0,0,1,3.6,48.04a4.243,4.243,0,0,1-3.43-3.063A3.44,3.44,0,0,0,0,44.605V42.9M68.443,19.048H19.006V68.484H68.443ZM45.127,4.411a1.4,1.4,0,1,0-2.79-.043,1.4,1.4,0,1,0,2.79.043M4.415,45.145a1.395,1.395,0,1,0-.088-2.787,1.394,1.394,0,0,0,.088,2.787m78.645,0a1.395,1.395,0,1,0-1.406-1.385,1.4,1.4,0,0,0,1.406,1.385M43.713,81.673a1.419,1.419,0,1,0,1.412,1.378,1.384,1.384,0,0,0-1.412-1.378M17.467,10.194a1.47,1.47,0,0,0,1.471-1.356,1.435,1.435,0,1,0-2.869-.074,1.471,1.471,0,0,0,1.4,1.431M71.4,8.785a1.437,1.437,0,1,0-2.874.032A1.438,1.438,0,0,0,71.4,8.785M18.943,78.692a1.438,1.438,0,1,0-1.388,1.448,1.493,1.493,0,0,0,1.388-1.448m52.452.046a1.436,1.436,0,0,0-2.869-.074,1.435,1.435,0,1,0,2.869.074M7.323,21.923a1.431,1.431,0,0,0-.078,2.859,1.43,1.43,0,1,0,.078-2.859M80.06,24.78a1.436,1.436,0,0,0,1.495-1.31A1.41,1.41,0,0,0,80.3,21.939a1.426,1.426,0,1,0-.238,2.841M7.324,65.58a1.43,1.43,0,1,0-.08-2.859,1.431,1.431,0,0,0,.08,2.859m74.245-1.458a1.412,1.412,0,1,0-2.822.1,1.47,1.47,0,0,0,1.462,1.361,1.455,1.455,0,0,0,1.36-1.46" transform="translate(0 0)" fill="#fff"/>
    <path id="Path_188" data-name="Path 188" d="M193.828,177.89q0,7,0,14.008c0,1.557-.485,2.042-2.041,2.042q-14.008,0-28.015,0c-1.557,0-2.042-.485-2.042-2.042q0-14.007,0-28.015c0-1.557.485-2.042,2.042-2.042q14.007,0,28.015,0c1.556,0,2.041.485,2.042,2.042q0,7,0,14.007m-2.993-13.041h-26.1v26.1h26.1Z" transform="translate(-134.046 -134.139)" fill="#fff"/>
    <path id="Path_189" data-name="Path 189" d="M229.972,129.554v0a1.4,1.4,0,0,1,1.4-1.4h.079a1.4,1.4,0,0,1,1.4,1.4v0a1.4,1.4,0,0,1-1.4,1.4h-.079a1.4,1.4,0,0,1-1.4-1.4" transform="translate(-190.61 -106.214)" fill="#fff"/>
    <path id="Path_190" data-name="Path 190" d="M265.469,366.531h.067a1.411,1.411,0,1,1,0,2.821h-.067a1.411,1.411,0,1,1,0-2.821" transform="translate(-218.861 -303.795)" fill="#fff"/>
    <path id="Path_191" data-name="Path 191" d="M195.927,129.589v-.013a1.4,1.4,0,0,1,1.4-1.4h.071a1.4,1.4,0,0,1,1.4,1.4v.013a1.4,1.4,0,0,1-1.4,1.4h-.071a1.4,1.4,0,0,1-1.4-1.4" transform="translate(-162.392 -106.234)" fill="#fff"/>
    <path id="Path_192" data-name="Path 192" d="M299.706,366.441h.026a1.411,1.411,0,0,1,1.411,1.411v.017a1.411,1.411,0,0,1-1.411,1.411h-.026a1.411,1.411,0,0,1-1.411-1.411v-.017a1.411,1.411,0,0,1,1.411-1.411" transform="translate(-247.238 -303.72)" fill="#fff"/>
    <path id="Path_193" data-name="Path 193" d="M164.936,129.609h0a1.4,1.4,0,0,1-1.4,1.4h-.047a1.4,1.4,0,1,1,0-2.808h.047a1.4,1.4,0,0,1,1.4,1.4" transform="translate(-134.339 -106.261)" fill="#fff"/>
    <path id="Path_194" data-name="Path 194" d="M333.847,369.42h-.009a1.411,1.411,0,0,1-1.411-1.411V368a1.411,1.411,0,0,1,1.411-1.411h.009A1.411,1.411,0,0,1,335.258,368v.013a1.411,1.411,0,0,1-1.411,1.411" transform="translate(-275.529 -303.841)" fill="#fff"/>
  </g>
</svg>
