<svg xmlns="http://www.w3.org/2000/svg" width="33" height="33" viewBox="0 0 33 33">
  <g id="instagram" transform="translate(1.333 1.259)">
    <path id="Rectangle_372" data-name="Rectangle 372" d="M5-1H26a6.007,6.007,0,0,1,6,6V26a6.007,6.007,0,0,1-6,6H5a6.007,6.007,0,0,1-6-6V5A6.007,6.007,0,0,1,5-1ZM26,30a4,4,0,0,0,4-4V5a4,4,0,0,0-4-4H5A4,4,0,0,0,1,5V26a4,4,0,0,0,4,4Z" transform="translate(-0.333 -0.259)" fill="#fff"/>
    <path id="Path_219" data-name="Path 219" d="M14.115,6.957a7.112,7.112,0,0,1,1.04.077A7.074,7.074,0,0,1,17.3,20.35a7.105,7.105,0,0,1-3.179.755,7.074,7.074,0,0,1,0-14.148Zm0,12.148a5.074,5.074,0,1,0-3.59-1.486A5.043,5.043,0,0,0,14.119,19.105Z" transform="translate(1.133 1.089)" fill="#fff"/>
    <path id="Line_49" data-name="Line 49" d="M.015,1H0A1,1,0,0,1-1,0,1,1,0,0,1,0-1H.015a1,1,0,0,1,1,1A1,1,0,0,1,.015,1Z" transform="translate(23.537 6.833)" fill="#fff"/>
  </g>
</svg>
