<svg xmlns="http://www.w3.org/2000/svg" width="32.443" height="31.111" viewBox="0 0 32.443 31.111">
  <g id="linkedin" transform="translate(1.073 1.259)">
    <path id="Path_218" data-name="Path 218" d="M19.111,7A10.122,10.122,0,0,1,29.222,17.111v10.63a1,1,0,0,1-1,1H22.148a1,1,0,0,1-1-1V17.111a2.037,2.037,0,0,0-4.074,0v10.63a1,1,0,0,1-1,1H10a1,1,0,0,1-1-1V17.111A10.122,10.122,0,0,1,19.111,7Zm8.111,19.741v-9.63a8.111,8.111,0,1,0-16.222,0v9.63h4.074v-9.63a4.037,4.037,0,1,1,8.074,0v9.63Z" transform="translate(2.148 1.111)" fill="#fff"/>
    <path id="Rectangle_371" data-name="Rectangle 371" d="M0-1H6A1,1,0,0,1,7,0V18a1,1,0,0,1-1,1H0a1,1,0,0,1-1-1V0A1,1,0,0,1,0-1ZM5,1H1V17H5Z" transform="translate(-0.073 10.741)" fill="#fff"/>
    <path id="Ellipse_3" data-name="Ellipse 3" d="M3-1A4,4,0,1,1-1,3,4,4,0,0,1,3-1ZM3,5A2,2,0,1,0,1,3,2,2,0,0,0,3,5Z" transform="translate(-0.073 -0.259)" fill="#fff"/>
  </g>
</svg>
