<svg id="Group_16" data-name="Group 16" xmlns="http://www.w3.org/2000/svg" xmlns:xlink="http://www.w3.org/1999/xlink" width="281.892" height="65.168" viewBox="0 0 281.892 65.168">
  <defs>
    <clipPath id="clip-path">
      <rect id="Rectangle_309" data-name="Rectangle 309" width="281.892" height="65.168" fill="#fff"/>
    </clipPath>
  </defs>
  <g id="Group_11" data-name="Group 11" transform="translate(0 0)" clip-path="url(#clip-path)">
    <path id="Path_61" data-name="Path 61" d="M69.527,15.48a17.735,17.735,0,0,0-12.9-5.555h-.217a17.715,17.715,0,0,0-8.629,2.343,8.261,8.261,0,0,1,4.876,3.9,6.391,6.391,0,0,1,.724,2.256l.2-.089a9.853,9.853,0,0,1,10.234,2.633c2.807,2.928,3.528,6.436,2.268,11.041a22.888,22.888,0,0,1-7.043,10.846A167.879,167.879,0,0,1,41.642,56.2l-.418.293-.567-.369-.9-.586A234.761,234.761,0,0,1,19.623,41.351,32.776,32.776,0,0,1,9.605,28.727C7.7,24.235,7.43,20.413,8.75,16.7A13.1,13.1,0,0,1,28.7,10.361,15.824,15.824,0,0,1,32.757,14.6a3.963,3.963,0,0,0,6.564-4.443A23.8,23.8,0,0,0,33.26,3.875,21.025,21.025,0,0,0,1.28,14.044c-2,5.62-1.661,11.434,1.027,17.775A40.453,40.453,0,0,0,14.633,47.51a241.372,241.372,0,0,0,20.8,14.675l.92.6c.77.5,1.541,1,2.3,1.505.049.033.1.061.148.093a3.936,3.936,0,0,0,1.916.76,4.319,4.319,0,0,0,.5.029l.088,0,.092,0a4.556,4.556,0,0,0,.492-.026,3.937,3.937,0,0,0,2.243-1.01q1.025-.72,2.052-1.439a174.087,174.087,0,0,0,18.2-14A30.549,30.549,0,0,0,73.72,34.1c2.013-7.354.6-13.619-4.193-18.619" transform="translate(0 0)" fill="#fff"/>
    <path id="Path_62" data-name="Path 62" d="M116.921,34.72a3.408,3.408,0,0,1-2.516-.862,3.357,3.357,0,0,1-.862-2.481V13.255a3.358,3.358,0,0,1,.862-2.481,3.408,3.408,0,0,1,2.516-.862H128.85a2.579,2.579,0,0,1,1.9.634,2.476,2.476,0,0,1,.633,1.83,2.588,2.588,0,0,1-.633,1.882,2.535,2.535,0,0,1-1.9.651h-9.114v4.715h8.34a2.593,2.593,0,0,1,1.883.634,2.487,2.487,0,0,1,.651,1.865,2.487,2.487,0,0,1-.651,1.865,2.6,2.6,0,0,1-1.883.634h-8.34v5.1h9.114a2.644,2.644,0,0,1,1.9,4.364,2.582,2.582,0,0,1-1.9.633Z" transform="translate(-28.777 -2.512)" fill="#fff"/>
    <path id="Path_63" data-name="Path 63" d="M154.64,19.942a1.9,1.9,0,0,0-1.53-.51,5.757,5.757,0,0,0-3.642,1.3,5.059,5.059,0,0,0-1.46,2.061v-.161a3.231,3.231,0,0,0-.774-2.323,2.971,2.971,0,0,0-2.252-.809,3.029,3.029,0,0,0-2.27.809,3.183,3.183,0,0,0-.792,2.323V34.282a3.149,3.149,0,0,0,.827,2.357,3.253,3.253,0,0,0,2.375.81,2.838,2.838,0,0,0,3.167-3.167V28.51a3.507,3.507,0,0,1,.845-2.551,4.253,4.253,0,0,1,2.709-1.038l.809-.071a2.647,2.647,0,0,0,2.006-.879,3.392,3.392,0,0,0,.527-2.005,3.12,3.12,0,0,0-.545-2.024" transform="translate(-35.969 -4.924)" fill="#fff"/>
    <path id="Path_64" data-name="Path 64" d="M179.253,20.313a3.032,3.032,0,0,0-2.27-.81,3.155,3.155,0,0,0-2.305.81,2.848,2.848,0,0,0-.786,1.758,4.769,4.769,0,0,0-1.783-1.723,6.878,6.878,0,0,0-3.536-.915,7.852,7.852,0,0,0-3.149.616A6.838,6.838,0,0,0,163,21.791,8.1,8.1,0,0,0,161.43,24.5a10.561,10.561,0,0,0-.563,3.554,10.018,10.018,0,0,0,.968,4.539,7.292,7.292,0,0,0,2.692,3.009,7.5,7.5,0,0,0,4.046,1.073,6.928,6.928,0,0,0,3.519-.932,4.83,4.83,0,0,0,1.865-1.8V35.55a3.443,3.443,0,0,1-1.074,2.8,4.928,4.928,0,0,1-3.219.9,14.684,14.684,0,0,1-2.147-.193,12.532,12.532,0,0,1-2.814-.827,1.883,1.883,0,0,0-1.408-.017,2.1,2.1,0,0,0-1,.862,2.749,2.749,0,0,0-.405,1.337,2.378,2.378,0,0,0,.387,1.407,2.645,2.645,0,0,0,1.442,1.021,13.583,13.583,0,0,0,2.921.756,23.464,23.464,0,0,0,3.625.264q4.715,0,7.249-2.27t2.533-6.773V22.635a3.185,3.185,0,0,0-.791-2.322m-5.789,9.905a3.2,3.2,0,0,1-1.162,1.372,3.245,3.245,0,0,1-1.795.476,3.055,3.055,0,0,1-2.428-1.056,4.372,4.372,0,0,1-.915-2.956,5.236,5.236,0,0,1,.4-2.164,3.009,3.009,0,0,1,1.179-1.372,3.3,3.3,0,0,1,1.759-.475,3.093,3.093,0,0,1,2.464,1.056,4.369,4.369,0,0,1,.915,2.956,5.052,5.052,0,0,1-.423,2.164" transform="translate(-40.771 -4.925)" fill="#fff"/>
    <path id="Path_65" data-name="Path 65" d="M199.945,37.52a10.978,10.978,0,0,1-5.032-1.091A7.976,7.976,0,0,1,191.57,33.3a9.357,9.357,0,0,1-1.2-4.821,10.117,10.117,0,0,1,.669-3.783,7.785,7.785,0,0,1,1.935-2.85A8.506,8.506,0,0,1,196,20.049a11.89,11.89,0,0,1,3.941-.616,10.982,10.982,0,0,1,5.032,1.091,7.909,7.909,0,0,1,3.325,3.115,9.447,9.447,0,0,1,1.179,4.838,10.148,10.148,0,0,1-.668,3.765,7.865,7.865,0,0,1-1.918,2.868,8.3,8.3,0,0,1-3.027,1.795,11.936,11.936,0,0,1-3.923.616m0-4.61a2.917,2.917,0,0,0,2.832-1.918,6.6,6.6,0,0,0,.4-2.516,5.09,5.09,0,0,0-.915-3.4,2.963,2.963,0,0,0-2.323-1.038,3.14,3.14,0,0,0-1.689.458,3.042,3.042,0,0,0-1.161,1.424,6.466,6.466,0,0,0-.423,2.552,5.1,5.1,0,0,0,.915,3.378,2.974,2.974,0,0,0,2.358,1.056" transform="translate(-48.249 -4.925)" fill="#fff"/>
    <path id="Path_66" data-name="Path 66" d="M227.922,35.835a10.161,10.161,0,0,1-4.346-.809,5.375,5.375,0,0,1-2.551-2.446,8.877,8.877,0,0,1-.845-4.1V22.745h-1.2a2.4,2.4,0,0,1-1.742-.6,2.3,2.3,0,0,1-.615-1.725,2.237,2.237,0,0,1,.615-1.707,2.441,2.441,0,0,1,1.742-.581h1.2V15.954a3.19,3.19,0,0,1,.81-2.358,3.736,3.736,0,0,1,4.644,0,3.193,3.193,0,0,1,.809,2.358v2.181h2.885a2.494,2.494,0,0,1,1.778.581,2.237,2.237,0,0,1,.615,1.707,2.3,2.3,0,0,1-.615,1.725,2.45,2.45,0,0,1-1.778.6h-2.885V28.27a2.616,2.616,0,0,0,.616,1.918,2.671,2.671,0,0,0,1.953.616,4.229,4.229,0,0,0,.95-.105,3.739,3.739,0,0,1,.844-.106,1.1,1.1,0,0,1,.915.334,2.632,2.632,0,0,1,.352,1.672,4.4,4.4,0,0,1-.317,1.777,1.93,1.93,0,0,1-1.126,1.038,7.233,7.233,0,0,1-1.337.3,9.929,9.929,0,0,1-1.372.123" transform="translate(-54.903 -3.241)" fill="#fff"/>
    <path id="Path_67" data-name="Path 67" d="M255.6,29.409a1.3,1.3,0,0,0,.387-1.038,11.1,11.1,0,0,0-.581-3.695,7.77,7.77,0,0,0-1.707-2.832,7.4,7.4,0,0,0-2.709-1.795,9.637,9.637,0,0,0-3.519-.616,9.511,9.511,0,0,0-4.7,1.144,8.4,8.4,0,0,0-3.237,3.167,9.154,9.154,0,0,0-1.179,4.7,9.149,9.149,0,0,0,1.231,4.82,8.124,8.124,0,0,0,3.537,3.15A12.517,12.517,0,0,0,248.6,37.52a14.088,14.088,0,0,0,2.8-.281,12.017,12.017,0,0,0,2.622-.844,2.3,2.3,0,0,0,1.161-1,2.507,2.507,0,0,0,.317-1.338,2.366,2.366,0,0,0-.4-1.231,2,2,0,0,0-1.038-.774,2.309,2.309,0,0,0-1.584.123,11.232,11.232,0,0,1-1.917.545,9.51,9.51,0,0,1-1.778.194,4.772,4.772,0,0,1-3.43-1.074,3.742,3.742,0,0,1-.985-2.093h10.011a1.858,1.858,0,0,0,1.231-.334M245.87,23.99a3.4,3.4,0,0,1,1.883-.51,3.2,3.2,0,0,1,1.707.422,2.634,2.634,0,0,1,1.038,1.232,4.858,4.858,0,0,1,.336,1.654h-6.517a5.141,5.141,0,0,1,.34-1.3,3.238,3.238,0,0,1,1.214-1.5" transform="translate(-60.411 -4.925)" fill="#fff"/>
    <path id="Path_68" data-name="Path 68" d="M278.32,19.942a1.9,1.9,0,0,0-1.53-.51,5.757,5.757,0,0,0-3.642,1.3,5.06,5.06,0,0,0-1.46,2.061v-.161a3.231,3.231,0,0,0-.774-2.323,2.971,2.971,0,0,0-2.252-.809,3.028,3.028,0,0,0-2.27.809,3.183,3.183,0,0,0-.792,2.323V34.282a3.148,3.148,0,0,0,.827,2.357,3.253,3.253,0,0,0,2.375.81,2.838,2.838,0,0,0,3.167-3.167V28.51a3.507,3.507,0,0,1,.845-2.551,4.253,4.253,0,0,1,2.709-1.038l.809-.071a2.647,2.647,0,0,0,2.006-.879,3.392,3.392,0,0,0,.527-2.005,3.119,3.119,0,0,0-.545-2.024" transform="translate(-67.315 -4.924)" fill="#fff"/>
    <path id="Path_69" data-name="Path 69" d="M301.059,22.793a5.725,5.725,0,0,0-2.815-2.533,11.914,11.914,0,0,0-4.767-.827,17.938,17.938,0,0,0-2.622.211,15.383,15.383,0,0,0-3.115.844,2.821,2.821,0,0,0-1.354.985,2.416,2.416,0,0,0-.458,1.337,2.313,2.313,0,0,0,.352,1.3,1.992,1.992,0,0,0,1.038.844,2.317,2.317,0,0,0,1.618-.105,13.831,13.831,0,0,1,2.358-.686,10.7,10.7,0,0,1,1.9-.193,3.607,3.607,0,0,1,2.234.528,2.185,2.185,0,0,1,.652,1.794v.493h-1.337a28.377,28.377,0,0,0-5.807.476,5.831,5.831,0,0,0-3.167,1.566,4.3,4.3,0,0,0-.985,2.991,5.143,5.143,0,0,0,.862,2.938,5.886,5.886,0,0,0,2.393,2.023,8.041,8.041,0,0,0,3.536.739,5.631,5.631,0,0,0,2.323-.458,4.27,4.27,0,0,0,1.654-1.267,3.9,3.9,0,0,0,.62-1.181,3.143,3.143,0,0,0,.735,2.025,2.863,2.863,0,0,0,2.2.809,2.759,2.759,0,0,0,2.146-.809,3.38,3.38,0,0,0,.739-2.358V27.175a9.1,9.1,0,0,0-.932-4.382m-5.4,9.185a3.029,3.029,0,0,1-1.109,1.073,3.121,3.121,0,0,1-1.565.387,2.4,2.4,0,0,1-1.672-.528,1.727,1.727,0,0,1-.581-1.337,1.37,1.37,0,0,1,.423-1.038,2.713,2.713,0,0,1,1.319-.6,11.091,11.091,0,0,1,2.27-.193h1.337v.633a3,3,0,0,1-.423,1.6" transform="translate(-72.178 -4.925)" fill="#fff"/>
    <path id="Path_70" data-name="Path 70" d="M330.61,23.62a7.007,7.007,0,0,0-6.615-4.187,6.659,6.659,0,0,0-3.572.968,4.754,4.754,0,0,0-1.706,1.733,2.939,2.939,0,0,0-.757-1.821,3.085,3.085,0,0,0-2.3-.809,3.034,3.034,0,0,0-2.27.809,3.185,3.185,0,0,0-.792,2.323V40.616a3.193,3.193,0,0,0,.809,2.358,3.092,3.092,0,0,0,2.287.809,3.2,3.2,0,0,0,2.34-.809,3.155,3.155,0,0,0,.827-2.358V35.061a4.848,4.848,0,0,0,1.654,1.544,6.719,6.719,0,0,0,3.484.915A6.966,6.966,0,0,0,330.61,33.3a11.33,11.33,0,0,0,.95-4.82,11.278,11.278,0,0,0-.95-4.856m-5.771,7.372a3.194,3.194,0,0,1-1.144,1.442,3.166,3.166,0,0,1-4.029-.58,5.1,5.1,0,0,1-.915-3.378,6.466,6.466,0,0,1,.423-2.552,3.041,3.041,0,0,1,1.162-1.425,3.145,3.145,0,0,1,1.689-.457,2.962,2.962,0,0,1,2.323,1.038,5.093,5.093,0,0,1,.915,3.4,6.353,6.353,0,0,1-.423,2.516" transform="translate(-79.226 -4.925)" fill="#fff"/>
    <path id="Path_71" data-name="Path 71" d="M344.793,14.138a3.789,3.789,0,0,1-2.551-.774,2.81,2.81,0,0,1-.9-2.252,2.766,2.766,0,0,1,.9-2.217,3.789,3.789,0,0,1,2.551-.775,3.839,3.839,0,0,1,2.6.775,2.8,2.8,0,0,1,.879,2.217,2.842,2.842,0,0,1-.879,2.252,3.839,3.839,0,0,1-2.6.774m0,20.444a2.956,2.956,0,0,1-2.287-.879,3.611,3.611,0,0,1-.809-2.534V20.049a3.615,3.615,0,0,1,.809-2.534,2.956,2.956,0,0,1,2.287-.879,3.061,3.061,0,0,1,2.34.879,3.568,3.568,0,0,1,.827,2.534v11.12a3.611,3.611,0,0,1-.809,2.534,3.049,3.049,0,0,1-2.358.879" transform="translate(-86.513 -2.058)" fill="#fff"/>
    <path id="Path_72" data-name="Path 72" d="M371.219,29.409a1.3,1.3,0,0,0,.387-1.038,11.077,11.077,0,0,0-.581-3.695,7.756,7.756,0,0,0-1.706-2.832,7.407,7.407,0,0,0-2.71-1.795,9.633,9.633,0,0,0-3.518-.616,9.512,9.512,0,0,0-4.7,1.144,8.4,8.4,0,0,0-3.237,3.167,9.162,9.162,0,0,0-1.179,4.7,9.149,9.149,0,0,0,1.231,4.82,8.123,8.123,0,0,0,3.537,3.15,12.52,12.52,0,0,0,5.471,1.108,14.1,14.1,0,0,0,2.8-.281,12,12,0,0,0,2.621-.844,2.3,2.3,0,0,0,1.162-1,2.513,2.513,0,0,0,.317-1.338,2.379,2.379,0,0,0-.4-1.231,2,2,0,0,0-1.038-.774,2.305,2.305,0,0,0-1.583.123,11.286,11.286,0,0,1-1.919.545,9.5,9.5,0,0,1-1.777.194,4.773,4.773,0,0,1-3.431-1.074,3.742,3.742,0,0,1-.985-2.093h10.012a1.861,1.861,0,0,0,1.231-.334m-9.73-5.419a3.4,3.4,0,0,1,1.883-.51,3.2,3.2,0,0,1,1.707.422,2.634,2.634,0,0,1,1.038,1.232,4.859,4.859,0,0,1,.336,1.654h-6.517a5.141,5.141,0,0,1,.34-1.3,3.237,3.237,0,0,1,1.214-1.5" transform="translate(-89.714 -4.925)" fill="#fff"/>
    <path id="Path_73" data-name="Path 73" d="M130.069,53.76a3.709,3.709,0,0,0-4.627,0,3.19,3.19,0,0,0-.81,2.358V62.87a4.891,4.891,0,0,0-1.689-1.58,6.718,6.718,0,0,0-3.483-.915,7.127,7.127,0,0,0-3.924,1.091,7.372,7.372,0,0,0-2.674,3.1,12.582,12.582,0,0,0,0,9.677,7.331,7.331,0,0,0,2.674,3.132,7.127,7.127,0,0,0,3.924,1.091,6.656,6.656,0,0,0,3.572-.968,4.759,4.759,0,0,0,1.708-1.736,2.919,2.919,0,0,0,.773,1.825,3.662,3.662,0,0,0,4.592,0,3.237,3.237,0,0,0,.792-2.358V56.118a3.154,3.154,0,0,0-.827-2.358m-6.915,19.617a3.057,3.057,0,0,1-1.689.475,2.976,2.976,0,0,1-2.358-1.056,5.1,5.1,0,0,1-.915-3.377,6.45,6.45,0,0,1,.423-2.552,3.04,3.04,0,0,1,1.161-1.425,3.145,3.145,0,0,1,1.689-.457,2.96,2.96,0,0,1,2.323,1.038,5.093,5.093,0,0,1,.915,3.4,6.6,6.6,0,0,1-.4,2.516,3.045,3.045,0,0,1-1.144,1.442" transform="translate(-28.359 -13.42)" fill="#fff"/>
    <path id="Path_74" data-name="Path 74" d="M150.689,80.983a10.978,10.978,0,0,1-5.032-1.091,7.971,7.971,0,0,1-3.343-3.132,9.357,9.357,0,0,1-1.2-4.821,10.118,10.118,0,0,1,.669-3.784,7.786,7.786,0,0,1,1.936-2.85,8.491,8.491,0,0,1,3.026-1.794,11.871,11.871,0,0,1,3.941-.616,10.97,10.97,0,0,1,5.032,1.091,7.9,7.9,0,0,1,3.326,3.114,9.459,9.459,0,0,1,1.178,4.839,10.154,10.154,0,0,1-.668,3.765,7.862,7.862,0,0,1-1.918,2.868,8.3,8.3,0,0,1-3.026,1.795,11.938,11.938,0,0,1-3.924.616m0-4.61a2.917,2.917,0,0,0,2.833-1.918,6.615,6.615,0,0,0,.4-2.515,5.092,5.092,0,0,0-.915-3.4,2.962,2.962,0,0,0-2.323-1.038,3.15,3.15,0,0,0-1.689.458,3.049,3.049,0,0,0-1.161,1.425,6.465,6.465,0,0,0-.422,2.552,5.1,5.1,0,0,0,.915,3.377,2.975,2.975,0,0,0,2.358,1.056" transform="translate(-35.766 -15.941)" fill="#fff"/>
    <path id="Path_75" data-name="Path 75" d="M198.065,66.151a4.807,4.807,0,0,0-1.953-2.464,6.356,6.356,0,0,0-3.343-.791,6.769,6.769,0,0,0-3.589.985,6.146,6.146,0,0,0-2.131,2.178,4.86,4.86,0,0,0-1.757-2.249,5.678,5.678,0,0,0-3.255-.915,6.307,6.307,0,0,0-3.466.932,5.91,5.91,0,0,0-1.841,1.845,3.018,3.018,0,0,0-.745-1.9,2.975,2.975,0,0,0-2.252-.809,3.035,3.035,0,0,0-2.269.809,3.186,3.186,0,0,0-.792,2.323V77.746a3.19,3.19,0,0,0,.81,2.358,3.094,3.094,0,0,0,2.287.809q3.168,0,3.167-3.167V71.2a4.272,4.272,0,0,1,.686-2.6,2.3,2.3,0,0,1,1.954-.915,1.7,1.7,0,0,1,1.513.669,3.977,3.977,0,0,1,.458,2.181v7.214a3.193,3.193,0,0,0,.809,2.358,3.737,3.737,0,0,0,4.645,0,3.2,3.2,0,0,0,.809-2.358V71.2a4.272,4.272,0,0,1,.686-2.6,2.334,2.334,0,0,1,1.988-.915,1.7,1.7,0,0,1,1.513.669,3.977,3.977,0,0,1,.458,2.181v7.214a3.193,3.193,0,0,0,.809,2.358,3.1,3.1,0,0,0,2.287.809,3.207,3.207,0,0,0,2.34-.809,3.155,3.155,0,0,0,.827-2.358v-7.39a11.691,11.691,0,0,0-.651-4.2" transform="translate(-43.256 -15.941)" fill="#fff"/>
    <path id="Path_76" data-name="Path 76" d="M228.329,66.256a5.727,5.727,0,0,0-2.814-2.534,11.919,11.919,0,0,0-4.768-.826,18.045,18.045,0,0,0-2.622.211,15.371,15.371,0,0,0-3.114.845,2.818,2.818,0,0,0-1.355.985,2.412,2.412,0,0,0-.457,1.338,2.315,2.315,0,0,0,.351,1.3,2,2,0,0,0,1.038.844,2.325,2.325,0,0,0,1.619-.105,13.844,13.844,0,0,1,2.358-.687,10.685,10.685,0,0,1,1.9-.193,3.613,3.613,0,0,1,2.234.528,2.19,2.19,0,0,1,.651,1.795v.493h-1.337a28.385,28.385,0,0,0-5.807.475,5.839,5.839,0,0,0-3.167,1.566,4.3,4.3,0,0,0-.985,2.991,5.149,5.149,0,0,0,.862,2.938,5.891,5.891,0,0,0,2.393,2.023,8.043,8.043,0,0,0,3.536.739,5.628,5.628,0,0,0,2.322-.458,4.271,4.271,0,0,0,1.654-1.267,3.892,3.892,0,0,0,.62-1.18,3.146,3.146,0,0,0,.735,2.025,2.867,2.867,0,0,0,2.2.809,2.763,2.763,0,0,0,2.147-.809,3.382,3.382,0,0,0,.738-2.358V70.637a9.085,9.085,0,0,0-.932-4.381m-5.4,9.184a3.034,3.034,0,0,1-1.108,1.074,3.132,3.132,0,0,1-1.566.387,2.4,2.4,0,0,1-1.672-.529A1.729,1.729,0,0,1,218,75.036,1.373,1.373,0,0,1,218.424,74a2.716,2.716,0,0,1,1.319-.6,11.092,11.092,0,0,1,2.27-.193h1.337v.634a2.992,2.992,0,0,1-.423,1.6" transform="translate(-53.744 -15.941)" fill="#fff"/>
    <path id="Path_77" data-name="Path 77" d="M51.857,20.862c-.105.115-.208.231-.311.35a7.774,7.774,0,0,0-.778.888,7.7,7.7,0,0,1-2.8,2.782c-3.083,1.8-6.277,1.779-9.6,1.175a9.927,9.927,0,0,0-1.809-.155,1.721,1.721,0,0,0-.211,3.433c1.946.343,3.9.658,5.845.984l.058.268c-1.786.723-3.565,1.465-5.36,2.162a10.841,10.841,0,0,0-2.2,1,1.843,1.843,0,0,0-.893,2.287c.355.978,1.222.943,2.046.833a18.1,18.1,0,0,0,3.542-1.238,9.9,9.9,0,0,1,2.23-.612c-1.7,1.288-3.394,2.591-5.113,3.855a2.118,2.118,0,0,0-1.114,1.884c.1,1.425,1.518,2.039,2.794,1.136,1.748-1.235,3.43-2.562,5.143-3.846.346-.26.7-.506,1.3-.935a12.029,12.029,0,0,1-1.78,2.635c-.794,1.074-1.61,2.132-2.379,3.224a1.735,1.735,0,0,0,.085,2.511c.815.767,1.568.324,2.29-.184A9.124,9.124,0,0,0,44.6,43.312c1.253-1.59,2.473-3.2,3.724-4.8a5.47,5.47,0,0,1,2.3-1.732c.992-.395,1.33-.177,1.411.889.1,1.373.179,2.747.281,4.12a3.772,3.772,0,0,0,.508,1.731,1.575,1.575,0,0,0,1.661.757,1.466,1.466,0,0,0,1.289-1.265.989.989,0,0,0,.055-.358c-.352-2.483.436-4.909.4-7.361-.055-3.351,1.4-6.475,2.408-9.525,2.327-3.492-3.867-8.1-6.781-4.909" transform="translate(-8.533 -5.016)" fill="#fff"/>
  </g>
</svg>
