<svg xmlns="http://www.w3.org/2000/svg" xmlns:xlink="http://www.w3.org/1999/xlink" width="384" height="204" viewBox="0 0 384 204">
  <defs>
    <filter id="Subtraction_2" x="0" y="0" width="384" height="204" filterUnits="userSpaceOnUse">
      <feOffset dy="3" input="SourceAlpha"/>
      <feGaussianBlur stdDeviation="3" result="blur"/>
      <feFlood flood-opacity="0.329"/>
      <feComposite operator="in" in2="blur"/>
      <feComposite in="SourceGraphic"/>
    </filter>
  </defs>
  <g transform="matrix(1, 0, 0, 1, 0, 0)" filter="url(#Subtraction_2)">
    <path id="Subtraction_2-2" data-name="Subtraction 2" d="M249,330a215.9,215.9,0,0,1-36.881-3.159,206.347,206.347,0,0,1-34.351-9.061,195.19,195.19,0,0,1-31.085-14.337A181.3,181.3,0,0,1,119.6,284.455a165.4,165.4,0,0,1-22.346-23.014,149.94,149.94,0,0,1-16.873-26.414,138.289,138.289,0,0,1-10.663-29.189,133.938,133.938,0,0,1-.2-61.839H428.481a133.94,133.94,0,0,1-.2,61.839,138.292,138.292,0,0,1-10.663,29.189,149.939,149.939,0,0,1-16.872,26.414A165.4,165.4,0,0,1,378.4,284.455a181.291,181.291,0,0,1-27.083,18.988,195.183,195.183,0,0,1-31.085,14.337,206.346,206.346,0,0,1-34.351,9.061A215.894,215.894,0,0,1,249,330Z" transform="translate(-57 -138)" fill="#fff"/>
  </g>
</svg>
