<svg xmlns="http://www.w3.org/2000/svg" xmlns:xlink="http://www.w3.org/1999/xlink" width="1878.952" height="1239.279" viewBox="0 0 1878.952 1239.279">
  <defs>
    <filter id="Subtraction_3" x="0" y="233.33" width="295.963" height="385.589" filterUnits="userSpaceOnUse">
      <feOffset dy="3" input="SourceAlpha"/>
      <feGaussianBlur stdDeviation="3" result="blur"/>
      <feFlood flood-opacity="0.329"/>
      <feComposite operator="in" in2="blur"/>
      <feComposite in="SourceGraphic"/>
    </filter>
    <filter id="Path_231" x="73.566" y="0" width="270.434" height="270.434" filterUnits="userSpaceOnUse">
      <feOffset dy="3" input="SourceAlpha"/>
      <feGaussianBlur stdDeviation="3" result="blur-2"/>
      <feFlood flood-opacity="0.329"/>
      <feComposite operator="in" in2="blur-2"/>
      <feComposite in="SourceGraphic"/>
    </filter>
    <filter id="Path_235" x="1499.899" y="594.56" width="270.434" height="270.434" filterUnits="userSpaceOnUse">
      <feOffset dy="3" input="SourceAlpha"/>
      <feGaussianBlur stdDeviation="3" result="blur-3"/>
      <feFlood flood-opacity="0.329"/>
      <feComposite operator="in" in2="blur-3"/>
      <feComposite in="SourceGraphic"/>
    </filter>
    <filter id="Path_233" x="1617.915" y="311.014" width="203.97" height="203.092" filterUnits="userSpaceOnUse">
      <feOffset dy="3" input="SourceAlpha"/>
      <feGaussianBlur stdDeviation="3" result="blur-4"/>
      <feFlood flood-opacity="0.329"/>
      <feComposite operator="in" in2="blur-4"/>
      <feComposite in="SourceGraphic"/>
    </filter>
    <filter id="Path_229" x="244.843" y="654.837" width="203.97" height="203.092" filterUnits="userSpaceOnUse">
      <feOffset dy="3" input="SourceAlpha"/>
      <feGaussianBlur stdDeviation="3" result="blur-5"/>
      <feFlood flood-opacity="0.329"/>
      <feComposite operator="in" in2="blur-5"/>
      <feComposite in="SourceGraphic"/>
    </filter>
    <filter id="Path_232" x="1499.899" y="861.93" width="379.054" height="377.35" filterUnits="userSpaceOnUse">
      <feOffset dy="3" input="SourceAlpha"/>
      <feGaussianBlur stdDeviation="3" result="blur-6"/>
      <feFlood flood-opacity="0.329"/>
      <feComposite operator="in" in2="blur-6"/>
      <feComposite in="SourceGraphic"/>
    </filter>
    <filter id="Path_228" x="64.316" y="846.994" width="379.054" height="377.35" filterUnits="userSpaceOnUse">
      <feOffset dy="3" input="SourceAlpha"/>
      <feGaussianBlur stdDeviation="3" result="blur-7"/>
      <feFlood flood-opacity="0.329"/>
      <feComposite operator="in" in2="blur-7"/>
      <feComposite in="SourceGraphic"/>
    </filter>
  </defs>
  <g id="Group_71" data-name="Group 71" transform="translate(10 -2465.44)">
    <g transform="matrix(1, 0, 0, 1, -10, 2465.44)" filter="url(#Subtraction_3)">
      <path id="Subtraction_3-2" data-name="Subtraction 3" d="M-1711.976,510.859h0a230.642,230.642,0,0,1-57.422-7.268c-20.386-5-40.929-10.536-61.059-16.463V144.271h.548a117.212,117.212,0,0,1,11.77.606l0,0a101.179,101.179,0,0,1,20.236,4.02,101.24,101.24,0,0,1,18.814,7.949,101.271,101.271,0,0,1,16.832,11.57,101.247,101.247,0,0,1,14.289,14.883l.761.974a100.462,100.462,0,0,1,10.552,17.119,102.076,102.076,0,0,1,6.94,18.823,22.79,22.79,0,0,1,1.019,4.163l.025.124c.2.915.357,1.857.514,2.767v.006l.011.062q.077.449.156.9c6.055,26.745,33.228,32.308,48.887,33.243.467-.006.948-.009,1.428-.009,1.846,0,3.785.044,5.926.133.773-.024,1.227-.055,1.276-.058l.146.139a135.786,135.786,0,0,1,31.458,5.283,119.437,119.437,0,0,1,14.01,5.275,13.466,13.466,0,0,0-4.8,6.634c-1.718,2.574-3.424,5.28-5.075,7.9-6.365,10.092-12.947,20.528-22.706,27.9a101.834,101.834,0,0,0-10.476,9.615c-4.579,4.615-9.314,9.386-15.139,12.74a4.483,4.483,0,0,0-1.139,1.215,6.755,6.755,0,0,0-.943,8.276,7.245,7.245,0,0,0,6.47,3.956,7.294,7.294,0,0,0,1-.069,17.383,17.383,0,0,0,7.734-3.072c2.8-1.868,5.62-3.789,8.348-5.647l0,0c2.428-1.653,4.938-3.362,7.419-5.025a7.656,7.656,0,0,1,3.854-1.625c1.5,0,2.513,1.265,3.379,4.229a25.249,25.249,0,0,1,.24,13.28c-.99,3.972-2.017,7.983-3.011,11.862-1.282,5.007-2.609,10.184-3.859,15.3a41.964,41.964,0,0,0-2.231,12.029c.214,4.221.821,8.073,5.833,8.844.122.023.252.043.386.059a8.091,8.091,0,0,0,1.065.071,8.02,8.02,0,0,0,7.916-6.95c1.224-4.047,2.347-8.194,3.433-12.2.5-1.832,1.009-3.726,1.528-5.594A55.343,55.343,0,0,1-1631.1,362c.046,1.127.089,2.1.128,2.967v.017c.076,1.711.136,3.062.162,4.393.063,3.138.1,6.319.138,9.4v.016c.081,6.624.164,13.473.487,20.2.235,4.96,3.308,8.425,7.472,8.425a8.255,8.255,0,0,0,4.59-1.5,9.737,9.737,0,0,0,3.682-9.4c-.216-7.42-.314-14.967-.408-22.265-.031-2.382-.063-4.841-.1-7.257a45.7,45.7,0,0,1,4.108,9.838,83.657,83.657,0,0,0,5.556,16.391c1.543,2.63,3.459,5.437,6.675,5.437a7,7,0,0,0,2.162-.372,8.485,8.485,0,0,0,5.773-9.736,49.851,49.851,0,0,0-2.61-10.834c-1.8-5.975-3.529-12.087-5.2-18l0-.006c-.667-2.361-1.424-5.038-2.159-7.609l1.136-.554c2.016,1.846,4.111,3.772,5.959,5.471l.011.01c4.641,4.267,9.441,8.679,14.205,12.967a7.876,7.876,0,0,0,5.74,2.45,7.951,7.951,0,0,0,5.027-1.8,7.953,7.953,0,0,0,1.111-11.169,45.712,45.712,0,0,0-5.7-6.133,82.982,82.982,0,0,1-15.024-16.877,51.3,51.3,0,0,1-7.962-21.343,35.545,35.545,0,0,1,2.163-18.077,37.234,37.234,0,0,0,.811-4.262,120.371,120.371,0,0,1,21.376,25.495,120.368,120.368,0,0,1,13.556,30.241,118.851,118.851,0,0,1,4.742,33.2,119.472,119.472,0,0,1-5.065,34.357,119.625,119.625,0,0,1-13.8,30.088c-18.2,28.664-45.475,47.546-83.386,57.724A230.557,230.557,0,0,1-1711.976,510.859Z" transform="translate(1839.96 95.56)" fill="#a0195a" stroke="rgba(0,0,0,0)" stroke-miterlimit="10" stroke-width="1" opacity="0.05"/>
    </g>
    <g transform="matrix(1, 0, 0, 1, -10, 2465.44)" filter="url(#Path_231)">
      <path id="Path_231-2" data-name="Path 231" d="M187.316,130.605A53.643,53.643,0,0,1,127.367,165.6a16.589,16.589,0,0,0,1.282-1.464,15.917,15.917,0,0,1,5.791-5.755c6.376-3.722,12.982-3.678,19.853-2.429a20.439,20.439,0,0,0,3.742.322,3.56,3.56,0,0,0,.437-7.1c-4.026-.71-8.067-1.362-12.09-2.036l-.118-.554c3.691-1.494,7.372-3.03,11.084-4.47a22.348,22.348,0,0,0,4.55-2.069,3.809,3.809,0,0,0,1.847-4.728c-.733-2.023-2.526-1.952-4.23-1.724a37.422,37.422,0,0,0-7.326,2.562,20.459,20.459,0,0,1-4.611,1.264c3.515-2.664,7.02-5.359,10.573-7.973a4.377,4.377,0,0,0,2.3-3.9c-.207-2.948-3.139-4.217-5.778-2.35-3.615,2.554-7.094,5.3-10.637,7.955-.715.536-1.448,1.045-2.687,1.934a24.813,24.813,0,0,1,3.681-5.451c1.643-2.22,3.328-4.409,4.92-6.667a3.587,3.587,0,0,0-.049-5.073c-.041-.041-.084-.082-.128-.12-1.686-1.586-3.242-.669-4.736.381a18.836,18.836,0,0,0-3.635,4.11c-2.593,3.288-5.117,6.619-7.7,9.927a11.317,11.317,0,0,1-4.759,3.581c-2.051.817-2.749.368-2.917-1.837-.207-2.841-.37-5.684-.582-8.522a7.762,7.762,0,0,0-1.05-3.581,3.264,3.264,0,0,0-3.436-1.566,3.035,3.035,0,0,0-2.664,2.618,2.023,2.023,0,0,0-.115.738c.728,5.137-.9,10.154-.828,15.225.115,6.93-2.894,13.393-4.979,19.7a6.013,6.013,0,0,0-1.019,3.528,54.208,54.208,0,0,1-5.732-3.495,60.706,60.706,0,0,1-10.553-9.658l-.089-.013s-.115-.171-.332-.467c-.713-.838-1.408-1.689-2.074-2.565-4.307-4.882-13.955-13.421-25.246-8.1-.5.266-1,.542-1.507.789l-.051.026a10.256,10.256,0,0,1-1.752.789,45.3,45.3,0,0,1-17.531,3.742h-.554a45.308,45.308,0,0,1-32.953-14.19v0C.736,114.162-2.873,98.158,2.269,79.373A78.031,78.031,0,0,1,26.118,42.085,444.775,444.775,0,0,1,72.609,6.322q2.625-1.835,5.242-3.676a10.049,10.049,0,0,1,5.73-2.58A11.471,11.471,0,0,1,84.837,0h.46a11.238,11.238,0,0,1,1.277.074,10.064,10.064,0,0,1,4.894,1.941c.123.082.253.153.378.238,1.939,1.29,3.908,2.567,5.875,3.844l2.35,1.533a616.122,616.122,0,0,1,53.133,37.487A103.333,103.333,0,0,1,184.692,85.2c6.866,16.2,7.732,31.05,2.623,45.406" transform="translate(335 123.67) rotate(135)" fill="#a0195a" opacity="0.05"/>
    </g>
    <g transform="matrix(1, 0, 0, 1, -10, 2465.44)" filter="url(#Path_235)">
      <path id="Path_235-2" data-name="Path 235" d="M187.316,35.8A53.643,53.643,0,0,0,127.367.807a16.589,16.589,0,0,1,1.282,1.464,15.917,15.917,0,0,0,5.791,5.755c6.376,3.722,12.982,3.678,19.853,2.429a20.439,20.439,0,0,1,3.742-.322,3.56,3.56,0,0,1,.437,7.1c-4.026.71-8.067,1.362-12.09,2.036l-.118.554c3.691,1.494,7.372,3.03,11.084,4.47a22.348,22.348,0,0,1,4.55,2.069,3.809,3.809,0,0,1,1.847,4.728c-.733,2.023-2.526,1.952-4.23,1.724a37.422,37.422,0,0,1-7.326-2.562,20.459,20.459,0,0,0-4.611-1.264c3.515,2.664,7.02,5.359,10.573,7.973a4.377,4.377,0,0,1,2.3,3.9c-.207,2.948-3.139,4.217-5.778,2.35-3.615-2.554-7.094-5.3-10.637-7.955-.715-.536-1.448-1.045-2.687-1.934a24.813,24.813,0,0,0,3.681,5.451c1.643,2.22,3.328,4.409,4.92,6.667a3.587,3.587,0,0,1-.049,5.073c-.041.041-.084.082-.128.12-1.686,1.586-3.242.669-4.736-.381a18.836,18.836,0,0,1-3.635-4.11c-2.593-3.288-5.117-6.619-7.7-9.927a11.317,11.317,0,0,0-4.759-3.581c-2.051-.817-2.749-.368-2.917,1.837-.207,2.841-.37,5.684-.582,8.522a7.762,7.762,0,0,1-1.05,3.581,3.264,3.264,0,0,1-3.436,1.566,3.035,3.035,0,0,1-2.664-2.618,2.023,2.023,0,0,1-.115-.738c.728-5.137-.9-10.154-.828-15.225.115-6.93-2.894-13.393-4.979-19.7a6.013,6.013,0,0,1-1.019-3.528,54.208,54.208,0,0,0-5.732,3.495,60.706,60.706,0,0,0-10.553,9.658l-.089.013s-.115.171-.332.467c-.713.838-1.408,1.689-2.074,2.565-4.307,4.882-13.955,13.421-25.246,8.1-.5-.266-1-.542-1.507-.789l-.051-.026a10.256,10.256,0,0,0-1.752-.789,45.3,45.3,0,0,0-17.531-3.742h-.554A45.308,45.308,0,0,0,12.98,39.469v0C.736,52.244-2.873,68.248,2.269,87.033a78.031,78.031,0,0,0,23.849,37.288,444.775,444.775,0,0,0,46.492,35.763q2.625,1.835,5.242,3.676a10.049,10.049,0,0,0,5.73,2.58,11.471,11.471,0,0,0,1.257.066h.46a11.238,11.238,0,0,0,1.277-.074,10.064,10.064,0,0,0,4.894-1.941c.123-.082.253-.153.378-.238,1.939-1.29,3.908-2.567,5.875-3.844l2.35-1.533a616.13,616.13,0,0,0,53.133-37.487,103.332,103.332,0,0,0,31.486-40.082c6.866-16.2,7.732-31.05,2.623-45.406" transform="translate(1626.57 600.56) rotate(45)" fill="#a0195a" opacity="0.05"/>
    </g>
    <g transform="matrix(1, 0, 0, 1, -10, 2465.44)" filter="url(#Path_233)">
      <path id="Path_233-2" data-name="Path 233" d="M137.755,26.328A39.45,39.45,0,0,0,93.668.593a12.2,12.2,0,0,1,.943,1.076A11.705,11.705,0,0,0,98.869,5.9c4.689,2.737,9.547,2.705,14.6,1.787a15.03,15.03,0,0,1,2.752-.237,2.618,2.618,0,0,1,.321,5.223c-2.961.522-5.933,1-8.891,1.5l-.086.408c2.715,1.1,5.422,2.228,8.151,3.288a16.433,16.433,0,0,1,3.346,1.522,2.8,2.8,0,0,1,1.358,3.477c-.539,1.488-1.858,1.435-3.111,1.268a27.52,27.52,0,0,1-5.388-1.884,15.046,15.046,0,0,0-3.391-.93c2.585,1.959,5.162,3.941,7.776,5.863A3.219,3.219,0,0,1,118,30.048c-.152,2.168-2.309,3.1-4.249,1.728-2.658-1.879-5.217-3.9-7.823-5.85-.526-.395-1.065-.768-1.976-1.422a18.249,18.249,0,0,0,2.707,4.009c1.208,1.633,2.448,3.242,3.618,4.9a2.638,2.638,0,0,1-.036,3.731c-.03.03-.062.06-.094.088-1.24,1.167-2.384.492-3.483-.28a13.853,13.853,0,0,1-2.673-3.023c-1.907-2.418-3.763-4.867-5.664-7.3A8.322,8.322,0,0,0,94.829,24c-1.509-.6-2.021-.271-2.145,1.351-.152,2.089-.272,4.18-.428,6.267a5.708,5.708,0,0,1-.772,2.634A2.4,2.4,0,0,1,88.956,35.4,2.232,2.232,0,0,1,87,33.477a1.487,1.487,0,0,1-.085-.543c.535-3.778-.663-7.467-.609-11.2.085-5.1-2.128-9.85-3.661-14.488a4.422,4.422,0,0,1-.75-2.594,39.868,39.868,0,0,0-4.216,2.57,44.643,44.643,0,0,0-7.761,7.1l-.066.009s-.085.126-.244.344c-.524.616-1.035,1.242-1.525,1.886-3.167,3.59-10.263,9.87-18.566,5.955-.368-.2-.735-.4-1.108-.58l-.038-.019a7.543,7.543,0,0,0-1.289-.58A33.315,33.315,0,0,0,34.187,18.59H33.78A33.32,33.32,0,0,0,9.546,29.026v0c-9,9.393-11.659,21.162-7.877,34.978A57.385,57.385,0,0,0,19.207,91.428a327.091,327.091,0,0,0,34.191,26.3q1.93,1.35,3.855,2.7a7.39,7.39,0,0,0,4.214,1.9,8.436,8.436,0,0,0,.924.049h.338a8.26,8.26,0,0,0,.939-.054,7.4,7.4,0,0,0,3.6-1.428c.09-.06.186-.113.278-.175,1.426-.949,2.874-1.888,4.321-2.827l1.728-1.127A453.109,453.109,0,0,0,112.67,89.2a75.993,75.993,0,0,0,23.156-29.477c5.05-11.912,5.687-22.834,1.929-33.392" transform="translate(1710.38 317.01) rotate(43)" fill="#a0195a" opacity="0.05"/>
    </g>
    <g transform="matrix(1, 0, 0, 1, -10, 2465.44)" filter="url(#Path_229)">
      <path id="Path_229-2" data-name="Path 229" d="M137.755,96.049a39.45,39.45,0,0,1-44.087,25.735,12.2,12.2,0,0,0,.943-1.076,11.705,11.705,0,0,1,4.259-4.232c4.689-2.737,9.547-2.705,14.6-1.787a15.03,15.03,0,0,0,2.752.237,2.618,2.618,0,0,0,.321-5.223c-2.961-.522-5.933-1-8.891-1.5l-.086-.408c2.715-1.1,5.422-2.228,8.151-3.288a16.433,16.433,0,0,0,3.346-1.522,2.8,2.8,0,0,0,1.358-3.477c-.539-1.488-1.858-1.435-3.111-1.268a27.52,27.52,0,0,0-5.388,1.884,15.046,15.046,0,0,1-3.391.93c2.585-1.959,5.162-3.941,7.776-5.863A3.219,3.219,0,0,0,118,92.33c-.152-2.168-2.309-3.1-4.249-1.728-2.658,1.879-5.217,3.9-7.823,5.85-.526.395-1.065.768-1.976,1.422a18.248,18.248,0,0,1,2.707-4.009c1.208-1.633,2.448-3.242,3.618-4.9a2.638,2.638,0,0,0-.036-3.731c-.03-.03-.062-.06-.094-.088-1.24-1.167-2.384-.492-3.483.28a13.852,13.852,0,0,0-2.673,3.023c-1.907,2.418-3.763,4.867-5.664,7.3a8.322,8.322,0,0,1-3.5,2.634c-1.509.6-2.021.271-2.145-1.351-.152-2.089-.272-4.18-.428-6.267a5.708,5.708,0,0,0-.772-2.634,2.4,2.4,0,0,0-2.527-1.152A2.232,2.232,0,0,0,87,88.9a1.487,1.487,0,0,0-.085.543c.535,3.778-.663,7.467-.609,11.2.085,5.1-2.128,9.85-3.661,14.488a4.422,4.422,0,0,0-.75,2.594,39.869,39.869,0,0,1-4.216-2.57,44.644,44.644,0,0,1-7.761-7.1l-.066-.009s-.085-.126-.244-.344c-.524-.616-1.035-1.242-1.525-1.886-3.167-3.59-10.263-9.87-18.566-5.955-.368.2-.735.4-1.108.58l-.038.019a7.542,7.542,0,0,1-1.289.58,33.315,33.315,0,0,1-12.893,2.752H33.78A33.32,33.32,0,0,1,9.546,93.352v0c-9-9.393-11.659-21.162-7.877-34.978A57.385,57.385,0,0,1,19.207,30.95,327.09,327.09,0,0,1,53.4,4.65q1.93-1.35,3.855-2.7a7.39,7.39,0,0,1,4.214-1.9A8.436,8.436,0,0,1,62.391,0h.338a8.26,8.26,0,0,1,.939.054,7.4,7.4,0,0,1,3.6,1.428c.09.06.186.113.278.175,1.426.949,2.874,1.888,4.321,2.827l1.728,1.127A453.107,453.107,0,0,1,112.67,33.18a75.993,75.993,0,0,1,23.156,29.477c5.05,11.912,5.687,22.834,1.929,33.392" transform="translate(439.81 750.34) rotate(137)" fill="#a0195a" opacity="0.05"/>
    </g>
    <g transform="matrix(1, 0, 0, 1, -10, 2465.44)" filter="url(#Path_232)">
      <path id="Path_232-2" data-name="Path 232" d="M267.446,186.476a76.59,76.59,0,0,1-85.593,49.964,23.682,23.682,0,0,0,1.831-2.09,22.725,22.725,0,0,1,8.268-8.217c9.1-5.314,18.535-5.252,28.346-3.469a29.185,29.185,0,0,0,5.343.46,5.083,5.083,0,0,0,.624-10.139c-5.748-1.014-11.518-1.944-17.262-2.907l-.168-.791c5.27-2.134,10.526-4.326,15.825-6.383a31.906,31.906,0,0,0,6.5-2.954,5.439,5.439,0,0,0,2.637-6.751c-1.047-2.889-3.607-2.786-6.04-2.462a53.43,53.43,0,0,0-10.46,3.658,29.211,29.211,0,0,1-6.583,1.805c5.019-3.8,10.023-7.652,15.1-11.383a6.25,6.25,0,0,0,3.29-5.562c-.3-4.209-4.482-6.022-8.25-3.355-5.161,3.647-10.128,7.564-15.187,11.357-1.021.766-2.068,1.492-3.837,2.761a35.43,35.43,0,0,1,5.256-7.783c2.345-3.169,4.752-6.3,7.025-9.519a5.122,5.122,0,0,0-.069-7.243c-.058-.058-.12-.117-.182-.171-2.407-2.265-4.628-.956-6.762.543a26.893,26.893,0,0,0-5.19,5.868c-3.7,4.694-7.305,9.45-11,14.173A16.157,16.157,0,0,1,184.106,191c-2.929,1.167-3.924.525-4.165-2.622-.3-4.056-.529-8.115-.832-12.167a11.083,11.083,0,0,0-1.5-5.113,4.66,4.66,0,0,0-4.906-2.236,4.333,4.333,0,0,0-3.8,3.738,2.888,2.888,0,0,0-.164,1.054c1.039,7.335-1.287,14.5-1.182,21.738.164,9.895-4.132,19.122-7.108,28.128a8.585,8.585,0,0,0-1.455,5.037,77.408,77.408,0,0,1-8.184-4.989,86.675,86.675,0,0,1-15.067-13.79l-.128-.018s-.164-.244-.474-.667c-1.018-1.2-2.01-2.411-2.962-3.662-6.149-6.97-19.925-19.163-36.046-11.562-.715.379-1.426.773-2.152,1.127l-.073.036a14.641,14.641,0,0,1-2.5,1.127A64.679,64.679,0,0,1,66.373,201.5h-.791a64.69,64.69,0,0,1-47.049-20.26v0C1.051,163-4.1,140.149,3.24,113.327A111.411,111.411,0,0,1,37.29,60.088,635.033,635.033,0,0,1,103.67,9.027q3.748-2.621,7.484-5.248A14.347,14.347,0,0,1,119.335.095,16.38,16.38,0,0,1,121.129,0h.657a16.037,16.037,0,0,1,1.824.106A14.369,14.369,0,0,1,130.6,2.878c.175.117.361.219.54.339,2.768,1.842,5.58,3.665,8.389,5.489l3.355,2.188a879.7,879.7,0,0,1,75.863,53.523A147.537,147.537,0,0,1,263.7,121.646c9.8,23.127,11.04,44.332,3.746,64.83" transform="translate(1869.95 1041.69) rotate(137)" fill="#a0195a" opacity="0.05"/>
    </g>
    <g transform="matrix(1, 0, 0, 1, -10, 2465.44)" filter="url(#Path_228)">
      <path id="Path_228-2" data-name="Path 228" d="M267.446,51.116A76.59,76.59,0,0,0,181.852,1.152a23.682,23.682,0,0,1,1.831,2.09,22.725,22.725,0,0,0,8.268,8.217c9.1,5.314,18.535,5.252,28.346,3.469a29.184,29.184,0,0,1,5.343-.46,5.083,5.083,0,0,1,.624,10.139c-5.748,1.014-11.518,1.944-17.262,2.907l-.168.791c5.27,2.134,10.526,4.326,15.825,6.383a31.906,31.906,0,0,1,6.5,2.954,5.439,5.439,0,0,1,2.637,6.751c-1.047,2.889-3.607,2.786-6.04,2.462a53.43,53.43,0,0,1-10.46-3.658,29.212,29.212,0,0,0-6.583-1.805c5.019,3.8,10.023,7.652,15.1,11.383a6.25,6.25,0,0,1,3.29,5.562c-.3,4.209-4.482,6.022-8.25,3.355-5.161-3.647-10.128-7.564-15.187-11.357-1.021-.766-2.068-1.492-3.837-2.761a35.429,35.429,0,0,0,5.256,7.783c2.345,3.169,4.752,6.3,7.025,9.519a5.122,5.122,0,0,1-.069,7.243c-.058.058-.12.117-.182.171-2.407,2.265-4.628.956-6.762-.543a26.894,26.894,0,0,1-5.19-5.868c-3.7-4.694-7.305-9.45-11-14.173a16.157,16.157,0,0,0-6.795-5.113c-2.929-1.167-3.924-.525-4.165,2.622-.3,4.056-.529,8.115-.832,12.167a11.083,11.083,0,0,1-1.5,5.113,4.66,4.66,0,0,1-4.906,2.236,4.333,4.333,0,0,1-3.8-3.738,2.888,2.888,0,0,1-.164-1.054c1.039-7.335-1.287-14.5-1.182-21.738.164-9.895-4.132-19.122-7.108-28.128a8.585,8.585,0,0,1-1.455-5.037,77.408,77.408,0,0,0-8.184,4.989,86.675,86.675,0,0,0-15.067,13.79l-.128.018s-.164.244-.474.667c-1.018,1.2-2.01,2.411-2.962,3.662-6.149,6.97-19.925,19.163-36.046,11.562-.715-.379-1.426-.773-2.152-1.127l-.073-.036a14.641,14.641,0,0,0-2.5-1.127,64.68,64.68,0,0,0-25.031-5.343h-.791a64.69,64.69,0,0,0-47.049,20.26v0C1.051,74.593-4.1,97.443,3.24,124.265A111.411,111.411,0,0,0,37.29,177.5a635.036,635.036,0,0,0,66.38,51.061q3.748,2.621,7.484,5.248a14.347,14.347,0,0,0,8.181,3.684,16.38,16.38,0,0,0,1.794.095h.657a16.036,16.036,0,0,0,1.824-.106,14.369,14.369,0,0,0,6.988-2.772c.175-.117.361-.219.54-.339,2.768-1.842,5.58-3.665,8.389-5.489l3.355-2.188a879.7,879.7,0,0,0,75.863-53.523A147.537,147.537,0,0,0,263.7,115.945c9.8-23.127,11.04-44.332,3.746-64.83" transform="translate(235.35 852.99) rotate(43)" fill="#a0195a" opacity="0.05"/>
    </g>
  </g>
</svg>
