<svg xmlns="http://www.w3.org/2000/svg" xmlns:xlink="http://www.w3.org/1999/xlink" width="92" height="92" viewBox="0 0 92 92">
  <defs>
    <filter id="Rectangle_255" x="0" y="0" width="92" height="92" filterUnits="userSpaceOnUse">
      <feOffset dy="3" input="SourceAlpha"/>
      <feGaussianBlur stdDeviation="3" result="blur"/>
      <feFlood flood-opacity="0.161"/>
      <feComposite operator="in" in2="blur"/>
      <feComposite in="SourceGraphic"/>
    </filter>
  </defs>
  <g id="Group_70" data-name="Group 70" transform="translate(-1557 -5454)">
    <g transform="matrix(1, 0, 0, 1, 1557, 5454)" filter="url(#Rectangle_255)">
      <rect id="Rectangle_255-2" data-name="Rectangle 255" width="74" height="74" rx="37" transform="translate(9 6)" fill="#1e6eb4"/>
    </g>
    <path id="Path_58" data-name="Path 58" d="M694.623-50.123a2.492,2.492,0,0,1-1.768-.732L680.166-63.544a2.5,2.5,0,0,1,0-3.536,2.5,2.5,0,0,1,3.536,0l10.921,10.921L705.544-67.08a2.5,2.5,0,0,1,3.536,0,2.5,2.5,0,0,1,0,3.536L696.391-50.855A2.492,2.492,0,0,1,694.623-50.123Z" transform="translate(2297.623 5438.032) rotate(180)" fill="#fff"/>
  </g>
</svg>
