<svg xmlns="http://www.w3.org/2000/svg" xmlns:xlink="http://www.w3.org/1999/xlink" width="666.06" height="583.828" viewBox="0 0 666.06 583.828">
  <defs>
    <filter id="Path_80" x="0" y="0" width="666.06" height="583.828" filterUnits="userSpaceOnUse">
      <feOffset dy="3" input="SourceAlpha"/>
      <feGaussianBlur stdDeviation="3" result="blur"/>
      <feFlood flood-opacity="0.329"/>
      <feComposite operator="in" in2="blur"/>
      <feComposite in="SourceGraphic"/>
    </filter>
  </defs>
  <g id="Group_66" data-name="Group 66" transform="translate(-1011.649 -236.228)">
    <g transform="matrix(1, 0, 0, 1, 1011.65, 236.23)" filter="url(#Path_80)">
      <path id="Path_80-2" data-name="Path 80" d="M636.926,121.733a182.447,182.447,0,0,0-23.2-44.828C571.6,17.415,500.408-9.043,433.084,2.744a56.4,56.4,0,0,1,4.36,4.977,54.121,54.121,0,0,0,19.691,19.569c21.68,12.655,44.142,12.508,67.507,8.26a69.5,69.5,0,0,1,12.725-1.094A12.105,12.105,0,0,1,538.853,58.6c-13.689,2.415-27.43,4.63-41.111,6.923l-.4,1.885c12.551,5.081,25.068,10.3,37.688,15.2a75.984,75.984,0,0,1,15.47,7.036,12.952,12.952,0,0,1,6.28,16.078c-2.493,6.879-8.59,6.636-14.384,5.863a127.243,127.243,0,0,1-24.911-8.712,69.568,69.568,0,0,0-15.678-4.3c11.952,9.059,23.869,18.223,35.951,27.109a14.884,14.884,0,0,1,7.835,13.246c-.7,10.024-10.675,14.341-19.648,7.991-12.291-8.686-24.121-18.015-36.168-27.048-2.432-1.824-4.925-3.553-9.138-6.575a84.373,84.373,0,0,0,12.516,18.536c5.585,7.548,11.318,14.992,16.729,22.67a12.2,12.2,0,0,1-.165,17.25c-.139.139-.287.278-.434.408-5.733,5.394-11.023,2.276-16.1-1.294a64.046,64.046,0,0,1-12.36-13.976c-8.816-11.179-17.4-22.505-26.188-33.754a38.479,38.479,0,0,0-16.182-12.178c-6.975-2.78-9.346-1.251-9.919,6.245-.7,9.659-1.259,19.326-1.98,28.976a26.394,26.394,0,0,1-3.57,12.178,11.1,11.1,0,0,1-11.683,5.325,10.319,10.319,0,0,1-9.06-8.9,6.876,6.876,0,0,1-.391-2.51c2.476-17.467-3.066-34.527-2.814-51.768.391-23.565-9.841-45.54-16.929-66.986a20.446,20.446,0,0,1-3.466-12,184.347,184.347,0,0,0-19.491,11.882,206.415,206.415,0,0,0-35.882,32.842l-.3.043s-.391.582-1.129,1.59c-2.423,2.849-4.786,5.741-7.053,8.721-14.645,16.6-47.451,45.636-85.843,27.534-1.7-.9-3.4-1.841-5.125-2.684l-.174-.087a34.874,34.874,0,0,0-5.959-2.684,154.035,154.035,0,0,0-59.612-12.725h-1.885a154.06,154.06,0,0,0-112.049,48.25v.009C2.5,177.644-9.77,232.062,7.715,295.938A265.328,265.328,0,0,0,88.807,422.727a1512.351,1512.351,0,0,0,158.084,121.6q8.925,6.241,17.824,12.5A34.168,34.168,0,0,0,284.2,565.6a39.007,39.007,0,0,0,4.273.226h1.563a38.2,38.2,0,0,0,4.343-.252,34.22,34.22,0,0,0,16.642-6.6c.417-.278.86-.521,1.286-.808,6.593-4.386,13.289-8.729,19.978-13.072l7.991-5.212A2095,2095,0,0,0,520.942,412.417,351.36,351.36,0,0,0,628.005,276.126c23.348-55.078,26.292-105.578,8.92-154.393" transform="translate(9 6)" fill="#a0195a"/>
    </g>
    <path id="Path_238" data-name="Path 238" d="M327.135,50.67a28.817,28.817,0,0,1,1.842-10.34,25.381,25.381,0,0,1,4.84-8.14,22.721,22.721,0,0,1,6.875-5.2,17.947,17.947,0,0,1,7.975-1.9,9.5,9.5,0,0,1,6.545,2.172,7.873,7.873,0,0,1,2.447,6.215,9.738,9.738,0,0,1-3.107,7.122,15.064,15.064,0,0,1-8,4.015q-.88.11-1.155.11-2.035,0-2.035-1.6a1.437,1.437,0,0,1,.577-1.1,7.663,7.663,0,0,1,2.613-1.045,11.4,11.4,0,0,0,5.033-2.75,5.889,5.889,0,0,0,1.9-4.317,4.234,4.234,0,0,0-1.4-3.548,6.135,6.135,0,0,0-3.878-1.1q-6,0-10.918,6.188A22.67,22.67,0,0,0,332.36,50.01q0,6.27,2.53,9.653a8.577,8.577,0,0,0,7.315,3.382,15.635,15.635,0,0,0,8.662-2.5,21.129,21.129,0,0,0,6.408-6.463.9.9,0,0,1,.852-.385,2.163,2.163,0,0,1,1.293.495q.66.495.66.88a1.372,1.372,0,0,1-.11.6,19.027,19.027,0,0,1-7.645,8.388,21.247,21.247,0,0,1-11.193,3.162,13.279,13.279,0,0,1-9.983-4.18Q327.135,58.865,327.135,50.67ZM357.77,54.9a12.208,12.208,0,0,1,2.668-7.562A7.914,7.914,0,0,1,366.9,43.85a5.566,5.566,0,0,1,3.74,1.265,4.249,4.249,0,0,1,1.485,3.41,5.852,5.852,0,0,1-2.475,4.895,19,19,0,0,1-7.48,2.915q.77,2.365,3.96,2.365a11.894,11.894,0,0,0,8.3-3.74.938.938,0,0,1,.688-.22,1.274,1.274,0,0,1,.88.385,1.232,1.232,0,0,1,.413.935,1.909,1.909,0,0,1-.385,1.1A14.127,14.127,0,0,1,365.5,62.33a8.216,8.216,0,0,1-5.473-1.9A6.817,6.817,0,0,1,357.77,54.9Zm9.212-7.48a4.544,4.544,0,0,0-3.437,2.063,6.958,6.958,0,0,0-1.65,4.428q6.875-2.365,6.875-4.95Q368.77,47.425,366.983,47.425Zm15.1,14.85a12.622,12.622,0,0,1-5.967-1.347,7.771,7.771,0,0,1-3.547-3.383q2.42-4.18,6.435-12.43a2.749,2.749,0,0,1,2.53-1.705,2.016,2.016,0,0,1,1.4.523,1.734,1.734,0,0,1,.577,1.347,2.519,2.519,0,0,1-.33,1.32,2.122,2.122,0,0,0-.33,1.1,4.62,4.62,0,0,0,1.21,2.035,38.454,38.454,0,0,1,2.392,3.3,6.064,6.064,0,0,1,1.182,3.162,4.394,4.394,0,0,1-.6,2.338q2.53-.825,5.39-4.4a1.087,1.087,0,0,1,.8-.33q.468,0,1.045.743a2.229,2.229,0,0,1,.578,1.265,2.122,2.122,0,0,1-.22.963,11.213,11.213,0,0,1-4.785,3.987A18,18,0,0,1,382.08,62.275Zm-1.375-3.135h.22q2.75,0,2.75-2.475t-2.64-6.38l-3.63,7.37A5.813,5.813,0,0,0,380.705,59.14Zm10.45-6.05v-.6a2.3,2.3,0,0,1-1.238.495,1.073,1.073,0,0,1-.88-.468,1.845,1.845,0,0,1-.358-1.155,1.131,1.131,0,0,1,.66-1.045q.66-.358,2.09-1.018a49.916,49.916,0,0,1,3.85-13.915,17.763,17.763,0,0,1,3.685-5.527,6.287,6.287,0,0,1,4.29-2.173,3.784,3.784,0,0,1,3,1.045,3.726,3.726,0,0,1,.908,2.53v.385a16.789,16.789,0,0,1-3.053,8.085,33.047,33.047,0,0,1-6.408,7.04,25.748,25.748,0,0,1,5.83-1.54,1.159,1.159,0,0,1,.853.467,1.8,1.8,0,0,1,.412,1.238q0,.77-.935.935a43.438,43.438,0,0,0-8.58,2.805q-.11,1.76-.11,2.75,0,5.225,2.255,5.225,2.64,0,6.105-3.85a1.306,1.306,0,0,1,.962-.385,1.633,1.633,0,0,1,1.1.467,1.489,1.489,0,0,1,.522,1.155,2.106,2.106,0,0,1-.66,1.4q-4.235,4.73-8.525,4.73a4.662,4.662,0,0,1-4.483-2.393A14.225,14.225,0,0,1,391.155,53.09Zm11.77-20.845q-1.54,0-3.08,2.31a26.556,26.556,0,0,0-3.9,10.78q.11-.11,1.348-1.485t1.54-1.705q.3-.33,1.32-1.567a11.589,11.589,0,0,0,1.348-1.9q.33-.66.908-1.76a7.693,7.693,0,0,0,.77-2.09,9.34,9.34,0,0,0,.193-1.76Q403.365,32.3,402.925,32.245Zm.99,24.035a12.717,12.717,0,0,1,3.548-8.827q3.547-3.878,7.563-3.878,2.255,0,2.255,1.155v.33h1.265q1.54,0,1.54,1.43v.33l-1.54,9.46a2.611,2.611,0,0,0-.055.6q0,1.32.935,1.32,2.09,0,4.95-3.685a1.039,1.039,0,0,1,.77-.495q.55,0,.935.852a3.71,3.71,0,0,1,.385,1.485,3.213,3.213,0,0,1-.11.963,14.16,14.16,0,0,1-3.3,3.217A6.735,6.735,0,0,1,419.178,62a4,4,0,0,1-2.86-.963,4.234,4.234,0,0,1-1.237-2.612v.11a7.211,7.211,0,0,1-2.475,2.75,7.051,7.051,0,0,1-3.8.99,4.328,4.328,0,0,1-3.547-1.678A6.679,6.679,0,0,1,403.915,56.28Zm6.215,2.145a3.743,3.743,0,0,0,2.833-1.65,9.223,9.223,0,0,0,1.842-3.63l1.485-6.16a7.366,7.366,0,0,0-5.72,3.025,9.149,9.149,0,0,0-2.53,5.72Q408.04,58.425,410.13,58.425Zm-171.545,56.14a2.049,2.049,0,0,1,1.375.467,1.381,1.381,0,0,1,.55,1.072,4.066,4.066,0,0,1-.742,2.778q-.743.8-9.322,8.5a1.285,1.285,0,0,0,.688,1.1,3.749,3.749,0,0,0,2.007.44q3.575,0,9.24-3.355a.5.5,0,0,1,.3-.055q.247,0,.495.467a2.65,2.65,0,0,1,.247,1.237,1.415,1.415,0,0,1-.6,1.21,17.262,17.262,0,0,1-10.34,3.85,7.463,7.463,0,0,1-4.262-1.1,3.441,3.441,0,0,1-1.622-3,5.052,5.052,0,0,1,2.09-3.713l8.2-6.93q-5.5.44-8.03.44-.33,0-.66-.632a2.872,2.872,0,0,1-.33-1.348,1.215,1.215,0,0,1,1.375-1.375Zm1.98,11.715a12.717,12.717,0,0,1,3.548-8.827q3.548-3.877,7.563-3.878,2.255,0,2.255,1.155v.33H255.2q1.54,0,1.54,1.43v.33l-1.54,9.46a2.61,2.61,0,0,0-.055.605q0,1.32.935,1.32,2.09,0,4.95-3.685a1.039,1.039,0,0,1,.77-.495q.55,0,.935.853a3.709,3.709,0,0,1,.385,1.485,3.213,3.213,0,0,1-.11.962,14.159,14.159,0,0,1-3.3,3.217A6.735,6.735,0,0,1,255.828,132a4,4,0,0,1-2.86-.962,4.234,4.234,0,0,1-1.237-2.613v.11a7.211,7.211,0,0,1-2.475,2.75,7.052,7.052,0,0,1-3.795.99,4.328,4.328,0,0,1-3.548-1.677A6.679,6.679,0,0,1,240.565,126.28Zm6.215,2.145a3.743,3.743,0,0,0,2.833-1.65,9.223,9.223,0,0,0,1.842-3.63l1.485-6.16a7.366,7.366,0,0,0-5.72,3.025,9.149,9.149,0,0,0-2.53,5.72Q244.69,128.425,246.78,128.425Zm22.11,14.41q.165-1.815,1.43-8.223t1.457-7.04q.192-.633.962-3.135a33.581,33.581,0,0,1,1.925-4.868,12.865,12.865,0,0,1,1.98-3,8.742,8.742,0,0,1,2.75-1.925,9.466,9.466,0,0,1,4.043-.8,4.3,4.3,0,0,1,3.6,1.623,6.554,6.554,0,0,1,1.265,4.152q0,.6-.11,1.705,2.75-.605,7.26-4.84a1.464,1.464,0,0,1,.66-.165.819.819,0,0,1,.633.44,2,2,0,0,1,.3,1.155,1.364,1.364,0,0,1-.6,1.155,19.017,19.017,0,0,1-4.125,3.465,16.261,16.261,0,0,1-5.06,2.365,13.382,13.382,0,0,1-3.52,5.28,7.517,7.517,0,0,1-5.17,2.09,4.729,4.729,0,0,1-3.245-1.43q-.165.66-1.183,6.1t-1.292,6.215a2.881,2.881,0,0,1-1.32,1.4,3.713,3.713,0,0,1-1.87.632l-.385-.55a1.986,1.986,0,0,1-.44-1.155Zm7.1-15.345a4.252,4.252,0,0,0,2.75,1.1,4.149,4.149,0,0,0,2.723-1.1,8.326,8.326,0,0,0,2.118-2.86,2.35,2.35,0,0,1-1.375-2.31,3.262,3.262,0,0,1,.3-1.512,5.08,5.08,0,0,1,1.348-1.4.6.6,0,0,1,.22-.275q-.66-1.7-1.925-1.7a3.635,3.635,0,0,0-2.227.715,5.5,5.5,0,0,0-1.623,2.09,20.366,20.366,0,0,0-1.017,2.475q-.358,1.1-.77,2.75T275.985,127.49Zm21.615,4.675a4.791,4.791,0,0,1-4.235-2.227,10.838,10.838,0,0,1-1.485-6.077q0-1.155.055-1.76a58.767,58.767,0,0,1,4.18-16.61,22.648,22.648,0,0,1,4.235-6.847,7.309,7.309,0,0,1,5.335-2.723,3.42,3.42,0,0,1,2.64,1.073,3.783,3.783,0,0,1,.99,2.668v.44a26.1,26.1,0,0,1-4.51,11.605,40.188,40.188,0,0,1-8.745,9.79,23.473,23.473,0,0,0-.22,2.7q0,4.455,2.64,4.455,2.75,0,6.105-3.85a1.306,1.306,0,0,1,.962-.385,1.633,1.633,0,0,1,1.1.468,1.489,1.489,0,0,1,.522,1.155,2.106,2.106,0,0,1-.66,1.4Q302.33,132.165,297.6,132.165Zm6.71-31.735q-2.31,0-4.647,5.885A52.246,52.246,0,0,0,296.5,117.48a51.744,51.744,0,0,0,5.967-8.25q2.723-4.62,2.778-7.7Q305.245,100.43,304.31,100.43Zm15.455,27.885q2.09-.44,5.06-3.245a.856.856,0,0,1,.633-.22q.412,0,.88.743a2.456,2.456,0,0,1,.467,1.155,1.45,1.45,0,0,1-.11.632,11.656,11.656,0,0,1-4.4,3.465,11.093,11.093,0,0,1-4.4,1.21q-3.19,0-3.19-3.465a18.627,18.627,0,0,1,1.1-5.225q1.1-3.41,1.1-3.658t-.11-.247h-.055q-.935.385-3.932,4.372a30.984,30.984,0,0,0-3.658,5.638,7.1,7.1,0,0,1-1.128,2.117,2.075,2.075,0,0,1-1.513.467q-2.035-.055-2.035-4.18a36.486,36.486,0,0,1,2.42-12.045,2.523,2.523,0,0,1,2.42-1.98,1.492,1.492,0,0,1,1.1.44,1.29,1.29,0,0,1,.44.908,2.364,2.364,0,0,1-.055.632,50.738,50.738,0,0,0-2.035,8.14,33.793,33.793,0,0,1,5.61-7.562q2.75-2.613,4.895-2.613a2.916,2.916,0,0,1,1.925.688,1.927,1.927,0,0,1,.825,1.458,24.378,24.378,0,0,1-1.4,5.472,51.984,51.984,0,0,0-1.513,5.033,9.683,9.683,0,0,0-.11,1.347q0,.577.357.55T319.765,128.315Zm10.175,3.96a5.762,5.762,0,0,1-4.51-1.98,7.177,7.177,0,0,1-1.76-4.95,12.066,12.066,0,0,1,2.943-8,8.8,8.8,0,0,1,6.9-3.493,5.134,5.134,0,0,1,3.878,1.65,5.826,5.826,0,0,1,1.568,4.18,11.121,11.121,0,0,1-.22,1.76q3.575-.66,7.1-4.62a.781.781,0,0,1,.578-.22q.357,0,.742.522a1.756,1.756,0,0,1,.385,1.045,1.027,1.027,0,0,1-.22.743,17.386,17.386,0,0,1-9.13,6.05Q336.375,132.275,329.94,132.275Zm.825-3.52a3.442,3.442,0,0,0,2.668-1.6,6.284,6.284,0,0,0,1.4-3.19q-2.035-.88-2.035-2.255a3.905,3.905,0,0,1,1.43-2.75,1.718,1.718,0,0,0-.357-1.045,1.1,1.1,0,0,0-.853-.33q-2.09,0-3.575,2.448a9.673,9.673,0,0,0-1.485,5.088Q327.96,128.755,330.765,128.755Zm11.165-.66q0-1.155.11-2.365a77.285,77.285,0,0,1,3.685-19.415,24.484,24.484,0,0,1,4.427-8.278q2.777-3.272,6.133-3.272a4.129,4.129,0,0,1,3.135,1.21,4.428,4.428,0,0,1,1.155,3.19v.385a19.363,19.363,0,0,1-3.383,8.085q-2.943,4.455-9.983,10.78l-.99,5.5a24.608,24.608,0,0,1,6.133-7.4q3.437-2.668,4.922-2.668a3.721,3.721,0,0,1,2.31.632,1.746,1.746,0,0,1,.825,1.348,4.643,4.643,0,0,1-.275,1.512q-.275.8-1.98,4.757a17.016,17.016,0,0,0-1.7,5.72q0,.55.633.55a8.1,8.1,0,0,0,2.777-1.265,31.541,31.541,0,0,0,3.96-2.75,1.317,1.317,0,0,1,.688-.165q.412,0,.825.66a3.116,3.116,0,0,1,.412,1.677,2.185,2.185,0,0,1-1.1,1.788q-5.555,3.74-9.79,3.74a2.613,2.613,0,0,1-1.842-.825,3.627,3.627,0,0,1-.853-2.695,15.549,15.549,0,0,1,1.32-5.225q1.32-3.355,1.32-3.575t-.165-.22a1.88,1.88,0,0,0-.88.44,22.639,22.639,0,0,0-4.29,4.372,18.226,18.226,0,0,0-2.915,4.785,9.024,9.024,0,0,1-1.1,2.42,1.926,1.926,0,0,1-1.54.522,1.556,1.556,0,0,1-1.54-1.017A7.7,7.7,0,0,1,341.93,128.1ZM355.02,99.22q-2.53,0-5.225,7.315a44.633,44.633,0,0,0-2.09,7.7,51.059,51.059,0,0,0,5.885-7.452q2.585-3.987,2.585-6.408A1.021,1.021,0,0,0,355.02,99.22Zm13.09,33.055a5.762,5.762,0,0,1-4.51-1.98,7.177,7.177,0,0,1-1.76-4.95,12.066,12.066,0,0,1,2.943-8,8.8,8.8,0,0,1,6.9-3.493,5.134,5.134,0,0,1,3.878,1.65,5.826,5.826,0,0,1,1.568,4.18,11.121,11.121,0,0,1-.22,1.76q3.575-.66,7.1-4.62a.781.781,0,0,1,.578-.22q.357,0,.742.522a1.756,1.756,0,0,1,.385,1.045,1.027,1.027,0,0,1-.22.743,17.386,17.386,0,0,1-9.13,6.05Q374.545,132.275,368.11,132.275Zm.825-3.52a3.442,3.442,0,0,0,2.668-1.6,6.284,6.284,0,0,0,1.4-3.19q-2.035-.88-2.035-2.255a3.905,3.905,0,0,1,1.43-2.75,1.718,1.718,0,0,0-.357-1.045,1.1,1.1,0,0,0-.853-.33q-2.09,0-3.575,2.448a9.673,9.673,0,0,0-1.485,5.088Q366.13,128.755,368.935,128.755Zm10.67-3.025a13.157,13.157,0,0,1,2.86-8.222q2.86-3.712,6.545-3.713a6.071,6.071,0,0,1,1.925.33q2.53-18.26,10.23-18.26a3.824,3.824,0,0,1,2.777,1.1,3.923,3.923,0,0,1,1.238,2.585,8.89,8.89,0,0,1,.055,1.155,20.653,20.653,0,0,1-2.8,9.955q-1.54,2.86-2.448,4.345t-3.163,4.73q-2.255,3.245-2.585,3.74v.5q0,4.73,2.53,4.73,2.86,0,5.94-4.015a1.205,1.205,0,0,1,.88-.275,1.711,1.711,0,0,1,1.155.5,1.511,1.511,0,0,1,.55,1.155,2.12,2.12,0,0,1-.44,1.265q-3.795,4.84-8.525,4.84-3.685,0-5.39-3.795a5.774,5.774,0,0,1-5.775,3.9,5.06,5.06,0,0,1-3.96-1.815A6.9,6.9,0,0,1,379.605,125.73Zm6.435,2.7a2.9,2.9,0,0,0,2.5-1.458,14.044,14.044,0,0,0,1.513-5.307l.66-4.18a5.94,5.94,0,0,0-4.84,2.42,8.447,8.447,0,0,0-1.925,5.39v.6Q384.115,128.425,386.04,128.425Zm14.3-28q-1.815,0-2.915,2.97a38.106,38.106,0,0,0-1.237,3.658,107.37,107.37,0,0,0-1.842,11.083,7.192,7.192,0,0,0,.44-.77q.11-.11,1.32-2.007t2.145-3.548a35.936,35.936,0,0,0,2.035-4.455,13.681,13.681,0,0,0,1.1-4.868Q401.385,100.43,400.34,100.43Zm16.225,27.885q2.09-.44,5.06-3.245a.856.856,0,0,1,.633-.22q.412,0,.88.743a2.456,2.456,0,0,1,.467,1.155,1.45,1.45,0,0,1-.11.632,11.656,11.656,0,0,1-4.4,3.465,11.093,11.093,0,0,1-4.4,1.21q-3.19,0-3.19-3.465a18.627,18.627,0,0,1,1.1-5.225q1.1-3.41,1.1-3.658t-.11-.247h-.055q-.935.385-3.932,4.372a30.984,30.984,0,0,0-3.658,5.638,7.1,7.1,0,0,1-1.128,2.117,2.075,2.075,0,0,1-1.513.467q-2.035-.055-2.035-4.18a36.486,36.486,0,0,1,2.42-12.045,2.523,2.523,0,0,1,2.42-1.98,1.492,1.492,0,0,1,1.1.44,1.29,1.29,0,0,1,.44.908,2.364,2.364,0,0,1-.055.632,50.738,50.738,0,0,0-2.035,8.14,33.793,33.793,0,0,1,5.61-7.562q2.75-2.613,4.895-2.613a2.916,2.916,0,0,1,1.925.688,1.927,1.927,0,0,1,.825,1.458,24.378,24.378,0,0,1-1.4,5.472,51.984,51.984,0,0,0-1.513,5.033,9.683,9.683,0,0,0-.11,1.347q0,.577.357.55T416.565,128.315Zm10.175,3.96a5.762,5.762,0,0,1-4.51-1.98,7.177,7.177,0,0,1-1.76-4.95,12.066,12.066,0,0,1,2.943-8,8.8,8.8,0,0,1,6.9-3.493,5.134,5.134,0,0,1,3.878,1.65,5.826,5.826,0,0,1,1.568,4.18,11.121,11.121,0,0,1-.22,1.76q3.575-.66,7.1-4.62a.781.781,0,0,1,.578-.22q.357,0,.742.522a1.756,1.756,0,0,1,.385,1.045,1.027,1.027,0,0,1-.22.743,17.386,17.386,0,0,1-9.13,6.05Q433.175,132.275,426.74,132.275Zm.825-3.52a3.442,3.442,0,0,0,2.668-1.6,6.284,6.284,0,0,0,1.4-3.19q-2.035-.88-2.035-2.255a3.905,3.905,0,0,1,1.43-2.75,1.718,1.718,0,0,0-.357-1.045,1.1,1.1,0,0,0-.853-.33q-2.09,0-3.575,2.448a9.673,9.673,0,0,0-1.485,5.088Q424.76,128.755,427.565,128.755Zm12.155-5.665v-.6a2.3,2.3,0,0,1-1.238.495,1.073,1.073,0,0,1-.88-.467,1.845,1.845,0,0,1-.358-1.155,1.131,1.131,0,0,1,.66-1.045q.66-.358,2.09-1.018a49.916,49.916,0,0,1,3.85-13.915,17.763,17.763,0,0,1,3.685-5.527,6.287,6.287,0,0,1,4.29-2.173,3.784,3.784,0,0,1,3,1.045,3.726,3.726,0,0,1,.908,2.53v.385a16.789,16.789,0,0,1-3.053,8.085,33.048,33.048,0,0,1-6.408,7.04,25.748,25.748,0,0,1,5.83-1.54,1.159,1.159,0,0,1,.853.467,1.8,1.8,0,0,1,.412,1.238q0,.77-.935.935a43.438,43.438,0,0,0-8.58,2.805q-.11,1.76-.11,2.75,0,5.225,2.255,5.225,2.64,0,6.105-3.85a1.306,1.306,0,0,1,.962-.385,1.633,1.633,0,0,1,1.1.468,1.489,1.489,0,0,1,.522,1.155,2.106,2.106,0,0,1-.66,1.4q-4.235,4.73-8.525,4.73a4.662,4.662,0,0,1-4.483-2.392A14.225,14.225,0,0,1,439.72,123.09Zm11.77-20.845q-1.54,0-3.08,2.31a26.556,26.556,0,0,0-3.9,10.78q.11-.11,1.348-1.485t1.54-1.705q.3-.33,1.32-1.567a11.589,11.589,0,0,0,1.348-1.9q.33-.66.908-1.76a7.693,7.693,0,0,0,.77-2.09,9.34,9.34,0,0,0,.193-1.76Q451.93,102.3,451.49,102.245Zm16.83,26.07q2.09-.44,5.06-3.245a.856.856,0,0,1,.633-.22q.412,0,.88.743a2.456,2.456,0,0,1,.467,1.155,1.45,1.45,0,0,1-.11.632,11.656,11.656,0,0,1-4.4,3.465,11.093,11.093,0,0,1-4.4,1.21q-3.19,0-3.19-3.465a18.627,18.627,0,0,1,1.1-5.225q1.1-3.41,1.1-3.658t-.11-.247H465.3q-.935.385-3.932,4.372a30.984,30.984,0,0,0-3.658,5.638,7.1,7.1,0,0,1-1.128,2.117,2.075,2.075,0,0,1-1.513.467q-2.035-.055-2.035-4.18a36.486,36.486,0,0,1,2.42-12.045,2.523,2.523,0,0,1,2.42-1.98,1.492,1.492,0,0,1,1.1.44,1.29,1.29,0,0,1,.44.908,2.364,2.364,0,0,1-.055.632,50.738,50.738,0,0,0-2.035,8.14,33.793,33.793,0,0,1,5.61-7.562q2.75-2.613,4.895-2.613a2.916,2.916,0,0,1,1.925.688,1.927,1.927,0,0,1,.825,1.458,24.378,24.378,0,0,1-1.4,5.472,51.984,51.984,0,0,0-1.513,5.033,9.683,9.683,0,0,0-.11,1.347q0,.577.357.55T468.32,128.315Zm6.49,21.12q-4.565,0-4.565-3.74a4.041,4.041,0,0,1,.33-1.705q.165-.44.3-.8a3.952,3.952,0,0,1,.44-.8q.3-.44.467-.687t.55-.743q.385-.5.522-.66t.578-.632a4.285,4.285,0,0,0,.495-.577,29.161,29.161,0,0,1,5.665-4.675q2.035-1.32,2.75-1.87l1.65-4.785a8.027,8.027,0,0,1-2.75,3.025,6.468,6.468,0,0,1-3.6,1.21,4.089,4.089,0,0,1-3.135-1.512,5.456,5.456,0,0,1-1.348-3.768,21.9,21.9,0,0,1,2.64-10.34,3.518,3.518,0,0,1,1.155-1.237,2.594,2.594,0,0,1,1.43-.523,1.921,1.921,0,0,1,1.155.358,1.266,1.266,0,0,1,.495,1.1,4.417,4.417,0,0,1-.66,1.952,8.482,8.482,0,0,0-.44.99,27.137,27.137,0,0,0-1.375,7.123q0,2.5,1.925,2.5,2.915,0,4.565-5.555l1.6-5.72q.66-2.475,2.53-2.475,1.65,0,1.65,1.045a31.757,31.757,0,0,1-1.017,5.8q-1.018,4.318-1.678,8.332a73.794,73.794,0,0,1,9.075-5.83,1.7,1.7,0,0,1,.77-.165,1.365,1.365,0,0,1,.935.522,1.956,1.956,0,0,1,.495,1.4,1.976,1.976,0,0,1-1.155,1.6q-9.13,5.39-10.725,6.435a39.476,39.476,0,0,1-2.31,8.195,14.762,14.762,0,0,1-2.09,3.74,9.816,9.816,0,0,1-3.053,2.447A8.875,8.875,0,0,1,474.81,149.435Zm.66-3.19a3.523,3.523,0,0,0,2.365-1.045q2.31-2.255,3.85-8.745a20.147,20.147,0,0,0-4.923,4.372q-2.5,2.943-2.5,4.18A1.082,1.082,0,0,0,475.47,146.245Zm17.545-44.8a2.058,2.058,0,0,1,.77,1.568,2.14,2.14,0,0,1-.77,1.6l-6.6,6.27a1.657,1.657,0,0,1-1.1.5q-.825,0-.825-.88a2.218,2.218,0,0,1,.33-.99l4.785-7.7a1.823,1.823,0,0,1,1.622-1.045A2.6,2.6,0,0,1,493.015,101.447Zm8.965,27.693q0-2.75,2.035-10.56a80.689,80.689,0,0,0-5.995,10.23,10.659,10.659,0,0,1-1.348,2.228,2.876,2.876,0,0,1-.962.852,3.093,3.093,0,0,1-.935.11q-2.145,0-2.145-3.465a40.326,40.326,0,0,1,2.145-12.815q.6-1.87,2.09-1.87a1.609,1.609,0,0,1,.99.33.951.951,0,0,1,.44.77,2.214,2.214,0,0,1-.055.605,56.678,56.678,0,0,0-2.035,10.175,33.312,33.312,0,0,1,4.84-8.91q2.42-2.86,4.18-2.86a2.279,2.279,0,0,1,1.375.44,1.415,1.415,0,0,1,.605,1.21,47.233,47.233,0,0,1-1.76,9.46Q509.68,113.9,514.3,113.9a2.188,2.188,0,0,1,2.475,2.475,19.338,19.338,0,0,1-1.348,5.418,19.345,19.345,0,0,0-1.347,5.857q0,1.43,1.32,1.43a1.93,1.93,0,0,0,.55-.055q1.43-.33,5.06-3.85a.9.9,0,0,1,.66-.22,1.64,1.64,0,0,1,1.017.522q.578.523.578.77a1.032,1.032,0,0,1-.11.467,13.948,13.948,0,0,1-4.318,3.9,9.189,9.189,0,0,1-4.427,1.485h-.11a3.557,3.557,0,0,1-2.75-1.072,3.857,3.857,0,0,1-.99-2.723v-.5a61.4,61.4,0,0,1,2.475-9.515q-2.42,2.035-6.875,11.88Q505.28,132,504.125,132,501.98,132,501.98,129.14ZM320.123,184.565a2.049,2.049,0,0,1,1.375.467,1.381,1.381,0,0,1,.55,1.072,4.066,4.066,0,0,1-.742,2.778q-.742.8-9.323,8.5a1.285,1.285,0,0,0,.688,1.1,3.749,3.749,0,0,0,2.008.44q3.575,0,9.24-3.355a.5.5,0,0,1,.3-.055q.248,0,.495.467a2.65,2.65,0,0,1,.247,1.238,1.415,1.415,0,0,1-.605,1.21,17.262,17.262,0,0,1-10.34,3.85,7.463,7.463,0,0,1-4.262-1.1,3.441,3.441,0,0,1-1.623-3,5.052,5.052,0,0,1,2.09-3.713l8.195-6.93q-5.5.44-8.03.44-.33,0-.66-.633a2.872,2.872,0,0,1-.33-1.348,1.215,1.215,0,0,1,1.375-1.375ZM312.7,167.68q1.1,0,1.6,1.705l2.035,7.645,3.08-6.765a7.762,7.762,0,0,1,.55-1.265,3.007,3.007,0,0,1,.247-.495,1.347,1.347,0,0,1,.358-.44,2.8,2.8,0,0,1,.413-.22,2.313,2.313,0,0,1,.852-.11,2.05,2.05,0,0,1,1.21.44,1.236,1.236,0,0,1,.6.99,2.122,2.122,0,0,1-.33,1.1l-3.135,5.83q-.22.385-.55,1.018t-.467.88q-.138.248-.385.688a3.009,3.009,0,0,1-.385.578q-.137.137-.467.522a1.9,1.9,0,0,1-1.43.385,3,3,0,0,1-2.2-.632,8.862,8.862,0,0,1-1.375-2.887l-2.2-6.49a2.96,2.96,0,0,1-.165-.935Q310.553,167.68,312.7,167.68Zm10.395,29.04a22.368,22.368,0,0,1,.88-5.693,23.013,23.013,0,0,1,1.76-4.867,4.619,4.619,0,0,1,1.512-1.9,3.274,3.274,0,0,1,1.43-.3,2.421,2.421,0,0,1,1.375.385,1.05,1.05,0,0,1,.577.825,3.922,3.922,0,0,1-.633,1.54,24.694,24.694,0,0,0-1.622,4.29,18.3,18.3,0,0,0-.99,5.115q0,2.585,1.925,2.585,2.31,0,5.555-3.74a1.329,1.329,0,0,1,1.072-.55,1.694,1.694,0,0,1,1.155.467,1.433,1.433,0,0,1,.523,1.1,2.359,2.359,0,0,1-.605,1.4q-4.07,4.785-8.47,4.785a5.3,5.3,0,0,1-3.96-1.512A5.374,5.374,0,0,1,323.093,196.72Zm8.085-16.39q-2.97,0-2.97-2.585a2.672,2.672,0,0,1,.962-2.173,3.708,3.708,0,0,1,2.448-.8q2.75,0,2.75,2.475a2.941,2.941,0,0,1-.88,2.255A3.241,3.241,0,0,1,331.178,180.33Zm7.865,11.467a22.166,22.166,0,0,0,.275,3.85,12.934,12.934,0,0,0,.522,2.145q.248.633.3.633l.715-.55a11.593,11.593,0,0,0,1.9-2.145,19.614,19.614,0,0,0,2.117-3.685v-.88a9.273,9.273,0,0,1,1.348-5.417,3.69,3.69,0,0,1,2.888-1.9,1.645,1.645,0,0,1,1.128.412,1.715,1.715,0,0,1,.467,1.348,21.051,21.051,0,0,1-1.54,4.9,10.516,10.516,0,0,0,6.93-4.345,1.035,1.035,0,0,1,.908-.5,1.415,1.415,0,0,1,1.073.577,1.757,1.757,0,0,1,.495,1.128,1.982,1.982,0,0,1-.165.88,10.843,10.843,0,0,1-4.455,3.9,12.965,12.965,0,0,1-6.16,1.76h-.165q-3.19,6.105-7.315,8.25a2.417,2.417,0,0,1-1.155.33q-1.815,0-3.245-2.585a13.281,13.281,0,0,1-1.43-6.49,27.864,27.864,0,0,1,1.265-8.085,1.845,1.845,0,0,1,1.925-1.43,2.413,2.413,0,0,1,1.485.495,1.47,1.47,0,0,1,.66,1.21A33.193,33.193,0,0,0,339.043,191.8Zm18.37,10.477a5.762,5.762,0,0,1-4.51-1.98,7.177,7.177,0,0,1-1.76-4.95,12.066,12.066,0,0,1,2.943-8,8.8,8.8,0,0,1,6.9-3.492,5.134,5.134,0,0,1,3.878,1.65,5.826,5.826,0,0,1,1.568,4.18,11.121,11.121,0,0,1-.22,1.76q3.575-.66,7.1-4.62a.781.781,0,0,1,.578-.22q.357,0,.742.522a1.756,1.756,0,0,1,.385,1.045,1.027,1.027,0,0,1-.22.743,17.386,17.386,0,0,1-9.13,6.05Q363.848,202.275,357.413,202.275Zm.825-3.52a3.442,3.442,0,0,0,2.668-1.6,6.284,6.284,0,0,0,1.4-3.19q-2.035-.88-2.035-2.255a3.905,3.905,0,0,1,1.43-2.75,1.718,1.718,0,0,0-.357-1.045,1.1,1.1,0,0,0-.853-.33q-2.09,0-3.575,2.448a9.673,9.673,0,0,0-1.485,5.087Q355.433,198.755,358.238,198.755Zm12.155-5.665v-.6a2.3,2.3,0,0,1-1.238.495,1.073,1.073,0,0,1-.88-.467,1.845,1.845,0,0,1-.358-1.155,1.131,1.131,0,0,1,.66-1.045q.66-.357,2.09-1.018a49.916,49.916,0,0,1,3.85-13.915,17.763,17.763,0,0,1,3.685-5.527,6.287,6.287,0,0,1,4.29-2.173,3.784,3.784,0,0,1,3,1.045,3.726,3.726,0,0,1,.908,2.53v.385a16.789,16.789,0,0,1-3.053,8.085,33.047,33.047,0,0,1-6.408,7.04,25.749,25.749,0,0,1,5.83-1.54,1.159,1.159,0,0,1,.853.467,1.8,1.8,0,0,1,.412,1.237q0,.77-.935.935a43.436,43.436,0,0,0-8.58,2.8q-.11,1.76-.11,2.75,0,5.225,2.255,5.225,2.64,0,6.105-3.85a1.306,1.306,0,0,1,.962-.385,1.633,1.633,0,0,1,1.1.467,1.489,1.489,0,0,1,.522,1.155,2.106,2.106,0,0,1-.66,1.4q-4.235,4.73-8.525,4.73a4.662,4.662,0,0,1-4.483-2.392A14.225,14.225,0,0,1,370.393,193.09Zm11.77-20.845q-1.54,0-3.08,2.31a26.556,26.556,0,0,0-3.9,10.78q.11-.11,1.348-1.485t1.54-1.705q.3-.33,1.32-1.568a11.588,11.588,0,0,0,1.348-1.9q.33-.66.908-1.76a7.693,7.693,0,0,0,.77-2.09,9.34,9.34,0,0,0,.193-1.76Q382.6,172.3,382.163,172.245Zm1.045,22.66a12.208,12.208,0,0,1,2.668-7.562,7.914,7.914,0,0,1,6.462-3.492,5.566,5.566,0,0,1,3.74,1.265,4.249,4.249,0,0,1,1.485,3.41,5.852,5.852,0,0,1-2.475,4.9,19,19,0,0,1-7.48,2.915q.77,2.365,3.96,2.365a11.894,11.894,0,0,0,8.3-3.74.938.938,0,0,1,.688-.22,1.274,1.274,0,0,1,.88.385,1.232,1.232,0,0,1,.413.935,1.909,1.909,0,0,1-.385,1.1,14.127,14.127,0,0,1-10.533,5.17,8.216,8.216,0,0,1-5.473-1.9A6.817,6.817,0,0,1,383.208,194.9Zm9.213-7.48a4.544,4.544,0,0,0-3.438,2.063,6.958,6.958,0,0,0-1.65,4.427q6.875-2.365,6.875-4.95Q394.208,187.425,392.42,187.425Zm16.912,11.715q0-2.75,2.035-10.56a80.69,80.69,0,0,0-5.995,10.23,10.659,10.659,0,0,1-1.348,2.228,2.876,2.876,0,0,1-.962.852,3.093,3.093,0,0,1-.935.11q-2.145,0-2.145-3.465a40.326,40.326,0,0,1,2.145-12.815q.6-1.87,2.09-1.87a1.609,1.609,0,0,1,.99.33.951.951,0,0,1,.44.77,2.214,2.214,0,0,1-.055.6,56.678,56.678,0,0,0-2.035,10.175,33.314,33.314,0,0,1,4.84-8.91q2.42-2.86,4.18-2.86a2.279,2.279,0,0,1,1.375.44,1.415,1.415,0,0,1,.605,1.21,47.233,47.233,0,0,1-1.76,9.46q4.235-11.165,8.855-11.165a2.188,2.188,0,0,1,2.475,2.475,19.339,19.339,0,0,1-1.348,5.417,19.344,19.344,0,0,0-1.348,5.857q0,1.43,1.32,1.43a1.93,1.93,0,0,0,.55-.055q1.43-.33,5.06-3.85a.9.9,0,0,1,.66-.22,1.64,1.64,0,0,1,1.018.522q.577.523.577.77a1.031,1.031,0,0,1-.11.467,13.948,13.948,0,0,1-4.318,3.9,9.189,9.189,0,0,1-4.428,1.485h-.11a3.556,3.556,0,0,1-2.75-1.072,3.857,3.857,0,0,1-.99-2.723v-.495a61.4,61.4,0,0,1,2.475-9.515q-2.42,2.035-6.875,11.88-.88,1.815-2.035,1.815Q409.333,202,409.333,199.14ZM432.378,202q-3.19,0-3.19-3.135a3.688,3.688,0,0,1,.935-2.64,3.384,3.384,0,0,1,2.585-.99q3.245,0,3.245,3.08a3.723,3.723,0,0,1-.962,2.667A3.424,3.424,0,0,1,432.378,202Z" transform="translate(960 400.433)" fill="#fff"/>
  </g>
</svg>
